<svg width="172" height="29" viewBox="0 0 172 29" fill="none" xmlns="http://www.w3.org/2000/svg">
<path fill-rule="evenodd" clip-rule="evenodd" d="M32.5591 24.2018L28.3299 24.1975L28.3454 9.69369L43.571 9.70881L43.5561 24.2124L39.3268 24.2081L39.339 12.5221L32.5716 12.5158L32.5591 24.2018Z" fill="#75AF26"/>
<path fill-rule="evenodd" clip-rule="evenodd" d="M49.3277 18.9347C49.3308 15.9939 51.2019 15.4141 52.3813 15.4152C53.535 15.4163 55.4053 16.0005 55.4018 18.9411C55.4 20.7647 54.6042 22.5044 52.3736 22.5019C50.0924 22.4996 49.3256 20.7581 49.3277 18.9347ZM45.6154 13.6885L45.6001 28.0466L49.4968 28.05L49.502 23.1388C50.8076 24.5108 52.9354 24.6151 53.4481 24.6156C57.1647 24.6196 59.4485 22.3235 59.4516 18.985C59.4554 15.5046 57.203 13.307 53.5376 13.3033C52.6141 13.3018 50.8194 13.446 49.3321 14.9577H49.2544L49.2825 13.6922L45.6154 13.6885Z" fill="#75AF26"/>
<path fill-rule="evenodd" clip-rule="evenodd" d="M69.1117 22.9731C67.6757 24.278 66.2898 24.6288 64.7525 24.6275C60.5483 24.623 60.3979 21.5566 60.3992 20.2928L60.4062 13.7043L64.3029 13.7077L64.2965 19.7998C64.2939 21.8923 65.0362 22.5141 66.4715 22.5154C68.9321 22.518 69.1143 20.3833 69.115 19.6176L69.1214 13.7125L73.0175 13.7166L73.0066 24.242L69.1104 24.2381L69.1117 22.9731Z" fill="#75AF26"/>
<path fill-rule="evenodd" clip-rule="evenodd" d="M78.6031 15.8365L80.7054 15.8384C81.8073 15.8397 82.7552 16.0055 82.7547 16.875C82.7534 17.8279 81.2671 17.8486 80.6269 17.848L78.6013 17.846L78.6031 15.8365ZM74.7102 13.7181L74.6991 24.245L82.4403 24.2527C85.2602 24.2551 87.2083 23.7156 87.2106 21.5635C87.2124 19.906 86.2645 19.18 84.1111 18.8042V18.742C85.5209 18.5572 86.7512 17.7091 86.753 16.2789C86.7556 13.7303 83.681 13.727 82.4758 13.7257L74.7102 13.7181ZM78.5995 19.8143L80.984 19.8169C82.8288 19.8186 83.2124 20.3567 83.2118 21.0608C83.2111 21.5164 82.9545 22.1379 81.0323 22.1361L78.5969 22.1337L78.5995 19.8143Z" fill="#75AF26"/>
<path fill-rule="evenodd" clip-rule="evenodd" d="M96.6464 19.9156C96.6439 22.0288 94.7471 22.5442 93.7979 22.5436C93.0814 22.5429 91.7991 22.315 91.8001 21.3183C91.8014 20.1364 93.2627 19.9125 94.0837 19.8095C95.5942 19.6025 95.4676 19.6649 96.6476 19.2517L96.6464 19.9156ZM92.1372 17.1348C92.1393 15.5796 93.83 15.4579 94.5233 15.4584C94.9598 15.459 96.5747 15.4815 96.6246 16.8474L96.6241 17.1393C96.5459 18.1751 95.52 17.9652 92.6486 18.316C90.2904 18.6235 87.8039 19.2025 87.8011 21.6039C87.8003 22.4756 88.1824 24.6515 92.3347 24.6558C93.9249 24.6571 95.6678 24.2654 96.694 23.2289H96.7719L97.1043 24.2667L101.204 24.2709V24.0855C100.463 23.9386 100.41 23.2321 100.438 22.0947L100.521 17.2868C100.546 16.0662 100.42 13.3509 94.5519 13.3449C93.1418 13.3436 88.6056 13.4633 88.4221 17.1309L92.1372 17.1348Z" fill="#75AF26"/>
<path fill-rule="evenodd" clip-rule="evenodd" d="M100.956 15.8591L100.959 13.7446L113.466 13.7573L113.464 15.8717L109.157 15.8675L109.149 24.2797L105.253 24.2758L105.261 15.8636L100.956 15.8591Z" fill="#75AF26"/>
<path fill-rule="evenodd" clip-rule="evenodd" d="M118.436 17.9879L121.948 17.9918C122.971 17.9926 125.022 18.0991 125.02 19.8398C125.019 21.2081 123.532 21.4736 121.866 21.4722L118.432 21.4686L118.436 17.9879ZM118.443 12.6018L128.155 12.6116L128.158 9.7938L114.214 9.77943L114.2 24.2832L122.761 24.292C126.914 24.2964 129.581 22.89 129.583 19.9277C129.589 15.2866 124.257 15.1775 122.771 15.1762L118.439 15.1719L118.443 12.6018Z" fill="#75AF26"/>
<path fill-rule="evenodd" clip-rule="evenodd" d="M139.168 19.9582C139.166 22.0714 137.269 22.5868 136.32 22.5864C135.602 22.5851 134.323 22.357 134.323 21.3605C134.325 20.1784 135.786 19.9552 136.605 19.8522C138.117 19.6445 137.989 19.707 139.168 19.2945V19.9582ZM134.661 17.1774C134.662 15.6222 136.354 15.5002 137.044 15.501C137.482 15.501 139.097 15.5242 139.146 16.8902V17.1821C139.067 18.2179 138.042 18.0074 135.171 18.3587C132.812 18.6661 130.327 19.2453 130.325 21.6465C130.323 22.5186 130.705 24.6943 134.857 24.698C136.447 24.6996 138.191 24.3081 139.216 23.271H139.295L139.627 24.3094L143.727 24.3131V24.1278C142.983 23.9806 142.932 23.2749 142.959 22.137L143.043 17.329C143.068 16.1084 142.942 13.3936 137.072 13.3878C135.663 13.3863 131.126 13.5053 130.943 17.1737L134.661 17.1774Z" fill="#75AF26"/>
<path fill-rule="evenodd" clip-rule="evenodd" d="M148.598 24.3176L144.703 24.3139L144.713 13.7875L148.61 13.7912L148.604 17.7502L153.295 17.7552L153.3 13.7965L157.198 13.8002L157.185 24.3261L153.288 24.3226L153.293 19.8684L148.603 19.8634L148.598 24.3176Z" fill="#75AF26"/>
<path fill-rule="evenodd" clip-rule="evenodd" d="M167.039 13.81L171.372 13.8145L166.009 18.7399L171.615 24.3419L167.053 24.3377L162.855 19.7318H162.779L162.775 24.333L158.877 24.3293L158.889 13.8026L162.785 13.8062L162.78 18.0328H162.856L167.039 13.81Z" fill="#75AF26"/>
<path fill-rule="evenodd" clip-rule="evenodd" d="M0 24.2045L9.7604 24.2138L9.77054 14.7499L0.00987369 14.7406L0 24.2045Z" fill="black"/>
<path fill-rule="evenodd" clip-rule="evenodd" d="M0.0376879 -0.000488281L0.0252157 11.7805L2.60537 11.783C9.39613 11.7898 12.8361 15.1334 12.8288 21.7194L12.8262 24.2204L24.9732 24.2323L24.9991 0.0242098L0.0376879 -0.000488281ZM19.8326 5.02379L19.8175 19.2232L17.8261 19.2214C16.9744 12.1986 12.4289 7.7819 5.1899 6.94217L5.19172 5.00942L19.8326 5.02379Z" fill="#75AF26"/>
</svg>
