<svg width="155" height="76" viewBox="0 0 155 76" fill="none" xmlns="http://www.w3.org/2000/svg">
<path d="M154.506 38H0.835205V76H154.506V38Z" fill="#E2E42B"/>
<path d="M154.506 0H0.835205V38H154.506V0Z" fill="#00503C"/>
<path d="M20.8431 52.9433H21.8013L23.6015 57.2137L25.4851 52.9433H26.4433L27.5829 59.6622H26.239L25.6288 55.5215L23.8058 59.6622H23.3595L21.6197 55.5215L20.9263 59.6622H19.5824L20.8431 52.9433Z" fill="black"/>
<path d="M30.3083 52.9433V59.6622H28.9845V52.9433H30.3083Z" fill="black"/>
<path d="M33.3822 52.9434V57.4161L37.1064 52.9434H38.0419V59.6623H36.7181V55.1697L32.9939 59.6623H32.0584V52.9434H33.3822ZM34.1361 50.797C34.3504 51.361 34.9203 51.381 35.0539 51.381C35.185 51.381 35.7549 51.361 35.9692 50.797L36.8845 51.1588C36.6198 51.8428 35.9894 52.287 35.0539 52.287C34.1185 52.287 33.4856 51.8428 33.2209 51.1588L34.1361 50.797Z" fill="black"/>
<path d="M42.3691 52.9433H46.2976V54.0714H43.6929V55.6139H44.6082C45.1176 55.6139 45.7782 55.6937 46.3077 56.158C46.6959 56.4999 46.9481 57.0141 46.9481 57.648C46.9481 58.1022 46.8069 58.5141 46.5724 58.846C46.053 59.5724 45.2083 59.6622 44.6183 59.6622H42.3691V52.9433ZM43.6929 58.5341H44.3258C45.3848 58.5341 45.5865 58.0398 45.5865 57.658C45.5865 57.2337 45.352 56.742 44.3435 56.742H43.6929V58.5341Z" fill="black"/>
<path d="M52.1802 58.2521H49.4419L48.8418 59.6622H47.4071L50.3294 52.9433H51.3683L54.2074 59.6622H52.7828L52.1802 58.2521ZM51.7944 57.1838L50.8287 54.7652L49.8605 57.1838H51.7944Z" fill="black"/>
<path d="M56.5271 55.5412H59.3965V52.9405H60.7203V59.6594H59.3965V56.6669H56.5271V59.6594H55.2033V52.9405H56.5271V55.5412Z" fill="black"/>
<path d="M63.7939 55.7836L66.2877 52.9433H67.9569L65.0875 56.0456L68.1107 59.6622H66.3608L63.9478 56.6496L63.7939 56.8019V59.6622H62.4702V52.9433H63.7939V55.7836Z" fill="black"/>
<path d="M69.6562 58.2218C70.105 58.2218 70.4505 58.5637 70.4505 59.008C70.4505 59.4522 70.105 59.7941 69.6562 59.7941C69.2074 59.7941 68.862 59.4522 68.862 59.008C68.862 58.5637 69.2074 58.2218 69.6562 58.2218Z" fill="black"/>
<path d="M75.4046 52.9433H76.3602L78.1605 57.2137L80.0441 52.9433H81.0022L82.1419 59.6622H80.798L80.1877 55.5215L78.3647 59.6622H77.9184L76.1787 55.5215L75.4852 59.6622H74.1413L75.4046 52.9433Z" fill="black"/>
<path d="M90.4676 56.3078C90.4676 58.352 88.9827 59.8145 86.8447 59.8145C84.7066 59.8145 83.2213 58.3544 83.2213 56.3078C83.2213 54.2612 84.7066 52.7911 86.8447 52.7911C88.9827 52.7911 90.4676 54.2612 90.4676 56.3078ZM89.1038 56.3078C89.1038 54.9475 88.1684 53.9791 86.8447 53.9791C85.5209 53.9791 84.5855 54.9475 84.5855 56.3078C84.5855 57.6681 85.5209 58.624 86.8447 58.624C88.1684 58.624 89.1038 57.6681 89.1038 56.3078Z" fill="black"/>
<path d="M96.1292 59.6619H94.8055V57.0612H94.5607L92.8311 59.6619H91.2426L93.2571 56.9414C93.0023 56.9015 92.7276 56.7891 92.5138 56.6394C92.1079 56.3474 91.7496 55.7933 91.7496 55.0171C91.7496 54.2808 92.0644 53.7667 92.4227 53.4547C92.9522 52.9904 93.5928 52.9405 94.1624 52.9405H96.1267V59.6619H96.1292ZM94.3971 54.0112C94.1524 54.0112 93.1159 54.0212 93.1159 55.0196C93.1159 56.0379 94.1549 56.0379 94.4196 56.0379H94.808V54.0137H94.3971V54.0112Z" fill="black"/>
<path d="M101.774 55.7836L104.268 52.9433H105.937L103.068 56.0456L106.091 59.6622H104.341L101.929 56.6496L101.774 56.8019V59.6622H100.45V52.9433H101.774V55.7836Z" fill="black"/>
<path d="M109.104 52.9433C109.868 52.9433 110.397 53.0231 110.894 53.4574C111.444 53.9416 111.585 54.5955 111.585 55.0798C111.585 55.3418 111.545 56.0681 111.025 56.5798C110.649 56.9516 110.09 57.1738 109.306 57.1738H108.451V59.6622H107.127V52.9433H109.104ZM108.451 56.0456H108.991C109.245 56.0456 109.57 56.0456 109.855 55.8335C110.1 55.6413 110.221 55.3393 110.221 55.0473C110.221 54.6754 110.037 54.4233 109.845 54.281C109.57 54.0888 109.225 54.0689 108.907 54.0689H108.451V56.0456Z" fill="black"/>
<path d="M116.351 58.2521H113.613L113.012 59.6622H111.578L114.5 52.9433H115.539L118.378 59.6622H116.953L116.351 58.2521ZM115.963 57.1838L114.995 54.7652L114.028 57.1838H115.963Z" fill="black"/>
<path d="M119.251 50.7667C119.576 50.7667 119.84 51.1087 119.84 51.493C119.84 51.8774 119.576 52.2193 119.251 52.2193C118.925 52.2193 118.66 51.8774 118.66 51.493C118.66 51.1087 118.925 50.7667 119.251 50.7667ZM120.695 52.9431V59.6621H119.371V52.9431H120.695ZM120.778 50.7667C121.104 50.7667 121.369 51.1087 121.369 51.493C121.369 51.8774 121.104 52.2193 120.778 52.2193C120.453 52.2193 120.189 51.8774 120.189 51.493C120.189 51.1087 120.451 50.7667 120.778 50.7667Z" fill="black"/>
<path d="M123.769 55.5412H126.641V52.9405H127.965V59.6594H126.641V56.6669H123.769V59.6594H122.448V52.9405H123.769V55.5412Z" fill="black"/>
<path d="M133.733 58.2521H130.996L130.395 59.6622H128.96L131.883 52.9433H132.919L135.759 59.6622H134.334L133.733 58.2521ZM133.345 57.1838L132.38 54.7652L131.412 57.1838H133.345Z" fill="black"/>
<path d="M25.8609 12.3272C21.5693 12.3272 19.469 15.3073 19.469 18.9813C19.469 22.6552 21.5693 25.6353 25.8609 25.6353C30.1524 25.6353 32.2528 22.6552 32.2528 18.9813C32.2528 15.3073 30.1524 12.3272 25.8609 12.3272ZM25.8609 24.8991C23.3041 24.8991 22.2048 22.166 22.2048 18.9838C22.2048 15.8015 23.2638 13.1009 25.8206 13.1009C28.3774 13.1009 29.5195 15.8015 29.5195 18.9838C29.5195 22.166 28.4202 24.8991 25.8609 24.8991Z" fill="white"/>
<path d="M50.8305 24.4375V12.6544L48.3242 12.6593L48.3116 24.4375H44.5092V12.6593H41.9852L41.9827 24.425H38.1148V14.2992C38.1148 13.473 37.4315 12.6593 36.5893 12.6593H34.4612V13.2059C35.0235 13.2059 35.5857 13.7526 35.5857 14.3017V25.331H50.886V28.5882H52.0106L52.6888 24.4375H50.8305Z" fill="white"/>
<path d="M66.0201 24.2472C65.1578 23.0641 61.1739 12.6662 61.1739 12.6662L61.1764 12.6612H59.9333L54.0558 25.3304H55.4375L56.9025 22.1008H62.3009L63.3222 24.3296C63.6095 24.9386 64.0155 25.3379 65.0418 25.3379H66.5673V24.659C66.4639 24.659 66.1714 24.4543 66.0201 24.2472ZM57.3059 21.2072L59.845 15.3219L61.9379 21.2072H57.3059Z" fill="white"/>
<path d="M106.689 24.2472C105.826 23.0641 101.843 12.6662 101.843 12.6662L101.845 12.6612H100.601L94.7244 25.3304H96.1058L97.5715 22.1008H102.969L103.991 24.3296C104.278 24.9386 104.684 25.3379 105.71 25.3379H107.236V24.659C107.135 24.659 106.84 24.4543 106.689 24.2472ZM97.9749 21.2072L100.514 15.3219L102.607 21.2072H97.9749Z" fill="white"/>
<path d="M80.8564 24.5241C80.4681 24.5241 79.9159 24 79.5704 23.2937C78.3122 20.7154 75.2663 12.6612 75.2663 12.6612H75.2638L74.0131 12.6437L68.5567 24.4393H67.7952L68.4633 28.59H69.588V25.3328H79.0586V28.59H80.1831L80.8564 24.5241ZM73.95 15.4465L73.9905 15.4441L76.8371 23.1988C77.1473 23.9327 77.5255 24.3345 78.0222 24.5241H69.9309L73.95 15.4465Z" fill="white"/>
<path d="M88.2928 18.5724H85.5368V13.5532H90.5945L90.5971 16.7779H91.641L92.4302 12.6622L81.8804 12.6572V13.2137C82.4428 13.2137 83.005 13.7603 83.005 14.3094V25.3363L88.2928 25.3313C91.9283 25.3313 92.8161 23.4144 92.8161 21.8345C92.8161 20.1423 91.9283 18.5724 88.2928 18.5724ZM87.7934 24.5051H85.5368V19.4659H87.816C89.7702 19.4659 90.3198 20.674 90.3198 21.7721C90.3198 22.7905 89.7452 24.5051 87.7934 24.5051Z" fill="white"/>
<path d="M117.611 12.6583V18.5711H112.692V14.3106C112.692 13.4844 111.84 12.6583 110.998 12.6583H108.931V13.2049C109.493 13.2049 110.055 13.7515 110.055 14.3006V25.3299H112.692V19.4646H117.611V25.3299H120.194V12.6583H117.611Z" fill="white"/>
<path d="M134.234 23.6015C133.018 22.3636 129.657 18.6522 129.657 18.6522V18.5523L134.912 12.652L133.247 12.6495L127.98 18.5498H127.128V14.3117C127.128 13.4856 126.276 12.6595 125.433 12.6595H123.543V13.2061C124.13 13.2061 124.667 13.7527 124.667 14.3018C124.667 17.0598 124.667 25.3312 124.667 25.3312H127.128V19.5407H127.857C128.449 20.2894 131.604 24.1506 131.604 24.1506C132.569 25.2537 133.702 25.5158 134.849 25.5158H135.867L135.875 24.8045C135.572 24.8045 134.947 24.3278 134.234 23.6015Z" fill="white"/>
</svg>
