<svg width="138" height="37" viewBox="0 0 138 37" fill="none" xmlns="http://www.w3.org/2000/svg">
<path fill-rule="evenodd" clip-rule="evenodd" d="M0 0.629824H36.2699V36.8997H0V0.629824Z" fill="black"/>
<path fill-rule="evenodd" clip-rule="evenodd" d="M1.04901 1.67865H35.2208V35.8512H1.04901V1.67865Z" fill="#FFC600"/>
<path fill-rule="evenodd" clip-rule="evenodd" d="M2.86205 28.9472L7.31972 33.4913L17.7639 22.8948L28.5574 33.7096L33.0803 29.2307L22.3951 18.5471L24.4492 16.5589V12.3203L25.7385 11.2281V14.5487L27.3992 15.9032L32.3587 10.9438L33.9534 12.1672C34.8933 8.69339 29.4526 0.805902 24.9517 5.17563L19.7073 10.3753L20.7783 11.6646L18.1125 14.2645L15.5346 11.7298L16.8891 10.5057L11.1429 4.95655C6.81718 1.39481 2.3815 6.81437 2.22838 12.1012L3.80117 10.7907L8.62946 15.9912L10.3554 14.5495V11.3592L11.4256 12.1672V16.3406L13.5229 18.4379L2.86205 28.9472Z" fill="black"/>
<path fill-rule="evenodd" clip-rule="evenodd" d="M45.5338 4.97827V8.12463H46.8883C48.7453 7.7752 48.2428 5.1094 46.8883 4.97827H45.5338ZM41.6886 1.8539V16.1001H45.5338V11.4681L48.8113 16.1001H53.3561L49.3146 10.3978C53.9906 8.12541 52.2427 1.91985 47.3265 1.85468L41.6886 1.8539ZM59.4737 8.97658C60.7411 8.97658 61.7674 9.93769 61.7674 11.1179C61.7674 12.2973 60.7403 13.2591 59.4737 13.2591C58.2284 13.2591 57.2013 12.2973 57.2013 11.1179C57.2013 9.93769 58.2284 8.97658 59.4737 8.97658ZM58.665 5.83023C59.714 5.83023 60.6971 6.17965 61.5051 6.74736V6.20163H65.2631L65.2851 16.0993H61.4831L61.5051 15.4876C60.6971 16.0553 59.714 16.3835 58.665 16.3835C55.868 16.3835 53.5744 14.0239 53.5744 11.1179C53.5744 8.21179 55.8688 5.83023 58.665 5.83023ZM67.2741 6.20163H71.2724V16.0993H67.2741V6.20163ZM69.2834 0.542587C70.4424 0.542587 71.3815 1.50369 71.3815 2.66188C71.3815 3.82008 70.4424 4.78118 69.2834 4.78118C68.104 4.78118 67.1641 3.81929 67.1641 2.66188C67.1649 1.50448 68.104 0.542587 69.2834 0.542587ZM99.6328 6.20163H103.631V16.0993H99.6328V6.20163ZM101.621 0.542587C102.801 0.542587 103.74 1.50369 103.74 2.66188C103.74 3.82008 102.801 4.78118 101.621 4.78118C100.463 4.78118 99.5236 3.81929 99.5236 2.66188C99.5236 1.50448 100.463 0.542587 101.621 0.542587ZM72.0152 6.20163V9.34799H73.3917V16.0993H77.2596V9.34799H80.8866V16.0993H84.8849V9.3048H87.3756V6.24561H84.7749V4.03915C84.7098 3.23116 86.6108 2.90294 87.2664 3.5586V0.324297C83.5956 -0.833895 80.6243 1.24221 80.6455 4.45374V6.20163H77.2369V4.03915C77.1929 3.23116 78.8544 2.90294 79.8147 3.5586V0.324297C76.6244 -0.61482 73.2166 0.93598 73.2386 4.43176V6.17965L72.0152 6.20163ZM93.0778 16.3835C96.5084 16.3615 97.775 14.9419 98.5186 12.8658H95.0448C93.4712 14.8759 91.1768 13.4123 91.2867 11.7735H98.6285C98.6285 7.75322 96.4864 5.85221 93.0786 5.85221C89.6708 5.85221 87.5295 8.25576 87.5295 11.1838C87.5295 14.1119 90.0194 16.4055 93.0778 16.3835ZM91.7885 9.43594C91.8325 8.23377 94.4543 8.23377 94.6286 9.43594H91.7885ZM120.302 16.3835C123.754 16.3615 125.022 14.9419 125.764 12.8658H122.268C120.695 14.8759 118.401 13.4123 118.511 11.7735H125.853C125.853 7.75322 123.733 5.85221 120.303 5.85221C116.894 5.85221 114.754 8.25576 114.754 11.1838C114.754 14.1119 117.243 16.4055 120.302 16.3835ZM119.013 9.43594C119.057 8.23377 121.678 8.23377 121.853 9.43594H119.013ZM113.704 6.39872L112.524 8.80227C111.038 8.34292 109.596 8.43086 109.64 8.84545C109.684 9.10772 109.443 9.56628 111.759 9.8945C115.211 10.4402 114.927 16.8641 109.137 16.3835C107.542 16.2744 106.253 15.859 105.183 15.2253L106.472 12.6467C108.286 13.5426 110.033 14.0671 110.164 13.1712C110.317 12.057 108.263 12.4504 107.018 11.5105C104.789 10.134 106.056 5.87341 109.706 5.82944C110.994 5.74307 112.327 5.96136 113.704 6.39872ZM127.382 6.20163V16.0993H131.118V10.0468C131.227 8.53922 134.199 8.27696 134.221 10.0468V16.0993H138V9.8945C137.913 6.42071 134.264 4.73799 130.964 6.94445V6.20163H127.382ZM43.8951 22.1517L41.4044 36.8344H48.4619C53.247 36.8344 55.2132 30.8919 51.8045 28.8598C54.7106 26.172 53.225 22.1305 50.1006 22.0865L43.8951 22.1517ZM46.7572 30.9131L46.2546 33.3387H47.8934C49.7504 33.4258 49.5321 30.9131 48.4619 30.9131H46.7572ZM47.5872 25.6475L47.1726 27.6145L47.6751 27.6357C49.1827 27.7228 50.0567 25.6475 48.2428 25.6475H47.5872ZM53.3993 36.8564H57.6819L58.9712 34.2778H63.8215L64.5423 36.9004H68.4967L65.0668 22.2389H61.0245L53.3993 36.8564ZM60.3697 31.1974H63.0355L62.1835 27.3294L60.3697 31.1974ZM69.8519 36.9004H73.8071L74.8113 27.7016L80.4704 36.8564H84.709L86.4789 22.1509H82.5245L81.4103 31.3497L75.7505 22.107H71.665L69.8519 36.9004ZM89.3198 22.1077L86.5448 36.8564H90.7182L91.8325 31.3497L95.5685 36.8564H101.052L95.6996 29.1213L102.539 22.0858H97.2292L92.5533 27.2854L93.2961 22.0858L89.3198 22.1077Z" fill="black"/>
</svg>
