<?xml version="1.0" encoding="utf-8"?><svg viewBox="0 0 32 32" xmlns="http://www.w3.org/2000/svg" xmlns:xlink="http://www.w3.org/1999/xlink"><style>:root>svg{display:none}:root>svg:target{display:block}</style><svg viewBox="0 0 18 19" id="arrow" xmlns="http://www.w3.org/2000/svg"><path d="M5.05 14.25 4 13.2 11.2 6H4.75V4.5h9v9h-1.5V7.05l-7.2 7.2Z"/></svg><svg viewBox="0 0 24 24" id="arrow2" xmlns="http://www.w3.org/2000/svg"><path d="m12 15.375-6-6 1.4-1.4 4.6 4.6 4.6-4.6 1.4 1.4-6 6Z"/></svg><svg viewBox="0 0 24 24" id="arrow3" xmlns="http://www.w3.org/2000/svg"><path d="M2 20V4l19 8-19 8Zm2-3 11.85-5L4 7v3.5l6 1.5-6 1.5V17Z"/></svg><svg fill="none" viewBox="0 0 18 18" id="close" xmlns="http://www.w3.org/2000/svg"><path d="m4.205 15.667-1.872-1.871 4.813-4.813-4.813-4.778 1.872-1.872 4.812 4.813 4.779-4.813 1.87 1.872-4.811 4.778 4.812 4.813-1.871 1.87-4.78-4.811-4.811 4.812Z" fill="#151515"/></svg><svg fill="none" viewBox="0 0 16 16" id="location" xmlns="http://www.w3.org/2000/svg"><path d="m5.169 11.438 3.019-1.37 3.018 1.37.282-.282-3.3-7.969-3.3 7.97.28.28Zm3.019 3.75a7.304 7.304 0 0 1-2.926-.591 7.575 7.575 0 0 1-2.38-1.603 7.574 7.574 0 0 1-1.604-2.381 7.303 7.303 0 0 1-.59-2.925c0-1.038.196-2.013.59-2.925A7.574 7.574 0 0 1 2.881 2.38 7.574 7.574 0 0 1 5.263.778a7.303 7.303 0 0 1 2.925-.59c1.037 0 2.012.196 2.925.59a7.574 7.574 0 0 1 2.38 1.603 7.575 7.575 0 0 1 1.604 2.382c.394.912.59 1.887.59 2.925a7.304 7.304 0 0 1-.59 2.925 7.575 7.575 0 0 1-1.603 2.38 7.575 7.575 0 0 1-2.381 1.604 7.304 7.304 0 0 1-2.925.59Z" fill="#FFC600"/></svg><svg fill="none" viewBox="0 0 32 32" id="mail" xmlns="http://www.w3.org/2000/svg"><path d="m19.933 28-5.666-5.667 1.867-1.866 3.8 3.8 7.533-7.534 1.867 1.867-9.4 9.4Zm-5.266-14.667 10.667-6.666H4l10.667 6.666Zm0 2.667L4 9.333v13.334h6.867l2.666 2.666H4a2.568 2.568 0 0 1-1.883-.783 2.568 2.568 0 0 1-.784-1.883v-16c0-.734.262-1.361.784-1.884A2.568 2.568 0 0 1 4 4h21.334c.733 0 1.36.261 1.883.783.522.523.783 1.15.783 1.884v5.8l-2.666 2.666v-5.8L14.667 16Z" fill="#151515"/></svg><svg viewBox="0 0 24 24" id="nav" xmlns="http://www.w3.org/2000/svg"><path d="m7.825 11 5.6-5.6L12 4l-8 8 8 8 1.425-1.4-5.6-5.6H20v-2H7.825Z"/></svg><svg fill="none" viewBox="0 0 23 16" id="quote" xmlns="http://www.w3.org/2000/svg"><path d="m2.267 16 3.066-5.333c-1.466 0-2.722-.523-3.766-1.567C.522 8.056 0 6.8 0 5.333c0-1.466.522-2.722 1.567-3.766C2.61.522 3.867 0 5.333 0 6.8 0 8.056.522 9.1 1.567c1.044 1.044 1.567 2.3 1.567 3.766a5.2 5.2 0 0 1-.184 1.417c-.122.433-.305.85-.55 1.25l-4.6 8H2.267Zm12 0 3.066-5.333c-1.466 0-2.722-.523-3.766-1.567C12.522 8.056 12 6.8 12 5.333c0-1.466.522-2.722 1.567-3.766C14.61.522 15.867 0 17.333 0 18.8 0 20.056.522 21.1 1.567c1.044 1.044 1.567 2.3 1.567 3.766a5.2 5.2 0 0 1-.184 1.417c-.122.433-.305.85-.55 1.25l-4.6 8h-3.066ZM5.333 7.333c.556 0 1.028-.194 1.417-.583.389-.389.583-.861.583-1.417 0-.555-.194-1.027-.583-1.416a1.929 1.929 0 0 0-1.417-.584c-.555 0-1.027.195-1.416.584a1.929 1.929 0 0 0-.584 1.416c0 .556.195 1.028.584 1.417.389.389.86.583 1.416.583Zm12 0c.556 0 1.028-.194 1.417-.583.389-.389.583-.861.583-1.417 0-.555-.194-1.027-.583-1.416a1.929 1.929 0 0 0-1.417-.584c-.555 0-1.027.195-1.416.584a1.929 1.929 0 0 0-.584 1.416c0 .556.195 1.028.584 1.417.389.389.86.583 1.416.583Z" fill="#FFC600"/></svg></svg>