<?xml version="1.0" encoding="utf-8"?><svg viewBox="0 0 65 66" xmlns="http://www.w3.org/2000/svg" xmlns:xlink="http://www.w3.org/1999/xlink"><style>:root>svg{display:none}:root>svg:target{display:block}</style><svg fill="none" viewBox="0 0 26 26" id="download" xmlns="http://www.w3.org/2000/svg"><g clip-path="url(#aa)" fill="#000"><path d="M3.25 22.743h19.498V17.867c0-.833.612-1.511 1.456-1.612.794-.095 1.581.474 1.753 1.269.027.121.04.245.041.369.003 2.149.003 4.298 0 6.447 0 .779-.483 1.407-1.227 1.605a1.649 1.649 0 0 1-.417.053C16.773 26 9.191 26 1.61 25.999A1.61 1.61 0 0 1 .003 24.4c-.004-2.194-.004-4.389 0-6.583 0-.655.447-1.253 1.093-1.479a1.62 1.62 0 0 1 1.794.522c.239.297.367.668.362 1.05.002 1.54.002 3.08 0 4.62l-.001.213Z"/><path d="M14.666 13.921c.373-.377.74-.754 1.114-1.128.84-.844 1.678-1.688 2.523-2.526.94-.933 2.443-.542 2.765.722.152.6-.018 1.127-.452 1.561-1.75 1.753-3.5 3.504-5.253 5.253l-1.185 1.185c-.68.684-1.687.685-2.37 0l-6.436-6.44c-.914-.914-.532-2.404.705-2.74.606-.165 1.138-.005 1.58.434 1.18 1.174 2.356 2.35 3.53 3.53.046.056.088.115.125.177l.062-.037v-.243c0-4 .009-8-.008-12-.003-.837.664-1.698 1.697-1.67.745.02 1.439.633 1.53 1.374.019.145.028.292.029.438V13.893l.044.028Z"/></g><defs><clipPath id="aa"><path fill="#fff" d="M0 0h26v26H0z"/></clipPath></defs></svg><svg fill="none" viewBox="0 0 40 40" id="facebook" xmlns="http://www.w3.org/2000/svg"><g clip-path="url(#ba)"><path d="M40 20a20 20 0 1 0-23.111 19.757V25.784h-5.093V20h5.078v-4.403c0-5.01 2.987-7.78 7.556-7.78 1.501.02 3 .149 4.483.388v4.921H26.39c-2.486 0-3.26 1.541-3.26 3.123V20h5.547l-.888 5.784h-4.664v13.973A20 20 0 0 0 40 20Z" fill="#FFC600"/><path d="M27.784 25.784 28.673 20h-5.547v-3.751c0-1.582.773-3.123 3.26-3.123h2.527V8.204c-1.481-.239-2.978-.37-4.477-.39-4.57 0-7.556 2.77-7.556 7.78V20h-5.084v5.784h5.078v13.973c2.071.324 4.18.324 6.252 0V25.784h4.658Z" fill="#000"/></g><defs><clipPath id="ba"><path fill="#fff" d="M0 0h40v40H0z"/></clipPath></defs></svg><svg fill="none" viewBox="0 0 40 40" id="instagram" xmlns="http://www.w3.org/2000/svg"><g clip-path="url(#ca)"><path d="M20 40c11.046 0 20-8.954 20-20S31.046 0 20 0 0 8.954 0 20s8.954 20 20 20Z" fill="#FFC600"/><path d="M20 9.671c3.363 0 3.76 0 5.087.074.8.01 1.591.156 2.341.433a4.175 4.175 0 0 1 2.388 2.39c.278.75.425 1.54.436 2.339.06 1.327.071 1.727.071 5.087 0 3.36 0 3.763-.071 5.09a6.983 6.983 0 0 1-.436 2.338 4.176 4.176 0 0 1-2.388 2.391 7.009 7.009 0 0 1-2.34.433c-1.328.06-1.725.074-5.088.074s-3.76-.015-5.087-.074a6.967 6.967 0 0 1-2.338-.433 3.958 3.958 0 0 1-1.45-.942 3.91 3.91 0 0 1-.941-1.449 7.004 7.004 0 0 1-.433-2.344c-.062-1.327-.074-1.727-.074-5.09 0-3.363 0-3.76.074-5.087.01-.799.156-1.59.433-2.338a4.17 4.17 0 0 1 2.39-2.391 6.97 6.97 0 0 1 2.339-.433c1.327-.059 1.724-.074 5.087-.074m0-2.27c-3.42 0-3.852 0-5.191.078a9.28 9.28 0 0 0-3.058.592 6.43 6.43 0 0 0-3.689 3.68c-.37.977-.57 2.01-.592 3.055-.063 1.345-.077 1.778-.077 5.191s.014 3.852.077 5.194a9.186 9.186 0 0 0 .592 3.055 6.43 6.43 0 0 0 3.683 3.683 9.28 9.28 0 0 0 3.058.593c1.342.062 1.778.074 5.191.074s3.852 0 5.191-.075a9.262 9.262 0 0 0 3.058-.592 6.43 6.43 0 0 0 3.683-3.683c.368-.978.569-2.01.593-3.055.059-1.345.074-1.778.074-5.194s0-3.852-.075-5.191a9.258 9.258 0 0 0-.592-3.055 6.428 6.428 0 0 0-3.683-3.683 9.262 9.262 0 0 0-3.058-.592c-1.342-.063-1.778-.077-5.19-.077l.005.003Z" fill="#000"/><path d="M20 13.523a6.47 6.47 0 1 0 0 12.938 6.47 6.47 0 0 0 0-12.938Zm0 10.667a4.198 4.198 0 1 1 0-8.397 4.198 4.198 0 0 1 0 8.397ZM26.723 14.788a1.511 1.511 0 1 0 0-3.022 1.511 1.511 0 0 0 0 3.022Z" fill="#000"/></g><defs><clipPath id="ca"><path fill="#fff" d="M0 0h40v40H0z"/></clipPath></defs></svg><svg fill="none" viewBox="0 0 65 66" id="service" xmlns="http://www.w3.org/2000/svg"><path d="M32.587 37.624 18.777 51.21c.33 1.047.692 1.932.894 2.851 1.186 5.403-2.458 10.808-7.893 11.757-5.591.977-10.734-2.82-11.46-8.462-.68-5.275 2.825-10.092 8.035-11.01a9.848 9.848 0 0 1 4.02.143c.248.06.4.024.579-.157 4.682-4.728 9.368-9.453 14.058-14.173.048-.048.087-.103.166-.195-2.928-2.895-5.852-5.787-8.8-8.7a15.357 15.357 0 0 1-5.497 1.836c-.993.133-1.996.183-2.997.147-.968-.033-1.795-.516-2.475-1.198a1091.32 1091.32 0 0 1-6.322-6.389 3.67 3.67 0 0 1-1.082-2.62c0-1.926.241-3.827.881-5.66.074-.207.165-.408.273-.6.579-1.034 1.503-1.162 2.335-.324.894.902 1.78 1.813 2.672 2.716 1.135 1.148 2.272 2.295 3.41 3.44.136.138.278.267.363.348l4.93-4.76c-.54-.556-1.023-1.061-1.513-1.56a2148.224 2148.224 0 0 0-5.088-5.16c-1.094-1.111-.892-2.133.579-2.68 1.58-.588 3.242-.734 4.912-.784a9.543 9.543 0 0 1 1.687.068c.896.132 1.661.565 2.3 1.213a3465.03 3465.03 0 0 1 6.154 6.26 4.398 4.398 0 0 1 1.283 3.266c-.048 2.366-.447 4.664-1.475 6.87l8.87 8.782c1.413-1.41 2.88-2.871 4.342-4.337 1.394-1.397 2.778-2.805 4.177-4.198.192-.191.242-.325.12-.593-.971-2.135-1.338-4.397-1.318-6.73a4.325 4.325 0 0 1 1.258-3.069c2.073-2.123 4.145-4.248 6.24-6.35C48.21.387 49.229-.003 50.386 0c1.754.005 3.494.141 5.196.594.345.09.681.214 1.003.37 1.033.514 1.2 1.507.39 2.33a2068.467 2068.467 0 0 1-6.368 6.455c-.144.126-.296.241-.456.346l5.005 4.88c.213-.231.496-.55.789-.853 1.834-1.874 3.671-3.746 5.51-5.616.894-.913 1.842-.78 2.45.332.108.176.192.367.248.566.26 1.156.547 2.307.731 3.475.113.779.149 1.566.109 2.352-.038 1.006-.49 1.859-1.192 2.572a2969.973 2969.973 0 0 1-6.115 6.184c-1.075 1.086-2.409 1.442-3.894 1.315-2.14-.183-4.21-.65-6.169-1.561-.323-.15-.637-.321-.894-.45L37.9 31.896c.548.563 1.01 1.047 1.482 1.524l12.726 12.86c.179.18.33.228.579.165 5.484-1.346 10.982 2.25 11.978 7.83.944 5.288-2.327 10.265-7.544 11.474-5.293 1.226-10.713-2.315-11.743-7.672-.421-2.197-.178-4.315.808-6.332.144-.294.088-.452-.127-.663a4012.382 4012.382 0 0 1-9.317-9.364c-1.305-1.313-2.61-2.625-3.913-3.938a3.016 3.016 0 0 1-.248-.331l.006.174Zm21.635-34.88-.026-.16c-1.247-.083-2.493-.166-3.741-.243a1.882 1.882 0 0 0-1.494.586 2263.792 2263.792 0 0 0-6.148 6.266c-.413.421-.645.93-.634 1.527.038 2.166.407 4.257 1.423 6.198.202.387.619.81.557 1.147-.069.373-.567.671-.887.996-9.918 9.993-19.835 19.988-29.752 29.984-.16.162-.268.141-.456.09-.687-.191-1.374-.415-2.076-.512a7.424 7.424 0 0 0-5.735 1.63 7.468 7.468 0 0 0-2.707 5.328c-.239 4.043 2.62 7.503 6.616 8.013 5.128.654 9.465-4.248 8.216-9.278-.297-1.2-.862-2.261-1.659-3.245l30.612-30.864.37.263c2.294 1.666 4.889 2.406 7.687 2.536a1.99 1.99 0 0 0 1.571-.61c2.052-2.068 4.103-4.136 6.152-6.206.435-.438.61-.976.597-1.581a9.613 9.613 0 0 0-.06-.951c-.102-.854-.218-1.705-.33-2.557l-.145-.058c-.178.21-.345.431-.536.627-1.583 1.618-3.161 3.242-4.762 4.842-1.127 1.127-2.58 1.118-3.698-.007a496.998 496.998 0 0 1-4.41-4.49c-1.112-1.146-1.093-2.604.03-3.756.598-.612 1.204-1.216 1.804-1.825l3.62-3.69ZM30.728 27.883l-9.96-9.775c1.335-2.052 1.929-4.231 2.084-6.56.057-.851.047-1.667-.597-2.324-2.058-2.098-4.12-4.193-6.184-6.286a1.973 1.973 0 0 0-1.571-.605c-.662.036-1.323.04-1.98.098-.567.048-1.128.15-1.765.24.127.136.19.204.255.27 1.749 1.783 3.505 3.56 5.246 5.352 1.127 1.161 1.136 2.55.016 3.712a220.981 220.981 0 0 1-4.509 4.563c-.35.324-.775.559-1.236.682-1.005.277-1.82-.151-2.518-.866a1309.565 1309.565 0 0 0-4.989-5.081c-.083-.083-.17-.155-.31-.28-.116.846-.192 1.616-.33 2.375-.27 1.443.144 2.556 1.25 3.575 1.793 1.655 3.467 3.44 5.17 5.192.602.62 1.284.898 2.144.83 1.447-.118 2.863-.373 4.233-.859a12.464 12.464 0 0 0 3.5-1.918l9.925 9.817 2.126-2.152ZM51.71 49.196 36.45 33.795l-2.15 2.144 15.03 15.14c-2.812 3.484-2.162 7.863.391 10.391 2.656 2.63 6.768 2.915 9.788.675 2.935-2.178 3.858-6.273 2.177-9.542-1.597-3.123-5.585-5.22-9.976-3.407Z" fill="#000"/><path d="M14.813 56.112a4.81 4.81 0 0 1-1.423 3.384A4.78 4.78 0 0 1 10 60.88c-2.574 0-4.705-2.17-4.702-4.787 0-2.742 2.114-4.812 4.887-4.794 2.56.017 4.645 2.189 4.628 4.812Zm-4.785-2.472c-1.333.015-2.447 1.148-2.433 2.474.013 1.31 1.141 2.453 2.422 2.455 1.353 0 2.536-1.183 2.503-2.51a2.508 2.508 0 0 0-.758-1.713 2.492 2.492 0 0 0-1.731-.706h-.003ZM54.95 60.873c-2.623-.013-4.714-2.177-4.695-4.863.017-2.655 2.146-4.73 4.834-4.72 2.606.01 4.693 2.17 4.678 4.84-.015 2.654-2.15 4.756-4.817 4.743Zm2.514-4.758c0-.657-.258-1.286-.719-1.752a2.47 2.47 0 0 0-1.74-.733c-1.312-.005-2.418 1.096-2.436 2.422-.006.65.24 1.276.688 1.746.447.47 1.06.745 1.707.767 1.338.033 2.488-1.095 2.5-2.45Z" fill="#000"/></svg><svg fill="none" viewBox="0 0 40 40" id="telegram" xmlns="http://www.w3.org/2000/svg"><g clip-path="url(#ea)"><path d="M20 40c11.046 0 20-8.954 20-20S31.046 0 20 0 0 8.954 0 20s8.954 20 20 20Z" fill="#FFC600"/><path d="M29.736 11.876a.456.456 0 0 0-.31-.338 1.587 1.587 0 0 0-.84.059s-18.69 6.72-19.76 7.464c-.227.16-.296.255-.343.361-.187.53.388.765.388.765l4.818 1.57c.08.02.165.02.246 0 1.096-.693 11.025-6.963 11.6-7.173.089-.027.157 0 .14.065-.232.806-8.857 8.471-8.857 8.471a.469.469 0 0 0-.053.089l-.448 4.78s-.19 1.463 1.274 0a41.42 41.42 0 0 1 2.534-2.32c1.656 1.143 3.44 2.411 4.207 3.072a1.35 1.35 0 0 0 .978.376c.729-.027.933-.83.933-.83s3.404-13.71 3.52-15.546c0-.181.027-.297.027-.418a1.48 1.48 0 0 0-.054-.447Z" fill="#000"/></g><defs><clipPath id="ea"><path fill="#fff" d="M0 0h40v40H0z"/></clipPath></defs></svg><svg fill="none" viewBox="0 0 40 40" id="whatsapp" xmlns="http://www.w3.org/2000/svg"><g clip-path="url(#fa)"><path d="M20 40c11.046 0 20-8.954 20-20S31.046 0 20 0 0 8.954 0 20s8.954 20 20 20Z" fill="#FFC600"/><path fill-rule="evenodd" clip-rule="evenodd" d="M29.62 10.625A12.688 12.688 0 0 0 9.65 25.93L7.852 32.5l6.723-1.763a12.688 12.688 0 0 0 15.04-20.113h.006ZM20.644 30.14a10.549 10.549 0 0 1-5.366-1.481l-.385-.228-3.991 1.046 1.049-3.879-.237-.397a10.546 10.546 0 1 1 8.93 4.942v-.003Zm5.787-7.902c-.317-.16-1.876-.924-2.166-1.031-.29-.107-.504-.157-.714.16-.21.317-.818 1.031-1.005 1.241-.187.21-.37.237-.687.08a8.737 8.737 0 0 1-2.548-1.573 9.542 9.542 0 0 1-1.778-2.195c-.187-.317-.02-.49.14-.646.16-.157.316-.37.473-.557.132-.156.24-.33.323-.516a.592.592 0 0 0-.026-.557c-.08-.157-.715-1.719-.978-2.353-.264-.634-.519-.533-.711-.542-.193-.009-.397 0-.61 0a1.167 1.167 0 0 0-.845.397 3.555 3.555 0 0 0-1.108 2.643c0 1.559 1.135 3.067 1.295 3.277.16.21 2.233 3.413 5.413 4.785.59.255 1.194.478 1.807.67.647.196 1.33.239 1.997.124.61-.091 1.876-.767 2.14-1.505.263-.738.266-1.375.186-1.508-.08-.133-.281-.228-.598-.394Z" fill="#000"/></g><defs><clipPath id="fa"><path fill="#fff" d="M0 0h40v40H0z"/></clipPath></defs></svg><svg fill="none" viewBox="0 0 40 40" id="youtube" xmlns="http://www.w3.org/2000/svg"><g clip-path="url(#ga)"><path d="M20 40c11.046 0 20-8.954 20-20S31.046 0 20 0 0 8.954 0 20s8.954 20 20 20Z" fill="#FFC600"/><path d="M32.776 13.582a3.346 3.346 0 0 0-2.37-2.37c-2.074-.557-10.418-.557-10.418-.557s-8.34 0-10.418.557a3.333 3.333 0 0 0-2.37 2.37C6.643 15.656 6.643 20 6.643 20s0 4.338.557 6.418a3.34 3.34 0 0 0 2.37 2.37c2.074.557 10.418.557 10.418.557s8.338 0 10.418-.557a3.349 3.349 0 0 0 2.37-2.37c.557-2.074.557-6.418.557-6.418s.006-4.338-.557-6.418ZM17.34 24v-8l6.928 4-6.928 4Z" fill="#000"/></g><defs><clipPath id="ga"><path fill="#fff" d="M0 0h40v40H0z"/></clipPath></defs></svg></svg>