<svg width="116" height="20" viewBox="0 0 116 20" fill="none" xmlns="http://www.w3.org/2000/svg">
<path d="M4.06787 0.131222H0V19.552H4.06787V11.6787H12.991V19.552H16.9276V0.131222H12.991V8.00453H4.06787V0.131222ZM35.2986 11.2851C35.2986 14.4344 33.724 16.1403 30.8371 16.1403C27.9502 16.1403 26.3756 14.4344 26.3756 11.1538V0.131222H22.4389V11.2851C22.4389 16.7964 25.457 19.9457 30.8371 19.9457C36.2172 19.9457 39.2353 16.7964 39.2353 11.1538V0.131222H35.2986V11.2851ZM73.3529 0.131222L68.8914 13.5158L64.5611 0.131222H60.362L67.1855 19.552H70.4661L74.9276 6.82353L79.2579 19.552H82.6697L89.362 0.131222H85.2941L80.9638 13.5158L76.5023 0.131222H73.3529ZM103.665 7.61086H96.448V3.67421H106.946V0.131222H92.5113V19.552H107.339V16.009H96.448V11.1538H103.665V7.61086ZM112.063 0.131222H116V19.552H112.063V0.131222ZM55.9004 15.4842L57.6063 19.552H61.8054L53.276 0.131222L53.1448 0H49.733L41.2036 19.552H45.2715L46.9774 15.7466L47.1086 15.4842H55.9004ZM51.4389 4.98643L54.1946 11.5475L54.3258 11.9412H48.2896L48.4208 11.5475L51.4389 4.98643Z" fill="#262729"/>
</svg>
