<svg width="115" height="21" viewBox="0 0 115 21" fill="none" xmlns="http://www.w3.org/2000/svg">
<path d="M57.9312 12.1112C57.3371 11.8429 56.2256 11.5172 54.6159 11.1531C53.0062 10.789 52.0097 10.4249 51.6264 10.0799C51.2431 9.73497 51.0515 9.29421 51.0515 8.73847C51.0515 8.10607 51.3198 7.58866 51.8755 7.1479C52.4313 6.70714 53.2936 6.47717 54.5009 6.47717C55.6507 6.47717 56.5131 6.7263 57.1072 7.20539C57.7012 7.68448 58.0462 8.41269 58.142 9.37086L60.0583 9.21756C60.02 8.33604 59.7709 7.55033 59.3301 6.84128C58.8702 6.15139 58.2186 5.61482 57.3754 5.25071C56.5322 4.88661 55.5357 4.71414 54.4243 4.71414C53.4086 4.71414 52.5079 4.88661 51.6647 5.23155C50.8407 5.57649 50.2083 6.07474 49.7867 6.74546C49.3651 7.41618 49.1351 8.12523 49.1351 8.87261C49.1351 9.56249 49.3076 10.1949 49.6526 10.7506C49.9975 11.3064 50.5341 11.7663 51.2623 12.1496C51.818 12.437 52.7762 12.7628 54.156 13.0886C55.5357 13.4144 56.4173 13.6635 56.8197 13.8168C57.4521 14.0468 57.8929 14.3534 58.1611 14.6983C58.4294 15.0432 58.5636 15.4648 58.5636 15.9439C58.5636 16.4039 58.4294 16.8446 58.142 17.2279C57.8545 17.6303 57.4329 17.9369 56.858 18.1669C56.2831 18.3969 55.6124 18.5118 54.865 18.5118C54.0027 18.5118 53.2553 18.3585 52.5654 18.0711C51.8947 17.7645 51.3773 17.3812 51.0515 16.9021C50.7257 16.423 50.5149 15.7906 50.4383 15.0432L48.5602 15.1966C48.5794 16.2122 48.8669 17.1129 49.3843 17.8986C49.9017 18.7035 50.6299 19.2975 51.5497 19.7C52.4696 20.1024 53.6002 20.294 54.9608 20.294C56.034 20.294 56.9922 20.1024 57.8545 19.7C58.7169 19.2975 59.3684 18.761 59.8284 18.0519C60.2883 17.3429 60.5182 16.5955 60.5182 15.7906C60.5182 14.9858 60.3074 14.2575 59.8858 13.6443C59.4451 13.0119 58.8127 12.5137 57.9312 12.1112ZM78.6469 4.96326H76.5772V20.0258H85.9673V17.9561H78.6469V4.96326ZM92.4638 4.96326L86.868 20.0258H88.976L90.5282 15.4648H96.9672L98.6344 20.0258H100.915L94.9742 4.96326H92.4638ZM91.084 13.8551L93.6327 6.36219L96.3731 13.8551H91.084ZM112.394 15.9439C111.876 15.1391 111.397 14.43 110.995 13.9509C110.765 13.6635 110.382 13.3185 110.017 13.1461C111.34 13.0311 112.049 12.5328 112.739 11.8046C113.429 11.0764 113.774 10.1757 113.774 9.10257C113.774 8.27854 113.563 7.51201 113.141 6.82212C112.72 6.13224 112.164 5.65315 111.474 5.38486C110.765 5.11657 109.749 4.98243 108.427 4.98243H101.758V20.0449H103.809V13.3569H106.051C106.568 13.3569 106.932 13.376 107.162 13.4335C107.469 13.5102 107.775 13.6443 108.082 13.8359C108.369 14.0276 108.714 14.3725 109.078 14.8516C109.462 15.3307 109.941 16.0206 110.516 16.9213L112.509 20.0449H115L112.394 15.9439ZM108.024 11.6321H103.809V6.63049H108.504C109.615 6.63049 110.42 6.86044 110.937 7.32037C111.455 7.78029 111.704 8.37436 111.704 9.08341C111.704 9.5625 111.57 10.0224 111.301 10.444C111.033 10.8656 110.65 11.1531 110.132 11.3447C109.653 11.5363 108.944 11.6321 108.024 11.6321ZM68.1836 4.71414C64.121 4.71414 61.9172 7.10957 61.189 10.3099C61.074 10.8273 60.9207 11.8238 60.9207 12.4753C60.9207 13.2036 61.074 14.2575 61.2081 14.8133C61.9747 17.9561 64.0827 20.294 68.1836 20.294C72.2846 20.294 74.1051 18.1861 75.025 15.2732C75.2358 14.5833 75.4466 13.4527 75.4466 12.5137C75.4466 11.7855 75.2933 10.7506 75.1591 10.1949C74.3926 7.03291 72.3421 4.71414 68.1836 4.71414ZM73.2045 14.1809C72.7254 16.6913 70.9815 18.5885 68.1836 18.5885C65.4433 18.5885 63.8144 16.8446 63.2203 14.4875C63.1245 14.1234 63.0095 13.6252 62.9712 12.322C62.9712 11.8046 63.1436 10.8081 63.182 10.6548C63.6994 8.24022 65.3091 6.43885 68.1645 6.43885C70.9815 6.43885 72.4954 8.12523 73.1086 10.4249C73.1661 10.6548 73.3578 11.613 73.3769 12.3412C73.3961 13.1844 73.262 13.9126 73.2045 14.1809Z" fill="#050052"/>
<path d="M35.05 2.03133C34.3601 0.785703 33.3828 0 32.3288 0C31.2748 0 30.3166 0.766537 29.6459 1.97384L18.7419 20.275H23.2645L32.3479 5.00167L35.9698 11.1148H30.3933L28.3236 14.6026H38.0587L41.4314 20.2941H45.9157L35.05 2.03133Z" fill="#00479D"/>
<path d="M17.937 11.2106C17.937 14.4684 16.9788 16.8447 15.0433 18.3394C13.3186 19.6426 10.7699 20.2941 7.37794 20.2941H0V16.768H7.35877C9.63923 16.768 11.3256 16.4231 12.4179 15.7332C13.7402 14.8709 14.3918 13.3569 14.3918 11.2106V0.0958173H17.937V11.2106Z" fill="#00479D"/>
</svg>
