<svg width="125" height="22" viewBox="0 0 125 22" fill="none" xmlns="http://www.w3.org/2000/svg">
<path fill-rule="evenodd" clip-rule="evenodd" d="M25.0049 19.0769V12.1999V5.32285L30.5247 5.35074L36.0446 5.37863L36.7093 5.69602C37.1189 5.89155 37.5709 6.21418 37.8872 6.5367C38.1695 6.82451 38.5191 7.30786 38.6642 7.6107C38.8093 7.91355 38.9823 8.45881 39.0488 8.82228C39.1444 9.34558 39.1444 9.62073 39.0488 10.144C38.9823 10.5075 38.8091 11.0512 38.6639 11.3521C38.5186 11.6531 38.1721 12.1294 37.8937 12.4106C37.613 12.6944 37.1236 13.0482 36.7947 13.2054C36.4685 13.3613 36.1994 13.5481 36.1967 13.6205C36.194 13.693 37.0087 14.901 38.0072 16.3049C39.0057 17.7088 39.8226 18.9068 39.8226 18.9672C39.8226 19.0443 39.1887 19.0754 37.6883 19.0718L35.5539 19.0667L33.1497 15.5576C31.8274 13.6275 30.7321 11.9875 30.7157 11.913C30.6916 11.8037 31.0119 11.7705 32.3839 11.7401C33.8846 11.7069 34.1276 11.6781 34.4745 11.4921C34.6904 11.3763 34.9861 11.155 35.1317 11.0005C35.2772 10.846 35.4649 10.554 35.5487 10.3517C35.6325 10.1495 35.7011 9.73605 35.7011 9.43291C35.7011 9.08675 35.6318 8.74494 35.5148 8.5136C35.4122 8.31104 35.2034 8.01937 35.0506 7.86548C34.8979 7.71159 34.6395 7.5119 34.4766 7.4217C34.225 7.28264 33.7672 7.25297 31.457 7.22607L28.7338 7.19442V13.1356V19.0769H26.8694H25.0049ZM42.4386 6.00262C42.592 5.85624 42.9162 5.64508 43.159 5.53332C43.5904 5.33492 43.7331 5.33086 49.3413 5.3544C55.0385 5.37844 55.085 5.38032 55.4838 5.59533C55.7048 5.71451 56.0203 5.96662 56.1848 6.15553C56.3494 6.34453 56.5439 6.66983 56.6171 6.87842C56.7224 7.17859 56.7501 8.30125 56.7501 12.2525V17.2471L56.4466 17.7911C56.221 18.1954 56.008 18.4176 55.6168 18.6565L55.0906 18.978H49.2539C43.5342 18.978 43.4088 18.9738 42.9937 18.7712C42.7606 18.6576 42.4361 18.4016 42.2723 18.2025C42.1087 18.0035 41.9085 17.6123 41.8274 17.3332C41.7033 16.9059 41.6844 16.0545 41.7081 11.9429C41.7356 7.15594 41.7403 7.05219 41.9479 6.66439C42.0645 6.4468 42.2853 6.149 42.4386 6.00262ZM60.8803 11.5665C59.6612 8.2789 58.6637 5.52956 58.6637 5.45677C58.6637 5.35045 58.994 5.32978 60.3484 5.35153L62.0331 5.37863L62.8283 7.45562C63.2656 8.59796 64.0195 10.5898 64.5034 11.882C64.9874 13.1741 65.4264 14.2169 65.4789 14.1992C65.5315 14.1816 65.9549 13.0577 66.42 11.7015C66.8851 10.3454 67.5653 8.35693 67.9316 7.28254L68.5977 5.32918H69.9984C71.1914 5.32918 71.4282 5.3548 71.5968 5.50226C71.7116 5.60265 72.5075 7.47075 73.4929 9.95295C74.4268 12.3057 75.221 14.2306 75.2576 14.2306C75.2942 14.2306 75.5761 13.4851 75.8841 12.5739C76.1922 11.6627 76.8639 9.6599 77.3769 8.12322L78.3096 5.32918H80.017C80.956 5.32918 81.7233 5.36261 81.722 5.40336C81.7208 5.44411 80.7108 8.41499 79.4778 12.0052C77.8524 16.738 77.168 18.6077 76.9891 18.8049L76.7423 19.0769H75.1739H73.6055L71.938 14.9028C71.0209 12.607 70.2304 10.7152 70.1815 10.6988C70.1325 10.6823 69.9531 11.0808 69.7829 11.5843C69.6126 12.0878 69.0045 13.8566 68.4314 15.5149C67.8584 17.1733 67.3254 18.6288 67.247 18.7494C67.1686 18.8701 66.9605 18.9951 66.7848 19.0274C66.6089 19.0597 65.8304 19.0728 65.0546 19.0567L63.6441 19.0274L63.3705 18.2856C63.22 17.8776 62.0994 14.854 60.8803 11.5665ZM80.76 18.9436C80.7776 18.8678 81.9624 15.7737 83.3926 12.0678L85.9931 5.32997H88.0538C89.925 5.32987 90.1435 5.34768 90.4287 5.52304C90.6015 5.62916 90.8052 5.84042 90.8814 5.99243C90.9577 6.14445 91.4432 7.35919 91.9606 8.69192C92.4778 10.0247 93.5878 12.8653 94.4272 15.0045C95.2666 17.1437 95.9533 18.935 95.9533 18.9854C95.9533 19.0383 95.1367 19.0769 94.0146 19.0769H92.0757L91.4721 17.4697L90.8685 15.8625H88.0972H85.3259L85.2025 16.2086C85.1347 16.399 84.883 17.1111 84.6433 17.7911L84.2074 19.0274L82.4675 19.0544C81.0202 19.077 80.7332 19.0583 80.76 18.9436ZM94.8036 6.26877C94.5762 5.83359 94.3885 5.44411 94.3866 5.40336C94.3847 5.36261 97.7393 5.32918 101.841 5.32918H109.299V6.00282C109.299 6.54412 109.26 6.71908 109.099 6.89296C108.903 7.1053 108.849 7.10946 106.253 7.10946H103.608V12.9123C103.608 18.1731 103.592 18.732 103.445 18.896C103.3 19.058 103.105 19.0769 101.581 19.0769H99.8786V13.0949V7.11302L97.548 7.08651L95.2174 7.06L94.8036 6.26877ZM110.508 6.26877C110.277 5.83359 110.087 5.44411 110.086 5.40336C110.085 5.36261 113.44 5.32918 117.542 5.32918H125V6.02151C125 6.582 124.963 6.75152 124.804 6.91165C124.617 7.09967 124.477 7.10946 121.958 7.10946H119.308V12.9123C119.308 18.1731 119.293 18.732 119.146 18.896C119.001 19.058 118.806 19.0769 117.282 19.0769H115.579V13.0949V7.11302L113.254 7.08651L110.929 7.06L110.508 6.26877ZM52.8983 7.90771C52.804 7.72118 52.6022 7.47639 52.45 7.36374C52.1874 7.16949 52.0282 7.15752 49.3588 7.13201C46.825 7.10787 46.511 7.12261 46.2081 7.28036C46.023 7.37679 45.7801 7.58123 45.6683 7.73473C45.4718 8.00474 45.4642 8.14627 45.4375 12.0573C45.4143 15.4394 45.4334 16.1579 45.5542 16.4493C45.6336 16.6409 45.8448 16.8875 46.0235 16.9973C46.3295 17.1853 46.5129 17.197 49.1793 17.1973C51.6238 17.1976 52.0574 17.175 52.3564 17.0321C52.5903 16.9203 52.7615 16.7358 52.8843 16.4634C53.0511 16.0931 53.0661 15.7419 53.0679 12.1536C53.0698 8.62694 53.0533 8.21382 52.8983 7.90771ZM90.0655 13.8656C90.0655 13.828 89.6129 12.6045 89.0597 11.1465C88.5064 9.68848 88.0317 8.4954 88.0048 8.4951C87.9778 8.49481 87.5409 9.66277 87.034 11.0905C86.5271 12.5184 86.0918 13.7423 86.0668 13.8102C86.0311 13.9066 86.4667 13.9338 88.0433 13.9338C89.1555 13.9338 90.0655 13.9031 90.0655 13.8656Z" fill="#595656"/>
<path d="M9.50025 0.040382C9.41929 0.0564045 9.02186 0.123561 8.61707 0.189728C8.21228 0.255894 7.50574 0.441636 7.04698 0.602553C6.58822 0.76347 5.92584 1.05178 5.57502 1.24335C5.2242 1.43493 4.67222 1.78268 4.34839 2.01619C4.02456 2.2496 3.47689 2.72336 3.13127 3.06893C2.78566 3.4145 2.30864 3.96124 2.07127 4.28386C1.83379 4.60649 1.48552 5.14799 1.29731 5.48723C1.1091 5.82637 0.822358 6.47063 0.66005 6.91887C0.497742 7.3672 0.298046 8.04964 0.216303 8.43546C0.13456 8.82129 0.0437892 9.60431 0.0145463 10.1755C-0.0223509 10.8976 0.0101309 11.5123 0.121313 12.1932C0.20914 12.7319 0.393331 13.5094 0.530419 13.9213C0.667606 14.333 0.976227 15.0532 1.21635 15.5217C1.45638 15.9903 1.95027 16.7468 2.31375 17.2028C2.67722 17.6589 3.30575 18.3128 3.71054 18.6561C4.11533 18.9993 4.78821 19.4801 5.20585 19.7245C5.6235 19.9688 6.30796 20.3023 6.72688 20.4656C7.1458 20.6288 7.91504 20.8504 8.43621 20.9581C9.03844 21.0825 9.77177 21.1538 10.4479 21.1537C11.0331 21.1536 11.8702 21.0901 12.308 21.0124C12.7458 20.9347 13.4432 20.7564 13.8578 20.6161C14.2723 20.4759 14.8857 20.2221 15.2206 20.0521C15.5556 19.882 16.0143 19.6153 16.2399 19.4593C16.4655 19.3034 16.6973 19.1758 16.755 19.1758C16.8227 19.1758 16.86 19.5284 16.86 20.1648V21.1538H18.8204C20.7671 21.1538 20.7818 21.1523 20.9311 20.9225C21.0621 20.7211 21.0782 20.0417 21.056 15.6559L21.0306 10.6206L16.1731 10.5932C13.5015 10.5781 11.2194 10.5893 11.1017 10.618C10.9841 10.6468 10.8184 10.7401 10.7337 10.8256C10.6043 10.956 10.5797 11.2882 10.5797 12.9024V14.824H12.8367C14.1362 14.824 15.0937 14.8624 15.0937 14.9145C15.0937 14.9642 14.8847 15.1904 14.6291 15.4171C14.3737 15.6437 13.899 15.9777 13.5742 16.1592C13.2495 16.3407 12.6527 16.5921 12.2479 16.7178C11.6571 16.9013 11.2991 16.9448 10.4325 16.9382C9.54313 16.9313 9.22175 16.8848 8.60765 16.674C8.19766 16.5332 7.59249 16.2587 7.26277 16.0639C6.93305 15.8692 6.38538 15.4306 6.04556 15.0891C5.70583 14.7477 5.27867 14.2142 5.09644 13.9036C4.91411 13.5929 4.65416 13.0387 4.51855 12.672C4.32876 12.1584 4.26174 11.7552 4.227 10.9173C4.19393 10.1213 4.22504 9.64348 4.3427 9.13699C4.43111 8.75621 4.66574 8.11086 4.86406 7.70288C5.13687 7.1415 5.42832 6.75578 6.06214 6.11686C6.69607 5.47803 7.07877 5.18429 7.63576 4.90933C8.04055 4.70945 8.68085 4.47297 9.05866 4.38386C9.56118 4.26527 10.0353 4.23392 10.825 4.26725C11.6564 4.30226 12.0565 4.36981 12.566 4.56109C12.9298 4.69778 13.4761 4.95978 13.7799 5.14354C14.0837 5.3272 14.5397 5.67782 14.7934 5.92261C15.0471 6.1674 15.3928 6.54195 15.5618 6.75508C15.7877 7.04003 15.9415 7.14229 16.1437 7.1421C16.3103 7.1419 17.0116 6.79642 17.9259 6.26402C18.7551 5.78127 19.455 5.32968 19.4814 5.26054C19.5077 5.19141 19.3275 4.84989 19.0809 4.50165C18.8343 4.15341 18.4099 3.62289 18.1377 3.32262C17.8655 3.02244 17.3231 2.53108 16.9325 2.23071C16.5418 1.93034 15.881 1.49991 15.4638 1.27411C15.0468 1.04841 14.3182 0.730832 13.8447 0.568431C13.3713 0.40603 12.5644 0.20931 12.0516 0.131374C11.5389 0.0533383 10.7882 -0.00560833 10.3834 0.000424826C9.97863 0.00635908 9.5812 0.0243596 9.50025 0.040382Z" fill="#6EB92B"/>
</svg>
