<svg width="110" height="27" viewBox="0 0 110 27" fill="none" xmlns="http://www.w3.org/2000/svg">
<path fill-rule="evenodd" clip-rule="evenodd" d="M13.8063 0.0940278C13.5174 0.177737 13.0076 0.454922 12.6733 0.710094C12.3391 0.965266 11.9456 1.33275 11.799 1.52667C11.6525 1.7206 10.989 2.90421 10.3248 4.15716C9.66064 5.40996 7.79769 8.86092 6.18506 11.8259C4.57243 14.791 2.84904 17.9581 2.35532 18.8641C1.86175 19.7701 1.12986 21.1354 0.728881 21.8979C0.0889905 23.1152 0 23.3957 0 24.1965C0 25.0285 0.0433697 25.1519 0.494775 25.6024C0.766849 25.8739 1.25652 26.1701 1.58277 26.2604C1.94729 26.3614 3.77782 26.4251 6.33033 26.4255L10.4847 26.4264L10.5322 20.998C10.5756 16.0459 10.6043 15.5237 10.8592 15.0455C11.0129 14.7573 11.3471 14.3022 11.6018 14.0344C11.8566 13.7665 12.4256 13.4127 12.8662 13.2483C13.3068 13.0837 13.8987 12.9491 14.1814 12.9491C14.4642 12.9491 15.0569 13.084 15.4987 13.249C15.9405 13.4139 16.4757 13.734 16.6879 13.9603C16.8999 14.1866 17.1995 14.6075 17.3533 14.8958C17.6087 15.3745 17.6372 15.8967 17.6819 20.9232L17.7309 26.4264L21.9589 26.4255C24.5579 26.4251 26.4149 26.3616 26.7785 26.2608C27.104 26.1707 27.5554 25.899 27.7818 25.6572C28.0081 25.4155 28.2154 25.0684 28.2424 24.8861C28.2694 24.7037 28.2457 24.1998 28.1897 23.7663C28.1091 23.1416 27.4746 21.8055 25.1321 17.3271C23.5062 14.2191 21.7537 10.8675 21.2375 9.87921C20.7214 8.89087 19.9966 7.50943 19.627 6.80936C19.2572 6.10928 18.4669 4.60955 17.8707 3.47655C17.2745 2.34355 16.6235 1.22298 16.4238 0.98623C16.2242 0.749478 15.8406 0.451777 15.5714 0.32479C15.3022 0.197654 14.913 0.0595855 14.7067 0.0178056C14.5003 -0.0239743 14.0952 0.0103183 13.8063 0.0940278ZM15.7719 6.44427C16.0848 6.64134 16.5134 7.09643 16.7244 7.45567C17.0119 7.94535 17.1078 8.31808 17.1078 8.94672C17.1078 9.40765 17.0359 9.9746 16.9481 10.2064C16.8603 10.4382 16.6071 10.8217 16.3853 11.0586C16.1637 11.2955 15.7121 11.6142 15.382 11.7666C15.0518 11.9192 14.5454 12.045 14.2565 12.0464C13.9676 12.0477 13.4761 11.9782 13.1644 11.8918C12.8526 11.8054 12.3674 11.533 12.0862 11.2867C11.8048 11.0402 11.4606 10.5402 11.321 10.1756C11.1517 9.73335 11.0894 9.24487 11.134 8.70877C11.1763 8.20067 11.325 7.73091 11.5386 7.43171C11.7244 7.17145 12.1089 6.78136 12.3931 6.56512C12.6775 6.34873 13.1286 6.11737 13.3957 6.05103C13.6628 5.98469 14.1787 5.96537 14.5421 6.00805C14.9055 6.05088 15.459 6.2472 15.7719 6.44427ZM32.0646 6.45999C32.0095 6.5148 31.9645 11.0297 31.9645 16.4932V26.4264H34.2906H36.6166V22.533V18.6395L38.7551 18.6362C40.5813 18.6334 40.9922 18.5883 41.5689 18.3277C41.9403 18.1599 42.5527 17.695 42.9297 17.2948C43.3067 16.8946 43.8442 16.1405 44.1243 15.6191C44.5826 14.7658 44.6394 14.5246 44.6947 13.2024C44.7287 12.3845 44.6753 11.3249 44.5742 10.8114C44.4741 10.3042 44.2358 9.58106 44.0446 9.20429C43.8532 8.82767 43.4036 8.24994 43.0454 7.92049C42.6874 7.59105 42.0812 7.17025 41.6986 6.98546C41.316 6.80067 40.607 6.58474 40.1228 6.50567C39.6389 6.4266 37.6502 6.36146 35.7038 6.36101C33.7572 6.36056 32.1195 6.40504 32.0646 6.45999ZM51.6235 6.49204C50.5187 6.56332 49.8459 6.68642 49.3724 6.90415C49.001 7.07486 48.5046 7.40895 48.2693 7.64645C48.0341 7.88395 47.6965 8.34877 47.5189 8.67927C47.2022 9.26973 47.1965 9.40331 47.1965 16.3184V23.3566L47.6467 24.2551C47.9483 24.8571 48.295 25.2885 48.6971 25.5624C49.0273 25.7873 49.728 26.0798 50.2542 26.2124C51.0137 26.4037 51.8029 26.4425 54.081 26.4001C56.5001 26.355 57.03 26.3039 57.4548 26.0748C57.7318 25.9254 58.2518 25.5104 58.6103 25.1528C59.0744 24.6898 59.331 24.2656 59.5019 23.6788C59.709 22.9681 59.7357 21.9546 59.697 16.2922C59.6523 9.75491 59.6508 9.72646 59.2965 8.94448C59.1009 8.51275 58.6702 7.91555 58.3395 7.6174C58.0086 7.3191 57.4469 6.94653 57.0909 6.78944C56.6237 6.58324 55.993 6.48815 54.8216 6.44727C53.9293 6.41597 52.4901 6.43618 51.6235 6.49204ZM61.4589 6.50013C61.4112 6.57725 61.5739 7.84068 61.8203 9.30791C62.0667 10.7752 62.5453 13.7277 62.8837 15.8692C63.2222 18.0106 63.7494 21.2788 64.0553 23.132L64.6114 26.5013L67.2717 26.5422C69.1735 26.5714 69.9318 26.5349 69.9318 26.4139C69.9318 26.3207 70.1006 24.5504 70.307 22.4795C70.5133 20.4086 70.7899 17.6025 70.9215 16.2435C71.0531 14.8846 71.2126 13.5368 71.2759 13.2486C71.3474 12.9231 71.4229 12.8096 71.4751 12.9491C71.5215 13.0726 71.669 14.4877 71.8031 16.0938C71.9371 17.6998 72.2086 20.6649 72.4064 22.6827C72.604 24.7006 72.7697 26.3685 72.7745 26.389C72.7792 26.4095 73.9932 26.4264 75.4725 26.4264H78.1617L78.246 26.0146C78.2925 25.7882 78.633 23.7834 79.003 21.5596C79.3727 19.3358 80.0857 15.0954 80.5872 12.1365C81.0886 9.17763 81.4645 6.66755 81.4227 6.55838C81.3646 6.40743 80.8641 6.36011 79.3246 6.36011C78.1893 6.36011 77.2637 6.42346 77.2134 6.50447C77.1643 6.58384 76.9244 8.55483 76.6802 10.8846C76.4362 13.2143 76.1266 16.1986 75.9923 17.5164C75.858 18.8342 75.7225 19.9405 75.6913 19.9748C75.6599 20.0091 75.6083 20.0091 75.5765 19.9748C75.5446 19.9405 75.2702 17.8234 74.9663 15.2702C74.6625 12.7169 74.3003 9.68453 74.1613 8.53147L73.9086 6.43499L71.8076 6.39186C70.6521 6.3682 69.5641 6.38407 69.39 6.4269C69.1204 6.49354 69.0584 6.65542 68.973 7.51827C68.9179 8.07548 68.7405 9.54227 68.5792 10.7777C68.4177 12.0131 68.1137 14.3717 67.9036 16.0189C67.6935 17.6661 67.4863 19.1753 67.4429 19.3725C67.3995 19.5697 67.3093 19.6708 67.2426 19.5971C67.1758 19.5235 66.9327 16.5655 66.7023 13.0239C66.4392 8.98071 66.2223 6.54385 66.1191 6.47467C66.0288 6.41417 64.9629 6.36371 63.7503 6.36236C62.5378 6.36116 61.5067 6.42316 61.4589 6.50013ZM83.3898 6.4582C83.3336 6.51405 83.2879 11.0297 83.2879 16.4932V26.4264H88.9154H94.543V24.6325V22.8385L91.354 22.798L88.1651 22.7576V20.4365V18.1154L90.9789 18.0747L93.7926 18.0339V16.1654V14.2968H90.9413H88.09V12.7342C88.09 11.8748 88.1559 10.9987 88.2364 10.7874L88.3827 10.4033H91.4672H94.5517L94.5098 8.41916L94.4679 6.43499L88.9798 6.39575C85.9613 6.37419 83.4457 6.40219 83.3898 6.4582ZM96.7565 6.44113C96.6945 6.50642 96.6439 11.0297 96.6439 16.4932V26.4264H99.045H101.446V22.533V18.6395H102.388C102.996 18.6395 103.448 18.7219 103.663 18.8718C103.845 18.9995 104.08 19.2523 104.184 19.4333C104.311 19.6556 104.397 20.7766 104.447 22.8823C104.517 25.7493 104.546 26.0191 104.814 26.2142C105.037 26.3769 105.677 26.4264 107.553 26.4264C108.899 26.4264 110 26.3901 110 26.3456C110 26.301 109.85 26.0627 109.668 25.8161C109.435 25.5026 109.303 25.0419 109.227 24.2871C109.167 23.6929 109.114 22.2971 109.108 21.1852C109.102 20.0734 109.032 18.9254 108.951 18.6343C108.87 18.3432 108.532 17.8409 108.201 17.5182C107.87 17.1955 107.599 16.8855 107.599 16.8292C107.599 16.7729 107.863 16.3317 108.185 15.8488C108.508 15.3658 108.89 14.5663 109.036 14.0722C109.199 13.518 109.297 12.7069 109.291 11.9555C109.285 11.2853 109.168 10.3508 109.031 9.87861C108.893 9.4063 108.615 8.75804 108.413 8.43803C108.21 8.11786 107.764 7.65364 107.422 7.40611C107.08 7.15857 106.456 6.85144 106.036 6.7234C105.459 6.54745 104.248 6.47018 101.071 6.40668C98.7599 6.36041 96.8185 6.37599 96.7565 6.44113ZM54.1776 10.1802C54.4186 10.3046 54.6855 10.536 54.7704 10.6946C54.8687 10.8779 54.925 13.0793 54.925 16.7455C54.925 19.9152 54.8829 22.6176 54.8318 22.7509C54.7804 22.8843 54.5475 23.0918 54.3139 23.2124C54.0804 23.3329 53.6935 23.4315 53.454 23.4315C53.2145 23.4315 52.789 23.2772 52.5086 23.0885L51.9986 22.7458L51.9593 16.7894L51.9201 10.833L52.3606 10.3936C52.6598 10.0948 52.9513 9.95408 53.2702 9.95408C53.5281 9.95408 53.9366 10.0559 54.1776 10.1802ZM38.8344 10.4917C39.0257 10.6167 39.3137 10.9345 39.4745 11.1976C39.6774 11.5296 39.7672 11.9483 39.7675 12.5648C39.7679 13.1548 39.665 13.6661 39.4613 14.0858C39.2584 14.5039 38.978 14.8017 38.6337 14.9648C38.3136 15.1164 37.8388 15.1939 37.4022 15.1659L36.6917 15.1204L36.6501 12.8056C36.6271 11.5324 36.6455 10.3946 36.6906 10.2771C36.7552 10.1094 36.9576 10.085 37.6298 10.1639C38.101 10.2191 38.643 10.3666 38.8344 10.4917ZM103.801 10.7266C103.935 10.837 104.135 11.1443 104.246 11.4093C104.357 11.6744 104.447 12.3213 104.447 12.8471C104.447 13.3727 104.373 14.0165 104.282 14.2776C104.19 14.5388 103.992 14.8184 103.841 14.8989C103.69 14.9795 103.09 15.0455 102.506 15.0455H101.446V12.8117C101.446 11.1697 101.496 10.5556 101.634 10.4935C101.737 10.4469 102.212 10.4351 102.69 10.4673C103.167 10.4995 103.668 10.6161 103.801 10.7266Z" fill="#D02030"/>
</svg>
