<svg width="125" height="22" viewBox="0 0 125 22" fill="none" xmlns="http://www.w3.org/2000/svg">
<path d="M0 4.41254H2.70565V14.3835C2.70565 14.8677 3.09849 15.2605 3.58265 15.2605H7.97272V17.5335H2.71508C1.21548 17.5335 0 16.318 0 14.8184V4.41254Z" fill="#494F52"/>
<path d="M16.4854 4.41254V13.6479C16.4854 14.5386 15.7635 15.2605 14.8728 15.2605H13.1557C12.2649 15.2605 11.5431 14.5386 11.5431 13.6479V4.41254H8.8374V13.5993C8.8374 15.7722 10.5986 17.5335 12.7716 17.5335H15.2569C17.4298 17.5335 19.1911 15.7722 19.1911 13.5993V4.41254H16.4854Z" fill="#494F52"/>
<path d="M45.3561 4.28422V17.5327H47.9654V13.4616H51.1349C53.0853 13.4616 54.6668 11.8801 54.6668 9.92964V7.66103C54.6668 5.79614 53.1549 4.2835 51.2893 4.2835L45.3561 4.28422ZM50.3652 11.1379H47.9654V6.62313H50.5862C51.4103 6.62313 52.0778 7.29139 52.0778 8.11476V9.42518C52.0778 10.371 51.311 11.1379 50.3652 11.1379Z" fill="#494F52"/>
<path d="M102.568 12.1961C103.598 11.9156 104.497 10.8487 104.493 9.56005V7.40669C104.493 5.6824 103.095 4.28428 101.37 4.28428H95.427V17.5328H98.0362V12.5861H100.21L102.312 17.5328H104.979L102.568 12.1961ZM102.149 8.75625C102.149 9.7195 101.368 10.5001 100.405 10.5001H98.0362V6.62318H100.405C101.368 6.62318 102.149 7.40379 102.149 8.36704V8.75625Z" fill="#494F52"/>
<path d="M55.8714 8.89469V12.9224C55.8714 15.4686 57.9356 17.5328 60.4818 17.5328H62.0822C64.6284 17.5328 66.6926 15.4686 66.6926 12.9224V8.89469C66.6926 6.34849 64.6284 4.28428 62.0822 4.28428H60.4818C57.9356 4.28428 55.8714 6.34849 55.8714 8.89469ZM61.677 15.1917H60.8602C59.5497 15.1917 58.4879 14.1291 58.4879 12.8194V8.9273C58.4879 7.61688 59.5505 6.55505 60.8602 6.55505H61.677C62.9874 6.55505 64.0492 7.6176 64.0492 8.9273V12.8194C64.0492 14.1299 62.9867 15.1917 61.677 15.1917Z" fill="#494F52"/>
<path d="M67.218 4.28428L70.4274 17.5328H73.0751L75.7858 8.1583L78.4965 17.5328H81.1449L84.2913 4.28428H81.6124L79.4939 13.4616L77.0013 4.28428H74.6022L72.1408 13.4616L69.9599 4.28428H67.218Z" fill="#494F52"/>
<path d="M87.7232 7.65239V9.77314H92.8743V12.1186H87.7232V14.277C87.7232 14.7445 88.1022 15.1243 88.5704 15.1243H93.7549V17.5335H87.5427C86.2018 17.5335 85.1146 16.4463 85.1146 15.1054V6.99138C85.1146 5.49613 86.3265 4.28428 87.8217 4.28428H93.7549V6.62318H88.7524C88.1841 6.62318 87.7239 7.08343 87.7239 7.65167L87.7232 7.65239Z" fill="#494F52"/>
<path d="M112.252 2.78973H106.457V4.17698H108.61V10.4617H110.099V4.17698H112.252V2.78973Z" fill="#494F52"/>
<path d="M118.123 4.17698V2.78973H114.572C113.772 2.78973 113.124 3.43769 113.124 4.23714V9.01425C113.124 9.8137 113.772 10.4617 114.572 10.4617H118.123V9.0331H115.083C114.824 9.0331 114.614 8.82291 114.614 8.56343V7.33998H117.593V5.93171H114.614V4.64882C114.614 4.3879 114.825 4.17698 115.086 4.17698H118.123Z" fill="#494F52"/>
<path d="M123.377 10.4617H125L122.959 6.63548L124.898 2.78973H123.326L121.755 5.93171H120.674V2.78973H119.184V10.4617H120.674V7.33998H121.715L123.377 10.4617Z" fill="#494F52"/>
<path d="M32.0931 0C26.1339 0 21.3031 4.83075 21.3031 10.79C21.3031 16.7492 26.1339 21.58 32.0931 21.58C38.0524 21.58 42.8831 16.7492 42.8831 10.79C42.8831 4.83075 38.0524 0 32.0931 0ZM34.4023 17.0544L30.8573 11.7641L28.1698 15.828H29.1823L30.8834 13.3616L31.6104 14.4125L29.8136 17.0537H25.8171L30.8073 9.66947L35.0981 15.857H36.1425L34.053 12.652L34.743 11.4959L38.414 17.0544H34.4023ZM33.4238 11.7779L29.1331 5.59033H28.0886L30.1782 8.79536L29.4882 9.95141L25.8171 4.39297H29.8296L33.3745 9.68324L36.0621 5.61932H35.0495L33.3485 8.08579L32.6215 7.03484L34.4183 4.3937H38.4148L33.4238 11.7779Z" fill="#64AD82"/>
</svg>
