<svg width="125" height="22" viewBox="0 0 125 22" fill="none" xmlns="http://www.w3.org/2000/svg">
<path fill-rule="evenodd" clip-rule="evenodd" d="M0.360597 0.225991C0.0689863 0.443223 0.0555465 0.740245 0.0108515 7.91034C-0.0146215 12.0124 0.00631953 15.6022 0.0572655 15.8876C0.108212 16.1728 0.304963 16.5088 0.49437 16.634C0.804422 16.8393 1.58752 16.7066 8.36897 15.3008C13.6606 14.2037 15.9777 13.6597 16.1634 13.4705C16.4114 13.2177 16.3348 13.0448 14.9096 10.6399C13.8449 8.84361 13.4481 8.04316 13.5806 7.95955C13.6847 7.89409 15.2767 7.5348 17.1184 7.16133C18.9931 6.78102 20.4077 6.42156 20.3324 6.3448C20.2583 6.26931 17.3548 6.22631 13.8802 6.24908C8.05876 6.28747 7.55867 6.31231 7.51117 6.56363C7.48288 6.71365 8.13236 8.01067 8.95469 9.44577C9.77686 10.8809 10.4496 12.1376 10.4496 12.2387C10.4496 12.3696 9.73779 12.4224 7.96656 12.4224C5.78088 12.4224 5.44051 12.387 5.12546 12.1269C4.78649 11.8473 4.75539 11.6471 4.54208 8.37076C4.37861 5.86017 4.36298 4.80682 4.48504 4.53352C4.59224 4.29384 4.86916 4.09842 5.24657 3.99618C5.57256 3.90779 6.31425 3.78675 6.89434 3.72719C7.4746 3.66778 7.94952 3.57509 7.94983 3.52158C7.95015 3.46791 8.45882 3.40962 9.08033 3.39194C9.70169 3.37426 10.2324 3.29193 10.2594 3.20911C10.2866 3.12613 10.5867 3.09635 10.9261 3.1427C11.3479 3.20035 11.5436 3.16659 11.5436 3.03615C11.5436 2.92308 11.6611 2.88326 11.8319 2.93853C11.9905 2.98981 16.7033 2.42125 22.3047 1.67511C27.9061 0.92897 32.5583 0.318522 32.643 0.318522C32.7277 0.318522 32.7971 0.246855 32.7971 0.159261C32.7971 0.0541487 27.3374 0 16.7305 0C3.10434 0 0.617828 0.0344004 0.360597 0.225991ZM39.2712 0.689441C39.2274 0.805861 39.2119 1.54053 39.2371 2.32187L39.2826 3.74263L43.5802 3.82656C47.5686 3.90444 47.9317 3.93566 48.6269 4.25864C49.039 4.45023 49.589 4.76127 49.849 4.94999C50.1091 5.13872 50.5918 5.64103 50.9215 6.06641C51.2803 6.52891 51.564 7.09731 51.6276 7.48097C51.6862 7.83373 51.7806 8.12231 51.8375 8.12231C51.8944 8.12231 51.9409 8.51648 51.9409 8.99825C51.9409 9.48001 51.8883 9.87418 51.8237 9.87418C51.7592 9.87418 51.7065 10.0035 51.7065 10.1615C51.7065 10.3195 51.5252 10.8196 51.3036 11.2727C51.0819 11.7259 50.5541 12.4142 50.1306 12.8024C49.7071 13.1903 49.027 13.6302 48.6191 13.7796C48.1714 13.9438 47.195 14.0831 46.154 14.1316C44.7722 14.1957 44.3931 14.1661 44.2432 13.982C44.1168 13.8267 44.0424 12.8028 44.0135 10.818L43.9708 7.88342H41.6267H39.2826L39.241 12.38C39.2007 16.7584 39.2082 16.8855 39.5264 17.2097C39.8464 17.5359 39.9536 17.5416 44.6469 17.485C49.3842 17.4279 49.4532 17.4224 50.5155 17.0075C51.1069 16.7766 51.9714 16.3204 52.4368 15.9938C52.9023 15.6671 53.5985 15.0422 53.9842 14.605C54.3699 14.1679 54.9239 13.3008 55.2155 12.6783C55.5071 12.0557 55.8313 11.0943 55.9361 10.5416C56.0479 9.95174 56.0872 9.06386 56.0315 8.39162C55.9791 7.76175 55.7947 6.82704 55.6215 6.31454C55.4484 5.80204 55.1535 5.1212 54.966 4.80156C54.7786 4.48192 54.4612 4.04125 54.2607 3.82226C54.0603 3.60328 53.5975 3.12247 53.2322 2.75394C52.8669 2.38525 52.005 1.7971 51.3169 1.44689C50.5693 1.06641 49.6566 0.74359 49.0498 0.645007C48.4911 0.554388 46.0803 0.479694 43.6925 0.479057C40.2246 0.478102 39.3349 0.520306 39.2712 0.689441ZM25.0614 6.67097C21.1077 7.51887 17.7849 8.2682 17.6774 8.33604C17.5699 8.40405 17.482 8.57525 17.482 8.71636C17.482 8.85762 18.1228 10.0806 18.9057 11.434C19.7381 12.8726 20.263 13.9363 20.1695 13.9947C20.0817 14.0497 18.2983 14.4529 16.2064 14.8909L12.4031 15.6872L18.7807 15.7288C24.3562 15.7653 25.1886 15.7394 25.3995 15.5248C25.6167 15.3034 25.4923 15.0137 24.1399 12.594C23.3144 11.1174 22.6392 9.82959 22.6392 9.73244C22.6392 9.60981 23.4537 9.55566 25.2959 9.55566C27.7028 9.55566 27.9807 9.58433 28.2512 9.86001C28.4545 10.0672 28.5792 10.4864 28.642 11.1739C28.6927 11.7291 28.8071 13.2762 28.896 14.6117C29.0023 16.2056 29.0052 17.1405 28.9044 17.3322C28.82 17.4931 28.653 17.7074 28.5333 17.8087C28.4136 17.9099 27.3021 18.1163 26.0635 18.2671C24.8247 18.4181 23.7901 18.5907 23.7645 18.6509C23.7387 18.7111 23.4398 18.7224 23.1003 18.6761C22.7607 18.6296 22.4826 18.6547 22.4823 18.732C22.4818 18.8092 21.9017 18.8906 21.193 18.9129C20.4843 18.9352 19.8832 19.0175 19.8576 19.0957C19.8318 19.1741 19.5329 19.2002 19.1934 19.1538C18.7716 19.0962 18.576 19.13 18.576 19.2604C18.576 19.3743 18.4583 19.4133 18.2844 19.3569C18.1239 19.3051 14.1682 19.7347 9.49384 20.3115C4.81947 20.8884 0.934287 21.4214 0.860056 21.4961C0.785981 21.5706 0.772541 21.7097 0.830207 21.8049C0.904751 21.9277 5.54099 21.978 16.788 21.978C32.4325 21.978 32.6449 21.9739 32.9534 21.6595C33.2575 21.3496 33.2659 21.1287 33.2659 13.5372C33.2659 5.94569 33.2575 5.7248 32.9534 5.41488C32.7815 5.23969 32.553 5.10384 32.4455 5.11276C32.3381 5.12183 29.0152 5.82306 25.0614 6.67097ZM57.7536 5.51648C57.6939 5.57748 57.6461 7.78325 57.6475 10.4184C57.65 15.0858 57.6592 15.2257 58.0005 15.8398C58.1932 16.1867 58.655 16.6883 59.0268 16.9546L59.7025 17.4391L62.5025 17.4918C65.1738 17.5421 65.3025 17.559 65.3025 17.8606C65.3025 18.0344 65.2302 18.3145 65.1416 18.483C65.0531 18.6517 64.7649 18.9032 64.5013 19.0422C64.1058 19.2507 63.4638 19.2918 60.8334 19.277L57.645 19.2591V20.5604V21.8619L62.4505 21.7652C65.0936 21.7121 67.2911 21.6581 67.3341 21.6452C67.3771 21.6323 67.471 21.6323 67.5429 21.6452C67.6146 21.6581 67.9142 21.517 68.2085 21.3317C68.5026 21.1464 68.9361 20.6606 69.1718 20.2521L69.6001 19.5095L69.6467 12.4622L69.6934 5.41488L68.709 5.41599C68.1677 5.41663 67.25 5.46281 66.6699 5.51871L65.6151 5.62016V9.98821C65.6151 13.6108 65.576 14.3961 65.3863 14.5894C65.2086 14.7703 64.7981 14.8124 63.5501 14.777L61.9426 14.7316L61.8645 10.1131L61.7863 5.49451L59.8243 5.45023C58.7452 5.4257 57.8133 5.45565 57.7536 5.51648ZM73.2109 5.70234C72.944 5.81669 72.5258 6.10336 72.2815 6.33939C72.0374 6.57541 71.6858 7.05526 71.5001 7.40564C71.1798 8.01083 71.1605 8.27919 71.1152 12.7807L71.0676 17.5187H73.1904H75.3133L75.2992 13.1077L75.2851 8.69677L75.6616 8.29002C76.0195 7.90365 76.1009 7.8874 77.3013 7.96305C78.2739 8.02437 78.6296 8.11292 78.8487 8.34799C79.112 8.63067 79.1295 8.98057 79.0869 13.086L79.0409 17.5187H81.1661H83.2915L83.2438 12.7807C83.1985 8.27919 83.1793 8.01083 82.8589 7.40564C82.6732 7.05526 82.3127 6.56649 82.0574 6.31932C81.8022 6.0723 81.4968 5.85014 81.379 5.82577C81.261 5.8014 81.0531 5.7318 80.917 5.67097C80.7809 5.61013 79.1005 5.54563 77.183 5.52747C74.6049 5.50311 73.5699 5.54865 73.2109 5.70234ZM89.0449 5.62176C88.7605 5.69693 88.3559 5.896 88.1459 6.06434C87.936 6.23268 87.6681 6.37044 87.5508 6.37044C87.4334 6.37044 87.3375 6.43813 87.3375 6.52094C87.3375 6.60376 87.1473 6.76509 86.9149 6.87928C86.6824 6.99363 86.2663 7.38939 85.9904 7.75888C85.7142 8.12821 85.3351 8.84488 85.1479 9.35149C84.8628 10.1223 84.8188 10.5058 84.8771 11.7057C84.925 12.6942 85.0491 13.3735 85.2766 13.8946C85.4581 14.3101 85.9629 15.0019 86.3986 15.4321C86.8341 15.8622 87.2764 16.2598 87.3812 16.3153C87.4861 16.3709 87.7227 16.506 87.9068 16.6154C88.091 16.725 88.3553 16.9105 88.4939 17.0277C88.6327 17.1451 89.027 17.2486 89.3702 17.2577C89.7133 17.2669 89.9942 17.3316 89.9942 17.4015C89.9942 17.4714 94.0905 17.5084 99.0972 17.4838C108.162 17.4392 108.203 17.4376 108.849 17.0854C109.206 16.8907 109.706 16.4748 109.96 16.1607C110.214 15.8466 110.502 15.3166 110.601 14.983C110.699 14.6491 110.779 14.0522 110.779 13.6563C110.779 13.1784 110.632 12.6495 110.342 12.0822C110.006 11.4232 109.712 11.1096 109.06 10.7103L108.214 10.1927H105.831C104.418 10.1927 103.294 10.1207 103.068 10.0159C102.858 9.91862 102.61 9.6681 102.517 9.45915C102.407 9.21182 102.398 8.9433 102.492 8.69008C102.572 8.47603 102.777 8.22488 102.947 8.13203C103.141 8.02628 104.666 7.96305 107.018 7.96305H110.779V6.68896V5.41488H105.827C101.124 5.41488 100.842 5.4316 100.201 5.74773C99.8302 5.93072 99.3134 6.34289 99.0525 6.66348C98.7919 6.98407 98.4667 7.63641 98.3298 8.11323C98.1236 8.83071 98.1122 9.11913 98.263 9.78548C98.3632 10.2284 98.6309 10.8642 98.858 11.1981C99.0849 11.5321 99.592 11.9979 99.9849 12.2333C100.667 12.6423 100.819 12.6648 103.408 12.7409C105.858 12.8129 106.138 12.8501 106.338 13.1296C106.46 13.2997 106.559 13.6291 106.559 13.8614C106.559 14.094 106.432 14.4013 106.277 14.5447C106.024 14.7778 105.226 14.8062 98.6923 14.8143C92.4519 14.8223 91.3284 14.7885 90.9656 14.5824C90.7321 14.4499 90.4356 14.3 90.3067 14.2496C90.1778 14.1991 89.914 13.9116 89.7207 13.6108C89.5274 13.3099 89.3691 12.9912 89.3691 12.9024C89.3691 12.7987 90.461 12.7409 92.4164 12.7409H95.4638V11.4419V10.143L93.1303 10.2459C91.8468 10.3026 90.4755 10.304 90.0829 10.2491C89.6424 10.1876 89.3691 10.0683 89.3691 9.93773C89.3691 9.82131 89.5905 9.46902 89.861 9.15496C90.1317 8.84074 90.5713 8.46504 90.8377 8.31996C91.1043 8.17471 91.3752 8.04412 91.4397 8.02946C91.5043 8.01481 91.6096 7.98917 91.6741 7.97229C91.7387 7.95557 92.8989 7.95095 94.2527 7.96226L96.714 7.9828V6.69183V5.40086L93.1381 5.44306C91.1712 5.46616 89.3294 5.54658 89.0449 5.62176ZM114.451 5.71747C114.108 5.88008 113.601 6.25466 113.326 6.55009C113.051 6.84552 112.717 7.35356 112.584 7.67925C112.451 8.00494 112.342 8.57828 112.343 8.95334C112.343 9.3284 112.419 9.91336 112.512 10.2534C112.614 10.6286 112.967 11.1621 113.409 11.6114C113.851 12.0597 114.392 12.4283 114.782 12.5463C115.16 12.6606 116.362 12.7409 117.695 12.7409C119.632 12.7409 120.011 12.7818 120.281 13.0196C120.455 13.173 120.64 13.4483 120.692 13.6316C120.752 13.8444 120.668 14.118 120.459 14.3881L120.133 14.8113H116.237H112.342V16.165V17.5187H117.088C120.967 17.5187 121.96 17.4738 122.518 17.273C122.894 17.1379 123.437 16.7976 123.724 16.5165C124.011 16.2355 124.371 15.7549 124.524 15.4483C124.677 15.1417 124.85 14.6183 124.909 14.2851C124.978 13.8978 124.929 13.3706 124.773 12.8226C124.639 12.3513 124.35 11.75 124.133 11.4862C123.915 11.2225 123.476 10.8414 123.157 10.6394C122.627 10.3037 122.349 10.2655 119.898 10.1927C117.549 10.1229 117.178 10.0756 116.89 9.80968C116.709 9.64278 116.561 9.31486 116.561 9.0809C116.561 8.84233 116.72 8.50358 116.923 8.30929C117.274 7.97308 117.397 7.96305 121.142 7.96305H125V6.68896V5.41488L120.038 5.41838C115.538 5.42156 115.018 5.44944 114.451 5.71747ZM20.9722 6.31741C21.0295 6.3757 21.1233 6.3757 21.1806 6.31741C21.2378 6.25896 21.191 6.21118 21.0764 6.21118C20.9618 6.21118 20.915 6.25896 20.9722 6.31741Z" fill="url(#paint0_linear_2015_1518)"/>
<defs>
<linearGradient id="paint0_linear_2015_1518" x1="0" y1="10.989" x2="125" y2="10.989" gradientUnits="userSpaceOnUse">
<stop stop-color="#56C500"/>
<stop offset="1" stop-color="#00B1F7"/>
</linearGradient>
</defs>
</svg>
