<svg width="99" height="21" viewBox="0 0 99 21" fill="none" xmlns="http://www.w3.org/2000/svg">
<path fill-rule="evenodd" clip-rule="evenodd" d="M15.3933 7.11256C14.5407 7.11168 13.6962 7.27892 12.9082 7.60473C12.1202 7.93053 11.4042 8.40849 10.8011 9.01127C10.198 9.61406 9.71965 10.3298 9.39345 11.1177C9.06724 11.9055 8.89956 12.7499 8.9 13.6026C8.89281 14.5439 9.09789 15.4747 9.5 16.3259H3.77V7.55589H0V19.7659H8.16667L9.88667 17.0459C10.486 18.0014 11.3242 18.7842 12.3184 19.3169C13.3126 19.8496 14.4286 20.1138 15.5562 20.0835C16.6837 20.0532 17.7839 19.7294 18.7481 19.1441C19.7123 18.5587 20.5072 17.7321 21.0543 16.7457C21.6014 15.7593 21.8819 14.6473 21.868 13.5194C21.8542 12.3916 21.5464 11.2868 20.9752 10.3142C20.404 9.34156 19.589 8.53471 18.6107 7.97324C17.6324 7.41178 16.5246 7.11513 15.3967 7.11256M15.3967 16.6692C14.79 16.6699 14.1968 16.4906 13.692 16.154C13.1873 15.8174 12.7937 15.3387 12.5611 14.7784C12.3284 14.2181 12.2672 13.6014 12.3852 13.0063C12.5031 12.4112 12.7949 11.8645 13.2237 11.4353C13.6524 11.0061 14.1989 10.7137 14.7938 10.5951C15.3888 10.4765 16.0056 10.537 16.5661 10.769C17.1267 11.001 17.6058 11.3941 17.9429 11.8985C18.2801 12.4028 18.46 12.9959 18.46 13.6026C18.4591 14.415 18.1362 15.194 17.562 15.7689C16.9878 16.3437 16.2091 16.6675 15.3967 16.6692Z" fill="#D61518"/>
<path fill-rule="evenodd" clip-rule="evenodd" d="M31.26 15.0469L26.6867 7.55689H22.9167V19.7502H26.2434V12.2602L30.8 19.7502H34.57V7.55689H31.26V15.0469Z" fill="#D61518"/>
<path fill-rule="evenodd" clip-rule="evenodd" d="M48.3733 12.4558H42.0767V14.6292H45.1667C44.9474 15.3007 44.5162 15.8829 43.9378 16.2884C43.3595 16.6939 42.6651 16.9008 41.9591 16.878C41.2531 16.8551 40.5736 16.6039 40.0226 16.1619C39.4715 15.7199 39.0788 15.111 38.9034 14.4268C38.728 13.7425 38.7793 13.0198 39.0497 12.3673C39.32 11.7147 39.7949 11.1674 40.4028 10.8078C41.0107 10.4481 41.719 10.2953 42.4211 10.3725C43.1233 10.4497 43.7814 10.7527 44.2967 11.2358H48.1167C47.5285 9.7248 46.3977 8.48763 44.9454 7.76648C43.4931 7.04532 41.824 6.89208 40.2647 7.33676C38.7054 7.78143 37.3682 8.79201 36.5147 10.1707C35.6613 11.5494 35.3531 13.197 35.6504 14.7909C35.9477 16.3849 36.8292 17.8105 38.1223 18.7888C39.4154 19.7671 41.0271 20.2276 42.6418 20.0802C44.2566 19.9328 45.7582 19.1881 46.8528 17.9919C47.9474 16.7956 48.5562 15.234 48.56 13.6125C48.5613 13.2336 48.5278 12.8553 48.46 12.4825H48.38L48.3733 12.4558Z" fill="#D61518"/>
<path d="M53.6334 0.000244141H49.8467V3.77024H53.6334V0.000244141Z" fill="#D61518"/>
<path d="M53.6334 7.49067H49.8467V20.064H53.6334V7.49067Z" fill="#D61518"/>
<path fill-rule="evenodd" clip-rule="evenodd" d="M65.3034 13.4893C64.755 13.1802 64.1792 12.9224 63.5834 12.7193L62.25 12.1459C62.25 12.1459 61.2 11.8126 61.2667 10.8126C61.2691 10.5924 61.3441 10.3792 61.48 10.2059C62.43 8.92928 65.5434 9.82928 66.5267 10.5026V9.16928L66.56 8.15261C66.097 7.94752 65.613 7.79328 65.1167 7.69261C63.8918 7.39438 62.6073 7.45104 61.4134 7.85594C60.2834 8.24928 59.0534 9.11928 58.92 10.9726C58.92 10.9726 58.61 13.1693 61.3633 14.3059C61.3633 14.3059 62.3967 14.6826 63.03 14.9293C63.03 14.9293 64.6367 15.4859 64.5033 16.6326C64.4782 16.8618 64.394 17.0806 64.2591 17.2675C64.1241 17.4545 63.943 17.6032 63.7334 17.6993C62.5034 18.3059 60.2934 17.6493 59.2267 17.2059L58.93 17.0593V19.3926C60.6124 20.1572 62.5109 20.3025 64.29 19.8026C65.75 19.3593 66.98 18.0326 67.0634 16.4693C67.0934 15.0759 66.4867 14.2059 65.3234 13.5359" fill="#221714"/>
<path fill-rule="evenodd" clip-rule="evenodd" d="M90.5 17.2269V13.7036C90.5037 13.3196 90.4264 12.9391 90.2734 12.5869C90.1232 12.2655 89.9114 11.9767 89.65 11.7369C89.3818 11.4984 89.0767 11.3048 88.7467 11.1636C88.3585 11 87.9506 10.8879 87.5334 10.8303C87.1148 10.782 86.692 10.782 86.2734 10.8303C85.88 10.8698 85.494 10.964 85.1267 11.1103C84.741 11.2615 84.3812 11.4718 84.06 11.7336C83.727 12.0066 83.4488 12.3403 83.24 12.7169C83.0227 13.0865 82.8726 13.4916 82.7967 13.9136H84.9934C85.0269 13.7407 85.0877 13.5742 85.1734 13.4203C85.2816 13.2153 85.4398 13.0411 85.6334 12.9136C85.8026 12.7909 85.9906 12.6963 86.19 12.6336C86.607 12.5047 87.0531 12.5047 87.47 12.6336C87.6243 12.6854 87.7686 12.7631 87.8967 12.8636C88.0361 12.9679 88.15 13.1023 88.23 13.2569C88.3106 13.4311 88.3494 13.6217 88.3434 13.8136V14.2969C87.23 14.5903 86.28 14.8203 84.9667 15.1003C84.6366 15.1686 84.3171 15.2807 84.0167 15.4336C83.7501 15.5819 83.5074 15.7696 83.2967 15.9903C83.0995 16.2038 82.9384 16.4481 82.82 16.7136C82.6881 17.0201 82.6103 17.3472 82.59 17.6803C82.5698 18.0204 82.6208 18.361 82.74 18.6803C82.8556 19.0007 83.0399 19.292 83.28 19.5336C83.5316 19.7759 83.8253 19.9702 84.1467 20.1069C84.5387 20.2662 84.9543 20.3597 85.3767 20.3836C85.9849 20.4388 86.598 20.372 87.18 20.1869C87.7216 19.9977 88.2161 19.6941 88.63 19.2969C88.6599 19.4302 88.6977 19.5616 88.7434 19.6903C88.7866 19.8238 88.8367 19.9551 88.8934 20.0836H91.12C90.9286 19.6287 90.7813 19.1566 90.68 18.6736C90.5518 18.1977 90.4901 17.7064 90.4967 17.2136M88.3 16.8203C88.3044 17.1201 88.226 17.4154 88.0734 17.6736C87.9409 17.9192 87.7553 18.1322 87.53 18.2969C87.339 18.4164 87.1356 18.5147 86.9234 18.5903C86.7054 18.6569 86.4825 18.7059 86.2567 18.7369C86.0497 18.7619 85.8404 18.7619 85.6334 18.7369C85.4522 18.7195 85.2782 18.6577 85.1267 18.5569C84.9876 18.4779 84.8724 18.3627 84.7934 18.2236C84.7024 18.0805 84.6499 17.9162 84.6412 17.7468C84.6324 17.5774 84.6676 17.4087 84.7434 17.2569C84.8394 17.064 84.9856 16.9005 85.1667 16.7836C85.3979 16.6442 85.6536 16.5503 85.92 16.5069C86.8734 16.2936 87.3634 16.1736 88.3134 15.9636V16.8336L88.3 16.8203Z" fill="#221714"/>
<path fill-rule="evenodd" clip-rule="evenodd" d="M76.86 13.0966C76.6686 12.7359 76.4261 12.4047 76.14 12.1133C75.7403 11.6912 75.2535 11.3614 74.7134 11.1466C74.1633 10.9182 73.5723 10.8048 72.9767 10.8133C72.5424 10.8124 72.1107 10.8788 71.6967 11.01C71.2907 11.1283 70.9043 11.3057 70.55 11.5366C70.1974 11.7654 69.8825 12.0477 69.6167 12.3733C69.2514 12.801 68.9729 13.2958 68.7967 13.83C68.5961 14.3926 68.4957 14.986 68.5 15.5833C68.4884 16.2647 68.6013 16.9425 68.8334 17.5833C69.0561 18.1783 69.4092 18.7159 69.8667 19.1566C70.131 19.4248 70.4358 19.6498 70.77 19.8233C71.1085 19.9926 71.4652 20.1223 71.8334 20.21C72.2099 20.3044 72.5954 20.3591 72.9834 20.3733C73.4221 20.3752 73.8584 20.3088 74.2767 20.1766C74.6791 20.0453 75.0624 19.8615 75.4167 19.63C75.7717 19.3966 76.0926 19.115 76.37 18.7933C76.7247 18.3633 76.995 17.8702 77.1667 17.34C77.3593 16.7758 77.4529 16.1827 77.4434 15.5866C77.445 15.1513 77.3958 14.7172 77.2967 14.2933C77.2029 13.8764 77.0538 13.474 76.8534 13.0966M75.1167 16.7033C75.0031 17.0335 74.8188 17.335 74.5767 17.5866C74.3551 17.806 74.0923 17.9793 73.8034 18.0966C73.5232 18.2095 73.2216 18.2596 72.92 18.2433C72.6317 18.2416 72.3469 18.1803 72.0834 18.0633C71.8108 17.9447 71.5657 17.771 71.3634 17.5533C71.1383 17.3068 70.9548 17.0254 70.82 16.72C70.7172 16.4405 70.6565 16.1473 70.64 15.85C70.6198 15.5428 70.6422 15.2343 70.7067 14.9333C70.7655 14.6399 70.8701 14.3575 71.0167 14.0966C71.1611 13.8594 71.3384 13.644 71.5434 13.4566C71.7417 13.2887 71.9671 13.1557 72.21 13.0633C72.4387 12.9675 72.6824 12.9122 72.93 12.9C73.1795 12.8843 73.4297 12.9172 73.6667 12.9966C73.9151 13.0775 74.1483 13.1992 74.3567 13.3566C74.5793 13.5331 74.7728 13.7434 74.93 13.98C75.1053 14.2378 75.2276 14.5278 75.29 14.8333C75.3619 15.1389 75.3844 15.454 75.3567 15.7666C75.2981 16.083 75.2213 16.3958 75.1267 16.7033" fill="#221714"/>
<path d="M81.1233 7.52353H78.9267V20.0635H81.1233V7.52353Z" fill="#221714"/>
<path fill-rule="evenodd" clip-rule="evenodd" d="M97.22 10.8168C95.5533 10.7701 94.94 11.8001 94.7267 12.2768V10.7835H92.53V20.0468H94.7267V15.7835C94.8433 14.9001 95.3167 13.7835 96.1533 13.2268C96.4715 13.0034 96.8495 12.8808 97.2382 12.8749C97.6269 12.869 98.0085 12.9799 98.3333 13.1934V11.0801C97.9744 10.9472 97.6005 10.8588 97.22 10.8168Z" fill="#221714"/>
</svg>
