<svg width="100" height="19" viewBox="0 0 100 19" fill="none" xmlns="http://www.w3.org/2000/svg">
<path d="M99.5461 17.9964L95.1489 11.7127C96.4007 11.1367 97.418 10.1502 98.0322 8.91678C98.6464 7.68333 98.8206 6.277 98.5259 4.93096C98.2312 3.58493 97.4853 2.38005 96.4119 1.51608C95.3385 0.652121 94.002 0.180977 92.6241 0.180768H84.1844C83.7041 0.180764 83.2434 0.371077 82.9031 0.710036C82.5628 1.049 82.3707 1.50898 82.3688 1.98928V18.0957C82.3706 18.1433 82.3909 18.1884 82.4252 18.2215C82.4596 18.2546 82.5055 18.273 82.5532 18.273H85.6028C85.6499 18.273 85.695 18.2543 85.7282 18.221C85.7615 18.1878 85.7801 18.1427 85.7801 18.0957V3.20204H92.2624C93.0599 3.20204 93.8248 3.51886 94.3887 4.0828C94.9527 4.64674 95.2695 5.41161 95.2695 6.20914C95.2695 7.00667 94.9527 7.77153 94.3887 8.33547C93.8248 8.89941 93.0599 9.21623 92.2624 9.21623H87.4823C87.4584 9.21621 87.4347 9.22102 87.4127 9.23037C87.3907 9.23972 87.3709 9.25342 87.3543 9.27064C87.3377 9.28787 87.3249 9.30826 87.3164 9.33059C87.3079 9.35293 87.304 9.37675 87.305 9.40063V12.0744C87.3049 12.1221 87.3234 12.1679 87.3564 12.2023C87.3895 12.2367 87.4346 12.2569 87.4823 12.2588H90.0213C90.4496 12.2703 90.8693 12.3814 91.2473 12.5832C91.6252 12.7851 91.9509 13.0723 92.1986 13.4219L95.4823 18.1169C95.5163 18.1638 95.5612 18.2018 95.613 18.2277C95.6649 18.2536 95.7222 18.2667 95.7801 18.2659H99.3972C99.4284 18.2654 99.459 18.2567 99.4858 18.2407C99.5126 18.2246 99.5347 18.2017 99.5498 18.1743C99.565 18.147 99.5726 18.1161 99.5719 18.0849C99.5713 18.0536 99.5624 18.0231 99.5461 17.9964Z" fill="#3A6FD3"/>
<path d="M80.5532 18.0247L72.9574 1.78361C72.7447 1.30813 72.3995 0.904055 71.963 0.619779C71.5265 0.335504 71.0173 0.183081 70.4964 0.180768H68.9078C68.3881 0.18444 67.8805 0.337499 67.4454 0.621693C67.0103 0.905887 66.6661 1.30922 66.4539 1.78361L63.7943 7.45736C63.7813 7.48516 63.7755 7.51576 63.7773 7.54639C63.7791 7.57702 63.7886 7.60671 63.8048 7.63277C63.821 7.65883 63.8434 7.68043 63.8701 7.69563C63.8967 7.71082 63.9268 7.71912 63.9574 7.71978H67.1631C67.2321 7.71913 67.2995 7.69875 67.3573 7.66105C67.4151 7.62335 67.4609 7.5699 67.4894 7.50701L69.4113 3.39353C69.4336 3.33515 69.4737 3.28525 69.5258 3.25088C69.578 3.21652 69.6397 3.19943 69.7021 3.20204C69.7582 3.20357 69.8128 3.22019 69.8602 3.25015C69.9077 3.2801 69.9462 3.32228 69.9716 3.37226L72.695 9.21623H64.6879C64.1646 9.21122 63.651 9.35792 63.2092 9.63859C62.7674 9.91926 62.4164 10.3219 62.1986 10.7978L58.8582 18.0247C58.8447 18.0521 58.8386 18.0824 58.8403 18.1128C58.842 18.1432 58.8515 18.1726 58.8679 18.1983C58.8843 18.2239 58.907 18.2449 58.9339 18.2592C58.9607 18.2736 58.9908 18.2807 59.0213 18.2801H62.2624C62.3308 18.2809 62.398 18.2619 62.4559 18.2255C62.5138 18.189 62.5599 18.1365 62.5886 18.0744L65.078 12.734C65.1415 12.5986 65.2415 12.4837 65.3668 12.4023C65.4922 12.3208 65.6378 12.276 65.7872 12.273H73.5886C73.7383 12.2752 73.8842 12.3196 74.0097 12.4012C74.1352 12.4828 74.2351 12.5981 74.2979 12.734L76.8156 18.0957C76.8457 18.1567 76.8921 18.2082 76.9497 18.2445C77.0073 18.2808 77.0738 18.3005 77.1418 18.3013H80.383C80.4162 18.3033 80.4494 18.2962 80.4789 18.2808C80.5084 18.2654 80.5333 18.2423 80.5507 18.2139C80.5682 18.1855 80.5776 18.153 80.578 18.1197C80.5785 18.0864 80.5699 18.0536 80.5532 18.0247Z" fill="#3A6FD3"/>
<path d="M58.6525 9.2301H46.8511V5.03151C46.8492 4.7919 46.8948 4.55428 46.9852 4.33236C47.0756 4.11044 47.209 3.90861 47.3778 3.73851C47.5466 3.56841 47.7474 3.4334 47.9686 3.34128C48.1898 3.24915 48.427 3.20172 48.6667 3.20173H58.1986C58.267 3.20258 58.3342 3.18361 58.3921 3.14712C58.45 3.11062 58.4961 3.05816 58.5248 2.99605L59.7305 0.421586C59.7439 0.394256 59.75 0.363937 59.7483 0.333547C59.7466 0.303157 59.7371 0.27372 59.7207 0.248069C59.7043 0.222419 59.6816 0.20142 59.6547 0.187093C59.6279 0.172766 59.5978 0.165593 59.5674 0.166267H48.0142C47.4194 0.165334 46.8302 0.281685 46.2804 0.508661C45.7306 0.735637 45.231 1.06879 44.8101 1.48905C44.3891 1.90931 44.0552 2.40844 43.8274 2.95788C43.5995 3.50731 43.4823 4.09628 43.4823 4.69109V18.0953C43.4841 18.143 43.5043 18.1881 43.5387 18.2212C43.5731 18.2542 43.619 18.2727 43.6667 18.2726H46.7092C46.7562 18.2726 46.8013 18.254 46.8346 18.2207C46.8678 18.1875 46.8865 18.1424 46.8865 18.0953V12.2726H57.2908C57.3606 12.2717 57.4288 12.2512 57.4877 12.2136C57.5466 12.1761 57.5938 12.1228 57.6241 12.0599L58.8227 9.48542C58.8364 9.45753 58.8426 9.42653 58.8406 9.39552C58.8386 9.3645 58.8284 9.33456 58.8112 9.3087C58.7939 9.28284 58.7702 9.26196 58.7423 9.24817C58.7145 9.23437 58.6835 9.22814 58.6525 9.2301Z" fill="#3A6FD3"/>
<path d="M12.8156 7.71216H5.64539C5.04724 7.71216 4.47359 7.47455 4.05064 7.05159C3.62768 6.62864 3.39007 6.05499 3.39007 5.45684C3.39007 4.8587 3.62768 4.28505 4.05064 3.86209C4.47359 3.43914 5.04724 3.20152 5.64539 3.20152H14.766C14.834 3.20069 14.9005 3.18103 14.9581 3.14473C15.0157 3.10843 15.0621 3.0569 15.0922 2.99585L16.2908 0.435566C16.3061 0.405965 16.3127 0.372661 16.3099 0.339469C16.3071 0.306278 16.295 0.274541 16.2751 0.247895C16.2551 0.221248 16.228 0.20077 16.1969 0.188806C16.1658 0.176842 16.132 0.173875 16.0993 0.180247H5.28369C3.88237 0.180247 2.53844 0.73692 1.54756 1.7278C0.556673 2.71869 0 4.06261 0 5.46393C0 6.86526 0.556673 8.20918 1.54756 9.20007C2.53844 10.191 3.88237 10.7476 5.28369 10.7476H12.4539C13.0502 10.7476 13.622 10.9845 14.0436 11.4061C14.4653 11.8277 14.7021 12.3996 14.7021 12.9958C14.7021 13.5921 14.4653 14.164 14.0436 14.5856C13.622 15.0072 13.0502 15.2441 12.4539 15.2441H2.19149C2.12222 15.2436 2.05421 15.2626 1.99526 15.299C1.93631 15.3354 1.88879 15.3876 1.85816 15.4498L0.659575 18.0242C0.646174 18.0515 0.640035 18.0819 0.641749 18.1123C0.643462 18.1426 0.652971 18.1721 0.669358 18.1977C0.685746 18.2234 0.708461 18.2444 0.735317 18.2587C0.762172 18.273 0.792264 18.2802 0.822695 18.2795H12.8156C14.2169 18.2795 15.5609 17.7229 16.5517 16.732C17.5426 15.7411 18.0993 14.3972 18.0993 12.9958C18.0993 11.5945 17.5426 10.2506 16.5517 9.25972C15.5609 8.26884 14.2169 7.71216 12.8156 7.71216Z" fill="#3A6FD3"/>
<path d="M38.7447 0.173842H35.1277C34.6263 0.173842 34.2199 0.580279 34.2199 1.08164V4.69866C34.2199 5.20003 34.6263 5.60647 35.1277 5.60647H38.7447C39.246 5.60647 39.6525 5.20003 39.6525 4.69866V1.08164C39.6525 0.580279 39.246 0.173842 38.7447 0.173842Z" fill="#5FC8CE"/>
<path d="M39.5957 7.12385H36.5319C36.5074 7.12377 36.4831 7.12878 36.4606 7.13856C36.4381 7.14835 36.4179 7.16269 36.4012 7.18069C36.3846 7.19869 36.3718 7.21994 36.3638 7.24312C36.3558 7.2663 36.3526 7.29089 36.3546 7.31534C36.4693 8.88885 36.4455 10.4694 36.2837 12.0387C36.1932 12.8676 35.8203 13.6401 35.2275 14.2264C34.6347 14.8127 33.8582 15.1772 33.0284 15.2586C31.0451 15.4572 29.047 15.4572 27.0638 15.2586C26.2303 15.1777 25.4505 14.8105 24.8571 14.2197C24.2636 13.6288 23.8931 12.8506 23.8085 12.0175C23.6099 10.1528 23.6099 8.27224 23.8085 6.40754C23.8971 5.58412 24.266 4.81619 24.8536 4.23253C25.4411 3.64887 26.2115 3.28497 27.0354 3.20186C28.8528 3.01749 30.6835 3.00324 32.5035 3.15931C32.5283 3.16124 32.5533 3.15813 32.5768 3.15017C32.6004 3.14222 32.6221 3.12958 32.6406 3.11301C32.6592 3.09645 32.6742 3.07631 32.6848 3.05379C32.6953 3.03128 32.7012 3.00686 32.7021 2.982V0.251507C32.7022 0.203806 32.6837 0.157947 32.6506 0.123563C32.6176 0.0891785 32.5725 0.068944 32.5248 0.0671094C30.3975 -0.0465898 28.265 -0.0157861 26.1418 0.159308C24.6629 0.289627 23.2776 0.93823 22.2304 1.99063C21.1832 3.04302 20.5414 4.43154 20.4184 5.91108C20.234 8.11764 20.234 10.3357 20.4184 12.5423C20.5496 14.0358 21.2058 15.4345 22.2705 16.4901C23.3351 17.5457 24.7394 18.1899 26.234 18.3082C28.7831 18.5139 31.3446 18.5139 33.8936 18.3082C35.3819 18.1957 36.7824 17.56 37.8469 16.5137C38.9113 15.4674 39.5711 14.0781 39.7092 12.5919C39.8605 10.8325 39.8913 9.06479 39.8014 7.30115C39.8006 7.27564 39.7945 7.25057 39.7835 7.22754C39.7725 7.2045 39.7568 7.184 39.7375 7.16734C39.7182 7.15067 39.6956 7.1382 39.6712 7.13071C39.6468 7.12323 39.6211 7.12089 39.5957 7.12385Z" fill="#3A6FD3"/>
</svg>
