<svg width="80" height="31" viewBox="0 0 80 31" fill="none" xmlns="http://www.w3.org/2000/svg">
<path fill-rule="evenodd" clip-rule="evenodd" d="M6.75733 0.0782473L7.01334 0.0488032C7.15418 0.0325997 9.43452 0.025285 12.0808 0.0325997C15.5059 0.0419515 16.9021 0.075377 16.9265 0.148339C16.9458 0.206487 17.1778 0.250838 17.4621 0.250838C17.738 0.250838 17.9637 0.287041 17.9637 0.331393C17.9637 0.375651 18.1603 0.434077 18.4004 0.461206C18.6407 0.488243 18.8525 0.556205 18.8712 0.61213C18.8898 0.668055 19.037 0.715092 19.1982 0.716758C19.3595 0.718332 19.5724 0.780832 19.6712 0.855646C19.77 0.930367 19.9471 0.99157 20.0647 0.99157C20.1823 0.99157 20.2785 1.03324 20.2785 1.08416C20.2785 1.13509 20.3826 1.17675 20.5099 1.17675C20.6373 1.17675 20.7414 1.21759 20.7414 1.26759C20.7414 1.31749 20.8456 1.38453 20.9729 1.41647C21.1002 1.44842 21.2044 1.51175 21.2044 1.55712C21.2044 1.60258 21.3085 1.63971 21.4359 1.63971C21.5799 1.63971 21.6673 1.69221 21.6673 1.7786C21.6673 1.86499 21.7547 1.91749 21.8988 1.91749C22.0261 1.91749 22.1303 1.95915 22.1303 2.01008C22.1303 2.061 22.1749 2.10267 22.2295 2.10267C22.2841 2.10267 22.3868 2.1548 22.4578 2.21841C22.5287 2.28211 22.649 2.38628 22.725 2.44989C22.801 2.5135 22.9067 2.56563 22.9597 2.56563C23.0128 2.56563 23.0562 2.62813 23.0562 2.70451C23.0562 2.7809 23.0996 2.8434 23.1526 2.8434C23.2057 2.8434 23.6223 3.21562 24.0785 3.67052C24.5348 4.12542 24.908 4.54208 24.908 4.59644C24.908 4.65079 24.9705 4.69523 25.0469 4.69523C25.1233 4.69523 25.1858 4.75773 25.1858 4.83412C25.1858 4.91051 25.2275 4.97301 25.2784 4.97301C25.3293 4.97301 25.371 5.05634 25.371 5.15819C25.371 5.26106 25.4328 5.34337 25.5099 5.34337C25.5863 5.34337 25.6488 5.40587 25.6488 5.48226C25.6488 5.55865 25.6904 5.62115 25.7414 5.62115C25.7923 5.62115 25.834 5.72531 25.834 5.85262C25.834 5.9967 25.8865 6.0841 25.9728 6.0841C26.0592 6.0841 26.1117 6.17151 26.1117 6.31558C26.1117 6.4429 26.1534 6.54706 26.2043 6.54706C26.2553 6.54706 26.2969 6.63336 26.2969 6.73882C26.2969 6.84437 26.3594 6.99317 26.4358 7.06956C26.5122 7.14594 26.5747 7.30965 26.5747 7.43326C26.5747 7.55696 26.6164 7.65816 26.6673 7.65816C26.7182 7.65816 26.7599 7.76529 26.7599 7.89621C26.7599 8.02723 26.8224 8.19686 26.8988 8.27325C26.9752 8.34963 27.0376 8.555 27.0376 8.72954C27.0376 8.90416 27.0793 9.04703 27.1302 9.04703C27.1824 9.04703 27.2228 9.30684 27.2228 9.64119C27.2228 10.0342 27.262 10.2484 27.3386 10.2739C27.4267 10.3033 27.4543 10.8269 27.4543 12.473C27.4543 14.119 27.4267 14.6426 27.3386 14.672C27.2634 14.6971 27.2228 14.9024 27.2228 15.2583C27.2228 15.5619 27.1815 15.8062 27.1302 15.8062C27.0793 15.8062 27.0376 15.9699 27.0376 16.17C27.0376 16.37 26.9752 16.5962 26.8988 16.6726C26.8224 16.749 26.7599 16.9394 26.7599 17.0959C26.7599 17.2523 26.7182 17.3803 26.6673 17.3803C26.6164 17.3803 26.5747 17.4606 26.5747 17.5589C26.5747 17.657 26.5122 17.7999 26.4358 17.8763C26.3594 17.9527 26.2969 18.1015 26.2969 18.207C26.2969 18.3125 26.2553 18.3988 26.2043 18.3988C26.1534 18.3988 26.1117 18.5029 26.1117 18.6303C26.1117 18.7743 26.0592 18.8617 25.9728 18.8617C25.8865 18.8617 25.834 18.9491 25.834 19.0932C25.834 19.2205 25.7968 19.3247 25.7514 19.3247C25.706 19.3247 25.6427 19.4289 25.6107 19.5562C25.5788 19.6835 25.5117 19.7876 25.4618 19.7876C25.4118 19.7876 25.371 19.8311 25.371 19.8841C25.371 19.9372 25.319 20.0428 25.2553 20.1188C25.1917 20.1949 25.0875 20.3151 25.0238 20.3861C24.9602 20.4571 24.908 20.5413 24.908 20.5735C24.908 20.6055 24.473 21.0668 23.9412 21.5986C23.4095 22.1303 22.9494 22.5654 22.9188 22.5654C22.8883 22.5654 22.801 22.6174 22.725 22.6811C22.649 22.7448 22.5362 22.8386 22.4743 22.8897C22.4124 22.9408 22.2056 23.0648 22.0146 23.1654C21.8236 23.2659 21.6673 23.3804 21.6673 23.4197C21.6673 23.4591 21.5676 23.4913 21.4458 23.4913C21.3239 23.4913 21.2002 23.5538 21.1709 23.6302C21.1416 23.7066 21.033 23.7691 20.9295 23.7691C20.8261 23.7691 20.7414 23.8108 20.7414 23.8617C20.7414 23.9126 20.6373 23.9543 20.5099 23.9543C20.3826 23.9543 20.2785 23.9941 20.2785 24.0427C20.2785 24.0913 20.1326 24.1584 19.9544 24.1919C19.7762 24.2253 19.6303 24.2897 19.6303 24.3349C19.6303 24.3802 19.4672 24.4172 19.2676 24.4172C19.0682 24.4172 18.8898 24.463 18.8712 24.5189C18.8525 24.5748 18.6407 24.6428 18.4004 24.6698C18.1603 24.6969 17.9637 24.7554 17.9637 24.7996C17.9637 24.844 17.7392 24.8802 17.465 24.8802C17.1907 24.8802 16.847 24.9424 16.7011 25.0185C16.4718 25.1381 15.3269 25.1569 8.21796 25.1574L0 25.158L0.0236109 16.0145L0.0472217 6.87113L2.77228 6.8466C4.89078 6.82743 5.51401 6.84808 5.57179 6.93919C5.61271 7.00363 5.64679 9.85758 5.64762 13.2813L5.64901 19.5064L5.86521 19.5606C5.98419 19.5904 8.47027 19.6016 11.3899 19.5855C15.5333 19.5627 16.7068 19.5308 16.7368 19.4404C16.758 19.3767 16.9207 19.3247 17.0984 19.3247C17.276 19.3247 17.4839 19.2622 17.5603 19.1858C17.6366 19.1094 17.8003 19.0469 17.924 19.0469C18.0477 19.0469 18.1489 19.0053 18.1489 18.9543C18.1489 18.9034 18.2486 18.8617 18.3704 18.8617C18.4923 18.8617 18.616 18.7992 18.6453 18.7228C18.6746 18.6465 18.7832 18.584 18.8867 18.584C18.9901 18.584 19.0748 18.5423 19.0748 18.4914C19.0748 18.4404 19.1373 18.3988 19.2137 18.3988C19.2901 18.3988 19.3526 18.3363 19.3526 18.2599C19.3526 18.1811 19.4356 18.121 19.5443 18.121C19.6499 18.121 19.7957 18.0615 19.8684 17.9887C19.9412 17.916 20.0007 17.8118 20.0007 17.7572C20.0007 17.7027 20.0453 17.658 20.0999 17.658C20.1545 17.658 20.2531 17.6041 20.3191 17.538C20.3852 17.4719 20.4684 17.3261 20.5039 17.2139C20.5396 17.1018 20.6075 17.0099 20.655 17.0099C20.7025 17.0099 20.7414 16.9474 20.7414 16.871C20.7414 16.7946 20.7823 16.7321 20.8323 16.7321C20.8822 16.7321 20.9492 16.628 20.9811 16.5007C21.0131 16.3733 21.0764 16.2692 21.1218 16.2692C21.1673 16.2692 21.2044 16.165 21.2044 16.0377C21.2044 15.9104 21.246 15.8062 21.297 15.8062C21.3479 15.8062 21.3896 15.7216 21.3896 15.6182C21.3896 15.5146 21.4521 15.406 21.5285 15.3768C21.6253 15.3396 21.6673 15.1885 21.6673 14.8781C21.6673 14.6088 21.7122 14.4178 21.7809 14.3949C21.8657 14.3667 21.893 13.8816 21.8891 12.4712C21.8854 11.1181 21.8533 10.5751 21.7756 10.5491C21.716 10.5293 21.6673 10.3499 21.6673 10.1504C21.6673 9.95091 21.6265 9.78777 21.5765 9.78777C21.5266 9.78777 21.4596 9.6836 21.4276 9.55629C21.3957 9.42897 21.3323 9.32481 21.287 9.32481C21.2415 9.32481 21.2044 9.22064 21.2044 9.09333C21.2044 8.96602 21.1635 8.86185 21.1136 8.86185C21.0636 8.86185 20.9966 8.75768 20.9647 8.63037C20.9327 8.50306 20.8694 8.39889 20.824 8.39889C20.7786 8.39889 20.7414 8.33639 20.7414 8.26C20.7414 8.18362 20.6968 8.12112 20.6423 8.12112C20.5876 8.12112 20.4835 8.06158 20.4108 7.9888C20.338 7.91612 20.2785 7.82982 20.2785 7.79705C20.2785 7.76427 20.2189 7.67797 20.1462 7.60529C20.0735 7.53251 19.9693 7.47298 19.9147 7.47298C19.8601 7.47298 19.8155 7.41048 19.8155 7.33409C19.8155 7.2577 19.753 7.1952 19.6766 7.1952C19.6002 7.1952 19.5377 7.15354 19.5377 7.10261C19.5377 7.05169 19.4588 7.01002 19.3625 7.01002C19.2661 7.01002 19.1632 6.94752 19.1339 6.87113C19.1046 6.79474 19.0168 6.73224 18.9388 6.73224C18.8608 6.73224 18.797 6.69058 18.797 6.63965C18.797 6.58873 18.7137 6.54706 18.6118 6.54706C18.51 6.54706 18.4266 6.50725 18.4266 6.45864C18.4266 6.41003 18.2808 6.3429 18.1026 6.30947C17.9243 6.27605 17.7785 6.2116 17.7785 6.16642C17.7785 6.12114 17.6714 6.0841 17.5404 6.0841C17.4094 6.0841 17.2398 6.02161 17.1634 5.94522C17.0776 5.85929 16.8504 5.80633 16.5682 5.80633C16.3172 5.80633 16.1118 5.76503 16.1118 5.71457C16.1118 5.6555 14.4541 5.61429 11.4591 5.59883L6.8064 5.57485L6.78187 2.82655L6.75733 0.0782473ZM35.1857 8.77537C35.1857 8.72787 35.3003 8.66954 35.4403 8.64583C35.5803 8.62213 36.379 8.60898 37.215 8.61658C38.3386 8.62676 38.7451 8.66056 38.7736 8.74611C38.7968 8.81537 38.9763 8.86185 39.2211 8.86185C39.446 8.86185 39.6301 8.89889 39.6301 8.94416C39.6301 8.98935 39.7759 9.05379 39.9542 9.08722C40.1324 9.12064 40.2782 9.18777 40.2782 9.23638C40.2782 9.28499 40.3824 9.32481 40.5097 9.32481C40.637 9.32481 40.7412 9.36564 40.7412 9.41564C40.7412 9.46555 40.8454 9.53258 40.9727 9.56453C41.1 9.59647 41.2042 9.6598 41.2042 9.70517C41.2042 9.75064 41.3083 9.78777 41.4356 9.78777C41.5629 9.78777 41.6671 9.83239 41.6671 9.88693C41.6671 9.94156 41.7266 10.0457 41.7994 10.1184C41.8721 10.1912 41.9763 10.2507 42.0309 10.2507C42.0854 10.2507 42.1301 10.2896 42.1301 10.3371C42.1301 10.3846 42.2175 10.4512 42.3244 10.4851C42.4313 10.5191 42.6813 10.7093 42.88 10.908C43.0786 11.1066 43.2412 11.2918 43.2412 11.3194C43.2412 11.347 43.2933 11.4317 43.3569 11.5076C43.4206 11.5834 43.5873 11.766 43.7273 11.9132C43.8673 12.0604 43.9819 12.2675 43.9819 12.3732C43.9819 12.4825 44.0419 12.5655 44.1208 12.5655C44.1972 12.5655 44.2597 12.628 44.2597 12.7044C44.2597 12.7808 44.3013 12.8433 44.3523 12.8433C44.4032 12.8433 44.4449 12.9475 44.4449 13.0748C44.4449 13.2021 44.4857 13.3062 44.5357 13.3062C44.5856 13.3062 44.6526 13.4104 44.6846 13.5377C44.7165 13.665 44.7799 13.7692 44.8252 13.7692C44.8707 13.7692 44.9078 13.9359 44.9078 14.1396C44.9078 14.3433 44.9474 14.5099 44.9958 14.5099C45.0442 14.5099 45.1121 14.7599 45.1467 15.0655C45.1812 15.371 45.2458 15.621 45.2901 15.621C45.3345 15.621 45.3708 16.1002 45.3708 16.6858V17.7506H39.1307C33.8601 17.7506 32.8829 17.7708 32.8408 17.8806C32.8134 17.952 32.8138 18.0979 32.8417 18.2047C32.8697 18.3115 32.9293 18.3988 32.9743 18.3988C33.0192 18.3988 33.0561 18.5029 33.0561 18.6303C33.0561 18.7576 33.0969 18.8617 33.1469 18.8617C33.1968 18.8617 33.2639 18.9659 33.2958 19.0932C33.3278 19.2205 33.3911 19.3247 33.4365 19.3247C33.4819 19.3247 33.5191 19.3693 33.5191 19.4239C33.5191 19.4785 33.5786 19.5827 33.6514 19.6553C33.7241 19.7281 33.8282 19.7876 33.8828 19.7876C33.9374 19.7876 33.982 19.8323 33.982 19.8868C33.982 19.9414 34.0415 20.0456 34.1143 20.1183C34.187 20.1911 34.2912 20.2506 34.3458 20.2506C34.4003 20.2506 34.445 20.2914 34.445 20.3414C34.445 20.3913 34.5491 20.4584 34.6764 20.4903C34.8038 20.5223 34.9079 20.5856 34.9079 20.631C34.9079 20.6764 34.9942 20.7136 35.0997 20.7136C35.2052 20.7136 35.354 20.7761 35.4304 20.8525C35.5068 20.9288 35.6705 20.9913 35.7941 20.9913C35.9178 20.9913 36.019 21.033 36.019 21.0839C36.019 21.1398 36.4049 21.1765 36.9912 21.1765C37.5776 21.1765 37.9634 21.1398 37.9634 21.0839C37.9634 21.033 38.0647 20.9913 38.1884 20.9913C38.312 20.9913 38.4757 20.9288 38.5521 20.8525C38.6284 20.7761 38.7772 20.7136 38.8828 20.7136C38.9883 20.7136 39.0745 20.6764 39.0745 20.631C39.0745 20.5856 39.1787 20.5223 39.306 20.4903C39.4333 20.4584 39.5375 20.3913 39.5375 20.3414C39.5375 20.2914 39.5821 20.2506 39.6367 20.2506C39.6913 20.2506 39.7955 20.1911 39.8681 20.1183C39.9409 20.0456 40.0005 19.9414 40.0005 19.8868C40.0005 19.8323 40.0451 19.7876 40.0996 19.7876C40.1543 19.7876 40.2584 19.7281 40.3311 19.6553C40.4039 19.5827 40.4634 19.4785 40.4634 19.4239C40.4634 19.3561 41.1671 19.3247 42.6856 19.3247H44.9078V19.6488C44.9078 19.827 44.8695 19.9728 44.8225 19.9728C44.7757 19.9728 44.7099 20.0978 44.6763 20.2506C44.6428 20.4034 44.577 20.5284 44.5301 20.5284C44.4832 20.5284 44.4449 20.6117 44.4449 20.7136C44.4449 20.8154 44.4077 20.8987 44.3623 20.8987C44.3169 20.8987 44.2536 21.0029 44.2216 21.1302C44.1897 21.2575 44.1226 21.3617 44.0727 21.3617C44.0227 21.3617 43.9819 21.4242 43.9819 21.5006C43.9819 21.577 43.943 21.6395 43.8955 21.6395C43.848 21.6395 43.7802 21.7306 43.745 21.842C43.7096 21.9533 43.5401 22.177 43.3683 22.339C43.1965 22.5009 43.056 22.6808 43.056 22.7384C43.056 22.796 43.0108 22.8432 42.9557 22.8432C42.9005 22.8432 42.7138 22.989 42.5406 23.1672C42.3676 23.3455 42.1815 23.4913 42.1273 23.4913C42.073 23.4913 41.9321 23.5955 41.8141 23.7228C41.6961 23.8501 41.5106 23.9543 41.4018 23.9543C41.2879 23.9543 41.2042 24.0131 41.2042 24.0932C41.2042 24.1695 41.1417 24.232 41.0653 24.232C40.9889 24.232 40.9264 24.2737 40.9264 24.3246C40.9264 24.3756 40.785 24.4172 40.6122 24.4172C40.4183 24.4172 40.2777 24.4704 40.2447 24.5561C40.2155 24.6325 40.086 24.695 39.957 24.695C39.8281 24.695 39.7227 24.7367 39.7227 24.7876C39.7227 24.8385 39.5531 24.8802 39.3457 24.8802C39.1341 24.8802 38.9078 24.9411 38.8298 25.0191C38.7297 25.1192 38.4859 25.158 37.9569 25.158C37.5292 25.158 37.2227 25.1966 37.2227 25.2505C37.2227 25.3015 37.1185 25.3431 36.9912 25.3431C36.8639 25.3431 36.7598 25.3015 36.7598 25.2505C36.7598 25.196 36.4348 25.158 35.9699 25.158C35.3531 25.158 35.1682 25.1275 35.1266 25.0191C35.0904 24.9248 34.9426 24.8802 34.6665 24.8802C34.4428 24.8802 34.2598 24.8385 34.2598 24.7876C34.2598 24.7367 34.1543 24.695 34.0254 24.695C33.8965 24.695 33.767 24.6325 33.7378 24.5561C33.7084 24.4797 33.5847 24.4172 33.4629 24.4172C33.341 24.4172 33.2413 24.3756 33.2413 24.3246C33.2413 24.2737 33.1567 24.232 33.0532 24.232C32.9497 24.232 32.8411 24.1695 32.8118 24.0932C32.7825 24.0168 32.6796 23.9543 32.5832 23.9543C32.4868 23.9543 32.408 23.9126 32.408 23.8617C32.408 23.8108 32.3499 23.7691 32.279 23.7691C32.2081 23.7691 32.126 23.7066 32.0967 23.6302C32.0674 23.5538 31.9588 23.4913 31.8553 23.4913C31.7519 23.4913 31.6672 23.4467 31.6672 23.3921C31.6672 23.3375 31.6077 23.2333 31.5349 23.1607C31.4622 23.0879 31.3757 23.0284 31.3427 23.0284C31.3096 23.0284 31.1608 22.9066 31.012 22.7577C30.8631 22.6088 30.7413 22.46 30.7413 22.427C30.7413 22.394 30.6893 22.3089 30.6256 22.2379C30.562 22.167 30.4578 22.0467 30.3941 21.9707C30.3305 21.8947 30.2784 21.789 30.2784 21.736C30.2784 21.6829 30.2159 21.6395 30.1395 21.6395C30.0631 21.6395 30.0006 21.577 30.0006 21.5006C30.0006 21.4242 29.9589 21.3617 29.908 21.3617C29.8571 21.3617 29.8154 21.3025 29.8154 21.2303C29.8154 21.1581 29.7424 20.9601 29.6534 20.7905C29.5643 20.6209 29.4601 20.4682 29.4219 20.4513C29.3836 20.4342 29.3524 20.3226 29.3524 20.2032C29.3524 20.0838 29.2899 19.9236 29.2136 19.8472C29.1372 19.7708 29.0747 19.5803 29.0747 19.4239C29.0747 19.2675 29.033 19.1395 28.9821 19.1395C28.9311 19.1395 28.8895 19.0165 28.8895 18.8663C28.8895 18.716 28.827 18.353 28.7506 18.0598C28.6742 17.7665 28.6117 17.1864 28.6117 16.7706C28.6117 16.3354 28.6706 15.8477 28.7506 15.621C28.827 15.4046 28.8895 15.0659 28.8895 14.8686C28.8895 14.6713 28.9311 14.5099 28.9821 14.5099C29.033 14.5099 29.0747 14.4028 29.0747 14.2719C29.0747 14.1409 29.1372 13.9712 29.2136 13.8948C29.2899 13.8185 29.3524 13.6548 29.3524 13.5311C29.3524 13.4074 29.3896 13.3062 29.435 13.3062C29.4804 13.3062 29.5437 13.2021 29.5757 13.0748C29.6076 12.9475 29.6747 12.8433 29.7246 12.8433C29.7746 12.8433 29.8154 12.7808 29.8154 12.7044C29.8154 12.628 29.8571 12.5655 29.908 12.5655C29.9589 12.5655 30.0006 12.4809 30.0006 12.3775C30.0006 12.2739 30.0631 12.1653 30.1395 12.1361C30.2159 12.1067 30.2784 12.0426 30.2784 11.9935C30.2784 11.9443 30.3379 11.8446 30.4107 11.7719C30.4833 11.6991 30.5875 11.6396 30.6421 11.6396C30.6967 11.6396 30.7413 11.5354 30.7413 11.4081C30.7413 11.2808 30.7859 11.1766 30.8405 11.1766C30.8951 11.1766 30.9993 11.1171 31.072 11.0443C31.1447 10.9716 31.2043 10.8675 31.2043 10.8128C31.2043 10.7583 31.2477 10.7137 31.3007 10.7137C31.3538 10.7137 31.4594 10.6616 31.5355 10.5979C31.6115 10.5343 31.7318 10.4302 31.8027 10.3665C31.8737 10.3029 31.9612 10.2507 31.9972 10.2507C32.0332 10.2507 32.1592 10.1466 32.2772 10.0192C32.3952 9.89193 32.5562 9.78777 32.635 9.78777C32.7139 9.78777 32.7783 9.75064 32.7783 9.70517C32.7783 9.6598 32.8825 9.59647 33.0098 9.56453C33.1371 9.53258 33.2413 9.46555 33.2413 9.41564C33.2413 9.36564 33.3484 9.32481 33.4793 9.32481C33.6104 9.32481 33.78 9.26231 33.8564 9.18592C33.9328 9.10953 34.0965 9.04703 34.2201 9.04703C34.3438 9.04703 34.445 9.00537 34.445 8.95444C34.445 8.90352 34.6116 8.86185 34.8153 8.86185C35.019 8.86185 35.1857 8.82296 35.1857 8.77537ZM45.9145 8.86185C45.87 8.86185 45.8337 8.79935 45.8337 8.72296C45.8337 8.60287 46.1784 8.58407 48.38 8.58407C50.129 8.58407 50.9263 8.61509 50.9263 8.68324C50.9263 8.73787 50.9888 8.845 51.0651 8.92139C51.1415 8.99777 51.204 9.18231 51.204 9.33138C51.204 9.48055 51.2457 9.60258 51.2966 9.60258C51.3476 9.60258 51.3892 9.74045 51.3892 9.90897C51.3892 10.0775 51.4504 10.2962 51.5251 10.3951C51.6 10.4939 51.6625 10.7103 51.664 10.8757C51.6657 11.0412 51.7033 11.1766 51.7477 11.1766C51.7922 11.1766 51.8551 11.3433 51.8877 11.547C51.9203 11.7507 51.9881 11.9174 52.0385 11.9174C52.0887 11.9174 52.13 12.0632 52.13 12.2414C52.13 12.4197 52.1622 12.5655 52.2015 12.5655C52.2409 12.5655 52.3265 12.7634 52.3918 13.0053C52.4572 13.2473 52.5337 13.5806 52.5619 13.7461C52.5901 13.9115 52.6503 14.047 52.6956 14.047C52.741 14.047 52.7781 14.1898 52.7781 14.3645C52.7781 14.539 52.8406 14.7444 52.917 14.8208C52.9934 14.8971 53.0559 15.1084 53.0559 15.2904C53.0559 15.4722 53.0975 15.621 53.1485 15.621C53.1994 15.621 53.2411 15.7222 53.2411 15.8459C53.2411 15.9695 53.3035 16.1332 53.3799 16.2096C53.4563 16.286 53.5188 16.4973 53.5188 16.6793C53.5188 16.8611 53.5605 17.0099 53.6114 17.0099C53.6623 17.0099 53.7053 17.1454 53.707 17.3108C53.7085 17.4763 53.771 17.6927 53.8459 17.7915C53.9206 17.8904 53.9818 18.1091 53.9818 18.2776C53.9818 18.4461 54.0189 18.584 54.0644 18.584C54.1097 18.584 54.1731 18.6881 54.205 18.8154C54.237 18.9428 54.304 19.0469 54.3539 19.0469C54.4039 19.0469 54.4447 18.9428 54.4447 18.8154C54.4447 18.6881 54.4818 18.584 54.5271 18.584C54.5722 18.584 54.6367 18.4381 54.6701 18.2599C54.7035 18.0816 54.7707 17.9358 54.8193 17.9358C54.8679 17.9358 54.9077 17.79 54.9077 17.6117C54.9077 17.4335 54.946 17.2877 54.993 17.2877C55.0398 17.2877 55.1057 17.1627 55.1392 17.0099C55.1727 16.8571 55.2385 16.7321 55.2854 16.7321C55.3323 16.7321 55.3707 16.5863 55.3707 16.4081C55.3707 16.2298 55.407 16.084 55.4514 16.084C55.4958 16.084 55.5588 15.9173 55.5914 15.7136C55.624 15.5099 55.6918 15.3433 55.7421 15.3433C55.7924 15.3433 55.8336 15.2391 55.8336 15.1118C55.8336 14.9845 55.8753 14.8803 55.9262 14.8803C55.9771 14.8803 56.0188 14.7791 56.0188 14.6554C56.0188 14.5318 56.0813 14.3681 56.1577 14.2917C56.2341 14.2153 56.2966 14.004 56.2966 13.8221C56.2966 13.6402 56.3364 13.4914 56.385 13.4914C56.4336 13.4914 56.5007 13.3456 56.5342 13.1674C56.5676 12.9891 56.632 12.8433 56.6772 12.8433C56.7225 12.8433 56.7595 12.7183 56.7595 12.5655C56.7595 12.4127 56.7966 12.2877 56.8418 12.2877C56.887 12.2877 56.9515 12.1419 56.9849 11.9637C57.0183 11.7854 57.0854 11.6396 57.1341 11.6396C57.1827 11.6396 57.2225 11.4938 57.2225 11.3155C57.2225 11.1373 57.2637 10.9915 57.314 10.9915C57.3643 10.9915 57.4321 10.8248 57.4647 10.6211C57.4973 10.4174 57.5603 10.2507 57.6047 10.2507C57.6491 10.2507 57.6854 10.1466 57.6854 10.0192C57.6854 9.89193 57.7266 9.78777 57.7769 9.78777C57.8273 9.78777 57.8951 9.6211 57.9277 9.4174C57.9603 9.2137 58.0232 9.04703 58.0677 9.04703C58.1121 9.04703 58.1484 8.94287 58.1484 8.81555V8.58407H60.5136H62.879L62.8152 8.93129C62.7801 9.12231 62.7158 9.2924 62.6721 9.30935C62.6284 9.32638 62.5928 9.47814 62.5928 9.64666C62.5928 9.83369 62.5386 9.97387 62.4539 10.0065C62.3775 10.0357 62.315 10.1652 62.315 10.2941C62.315 10.423 62.2733 10.5285 62.2224 10.5285C62.1715 10.5285 62.1298 10.6565 62.1298 10.8128C62.1298 10.9693 62.0673 11.1598 61.9909 11.2362C61.9146 11.3126 61.8521 11.4971 61.8521 11.6462C61.8521 11.7953 61.8104 11.9174 61.7595 11.9174C61.7085 11.9174 61.6669 12.0186 61.6669 12.1423C61.6669 12.2659 61.6044 12.4296 61.528 12.506C61.4516 12.5824 61.3891 12.7312 61.3891 12.8367C61.3891 12.9422 61.3474 13.0285 61.2965 13.0285C61.2456 13.0285 61.2039 13.1773 61.2039 13.3591C61.2039 13.5411 61.1414 13.7523 61.065 13.8287C60.9886 13.9051 60.9261 14.0688 60.9261 14.1924C60.9261 14.3161 60.8845 14.4173 60.8336 14.4173C60.7826 14.4173 60.741 14.5135 60.741 14.6311C60.741 14.7487 60.6798 14.9258 60.605 15.0246C60.5302 15.1234 60.4677 15.2981 60.4661 15.4127C60.4645 15.5273 60.4215 15.621 60.3706 15.621C60.3197 15.621 60.278 15.7624 60.278 15.9352C60.278 16.1291 60.2249 16.2697 60.1391 16.3027C60.052 16.3361 60.0002 16.4777 60.0002 16.683C60.0002 16.8628 59.9586 17.0099 59.9076 17.0099C59.8567 17.0099 59.815 17.1111 59.815 17.2348C59.815 17.3584 59.7525 17.5221 59.6762 17.5985C59.5998 17.6749 59.5373 17.8445 59.5373 17.9755C59.5373 18.1065 59.4956 18.2136 59.4447 18.2136C59.3938 18.2136 59.3521 18.3148 59.3521 18.4385C59.3521 18.5621 59.2896 18.7258 59.2132 18.8022C59.1368 18.8786 59.0743 19.069 59.0743 19.2255C59.0743 19.3819 59.038 19.5099 58.9936 19.5099C58.9491 19.5099 58.8862 19.6765 58.8536 19.8802C58.821 20.0839 58.7532 20.2506 58.7028 20.2506C58.6526 20.2506 58.6114 20.3548 58.6114 20.4821C58.6114 20.6094 58.5751 20.7136 58.5306 20.7136C58.4862 20.7136 58.4232 20.8802 58.3906 21.0839C58.358 21.2876 58.2902 21.4543 58.2399 21.4543C58.1896 21.4543 58.1484 21.6001 58.1484 21.7784C58.1484 21.9566 58.1067 22.1024 58.0558 22.1024C58.0049 22.1024 57.9632 22.2036 57.9632 22.3273C57.9632 22.451 57.9007 22.6147 57.8243 22.691C57.7479 22.7674 57.6854 22.9371 57.6854 23.0681C57.6854 23.199 57.6438 23.3061 57.5928 23.3061C57.5419 23.3061 57.5003 23.4073 57.5003 23.531C57.5003 23.6546 57.4378 23.8183 57.3614 23.8947C57.285 23.9711 57.2225 24.1616 57.2225 24.3181C57.2225 24.4744 57.1813 24.6024 57.131 24.6024C57.0806 24.6024 57.0129 24.7691 56.9803 24.9728C56.9477 25.1765 56.8847 25.3431 56.8403 25.3431C56.7958 25.3431 56.7595 25.4681 56.7595 25.6209C56.7595 25.7737 56.7225 25.8987 56.6772 25.8987C56.632 25.8987 56.5676 26.0445 56.5342 26.2228C56.5007 26.401 56.4336 26.5468 56.385 26.5468C56.3364 26.5468 56.2966 26.6927 56.2966 26.8709C56.2966 27.0491 56.2582 27.195 56.2113 27.195C56.1644 27.195 56.0986 27.32 56.0651 27.4727C56.0316 27.6255 55.9657 27.7505 55.9189 27.7505C55.8719 27.7505 55.8336 27.8964 55.8336 28.0746C55.8336 28.2528 55.7919 28.3987 55.741 28.3987C55.6901 28.3987 55.6484 28.4999 55.6484 28.6236C55.6484 28.7472 55.5859 28.9109 55.5095 28.9873C55.4332 29.0637 55.3707 29.2541 55.3707 29.4106C55.3707 29.567 55.3323 29.6949 55.2854 29.6949C55.2385 29.6949 55.1727 29.8199 55.1392 29.9727C55.1057 30.1255 55.0398 30.2505 54.993 30.2505C54.946 30.2505 54.9077 30.3919 54.9077 30.5647C54.9077 30.7658 54.855 30.8991 54.7612 30.935C54.6807 30.9659 53.5765 30.9912 52.3075 30.9912C50.7286 30.9912 50.0003 30.9599 50.0003 30.8921C50.0003 30.8374 50.0628 30.7303 50.1392 30.6539C50.2156 30.5775 50.2781 30.393 50.2781 30.2439C50.2781 30.0948 50.3198 29.9727 50.3707 29.9727C50.4216 29.9727 50.4633 29.8715 50.4633 29.7478C50.4633 29.6242 50.5258 29.4605 50.6022 29.3841C50.6786 29.3077 50.7411 29.1173 50.7411 28.9608C50.7411 28.8044 50.7827 28.6764 50.8337 28.6764C50.8846 28.6764 50.9263 28.5693 50.9263 28.4384C50.9263 28.3074 50.9888 28.1377 51.0651 28.0613C51.1415 27.985 51.204 27.8213 51.204 27.6976C51.204 27.5739 51.2457 27.4727 51.2966 27.4727C51.3476 27.4727 51.3892 27.3507 51.3892 27.2015C51.3892 27.0525 51.4517 26.8679 51.5281 26.7915C51.6045 26.7152 51.667 26.5247 51.667 26.3682C51.667 26.2118 51.7087 26.0839 51.7596 26.0839C51.8105 26.0839 51.8522 25.9784 51.8522 25.8495C51.8522 25.7205 51.9147 25.5911 51.9911 25.5618C52.0713 25.531 52.13 25.3926 52.13 25.2341C52.13 25.083 52.0675 24.897 51.9911 24.8206C51.9147 24.7443 51.8522 24.5806 51.8522 24.4569C51.8522 24.3332 51.8105 24.232 51.7596 24.232C51.7087 24.232 51.6657 24.1383 51.664 24.0237C51.6625 23.9091 51.6 23.7345 51.5251 23.6357C51.4504 23.5368 51.3892 23.3597 51.3892 23.2421C51.3892 23.1246 51.3476 23.0284 51.2966 23.0284C51.2457 23.0284 51.204 22.9272 51.204 22.8034C51.204 22.6798 51.1415 22.5161 51.0651 22.4397C50.9888 22.3634 50.9263 22.1937 50.9263 22.0627C50.9263 21.9318 50.8846 21.8247 50.8337 21.8247C50.7827 21.8247 50.7411 21.7235 50.7411 21.5998C50.7411 21.4761 50.6786 21.3124 50.6022 21.2361C50.5258 21.1597 50.4633 21.0109 50.4633 20.9053C50.4633 20.7999 50.4216 20.7136 50.3707 20.7136C50.3198 20.7136 50.2781 20.5664 50.2781 20.3866C50.2781 20.1813 50.2264 20.0398 50.1392 20.0063C50.0535 19.9734 50.0003 19.8327 50.0003 19.6389C50.0003 19.4661 49.9587 19.3247 49.9078 19.3247C49.8568 19.3247 49.8139 19.231 49.8122 19.1164C49.8106 19.0017 49.7481 18.8271 49.6733 18.7283C49.5986 18.6294 49.5374 18.4524 49.5374 18.3348C49.5374 18.2172 49.4957 18.121 49.4448 18.121C49.3939 18.121 49.3522 18.0198 49.3522 17.8961C49.3522 17.7725 49.2897 17.6088 49.2133 17.5324C49.1369 17.456 49.0744 17.3072 49.0744 17.2017C49.0744 17.0962 49.0381 17.0099 48.9937 17.0099C48.9492 17.0099 48.8863 16.8432 48.8537 16.6395C48.8211 16.4358 48.7533 16.2692 48.7029 16.2692C48.6527 16.2692 48.6115 16.1269 48.6115 15.9528C48.6115 15.7788 48.5803 15.6226 48.542 15.6056C48.5038 15.5886 48.3996 15.4359 48.3106 15.2663C48.2215 15.0967 48.1485 14.8362 48.1485 14.6876C48.1485 14.539 48.1068 14.4173 48.0559 14.4173C48.005 14.4173 47.9633 14.3161 47.9633 14.1924C47.9633 14.0688 47.9008 13.9051 47.8244 13.8287C47.7481 13.7523 47.6856 13.6036 47.6856 13.498C47.6856 13.3925 47.6493 13.3062 47.6048 13.3062C47.5604 13.3062 47.4974 13.1396 47.4648 12.9359C47.4322 12.7322 47.3644 12.5655 47.3141 12.5655C47.2638 12.5655 47.2226 12.4613 47.2226 12.334C47.2226 12.2067 47.1863 12.1026 47.1419 12.1026C47.0974 12.1026 47.0345 11.9359 47.0019 11.7322C46.9693 11.5285 46.9015 11.3618 46.8511 11.3618C46.8008 11.3618 46.7596 11.216 46.7596 11.0378C46.7596 10.8595 46.718 10.7137 46.667 10.7137C46.6161 10.7137 46.5745 10.6095 46.5745 10.4822C46.5745 10.3381 46.522 10.2507 46.4356 10.2507C46.3385 10.2507 46.2967 10.1529 46.2967 9.92665C46.2967 9.74841 46.2555 9.60258 46.2052 9.60258C46.1548 9.60258 46.0871 9.43592 46.0545 9.23222C46.0219 9.02851 45.9589 8.86185 45.9145 8.86185ZM69.8149 8.77537C69.8149 8.72787 69.9295 8.67019 70.0696 8.64732C70.2096 8.62435 70.9666 8.6112 71.7518 8.61796C72.8026 8.62713 73.1895 8.66093 73.2178 8.74611C73.2416 8.81778 73.4295 8.86185 73.7115 8.86185C73.9619 8.86185 74.1667 8.90166 74.1667 8.95028C74.1667 8.99889 74.3126 9.06601 74.4908 9.09944C74.669 9.13287 74.8149 9.19731 74.8149 9.24249C74.8149 9.28777 74.9399 9.32481 75.0926 9.32481C75.2454 9.32481 75.3704 9.36564 75.3704 9.41564C75.3704 9.46555 75.4746 9.53258 75.6019 9.56453C75.7292 9.59647 75.8334 9.6598 75.8334 9.70517C75.8334 9.75064 75.878 9.78777 75.9325 9.78777C75.9872 9.78777 76.0899 9.83989 76.1609 9.9035C76.2318 9.96721 76.3521 10.0714 76.4281 10.135C76.5041 10.1987 76.5914 10.2507 76.6221 10.2507C76.6528 10.2507 77.0087 10.5816 77.4131 10.9858C77.8173 11.3902 78.1482 11.7461 78.1482 11.7768C78.1482 11.8075 78.2003 11.8948 78.2639 11.9708C78.3276 12.0468 78.4318 12.1671 78.4954 12.238C78.5591 12.309 78.6111 12.4117 78.6111 12.4663C78.6111 12.5209 78.652 12.5655 78.702 12.5655C78.7519 12.5655 78.8189 12.6697 78.8508 12.797C78.8828 12.9243 78.9461 13.0285 78.9915 13.0285C79.0369 13.0285 79.0741 13.1148 79.0741 13.2202C79.0741 13.3258 79.1366 13.4746 79.213 13.551C79.2894 13.6273 79.3519 13.7911 79.3519 13.9147C79.3519 14.0384 79.3935 14.1396 79.4445 14.1396C79.4954 14.1396 79.537 14.3027 79.537 14.5022C79.537 14.7095 79.5865 14.8813 79.6525 14.9034C79.7293 14.9289 79.779 15.2108 79.8008 15.7444C79.819 16.1857 79.8712 16.5469 79.9169 16.5469C79.9626 16.5469 80 16.7921 80 17.0917C80 17.5783 79.9778 17.6424 79.7917 17.6923C79.6771 17.7229 76.8383 17.7487 73.4832 17.7493L67.3832 17.7506L67.4357 18.1421C67.4646 18.3575 67.5325 18.5485 67.5867 18.5666C67.641 18.5846 67.6853 18.6849 67.6853 18.7894C67.6853 18.8939 67.7895 19.0759 67.9168 19.194C68.0441 19.3119 68.1483 19.4938 68.1483 19.598C68.1483 19.7024 68.1929 19.7876 68.2474 19.7876C68.3021 19.7876 68.4062 19.8472 68.4789 19.92C68.5517 19.9926 68.6112 20.0968 68.6112 20.1514C68.6112 20.206 68.7002 20.2506 68.8089 20.2506C68.9177 20.2506 69.1032 20.3548 69.2212 20.4821C69.3392 20.6094 69.521 20.7136 69.6253 20.7136C69.7297 20.7136 69.8149 20.7506 69.8149 20.7959C69.8149 20.8411 69.9608 20.9055 70.139 20.9389C70.3172 20.9724 70.4631 21.0395 70.4631 21.0881C70.4631 21.1391 70.9134 21.1765 71.5279 21.1765C72.1423 21.1765 72.5927 21.1391 72.5927 21.0881C72.5927 21.0395 72.7385 20.9724 72.9167 20.9389C73.095 20.9055 73.2408 20.8411 73.2408 20.7959C73.2408 20.7506 73.3298 20.7136 73.4385 20.7136C73.5473 20.7136 73.7328 20.6094 73.8508 20.4821C73.9688 20.3548 74.1506 20.2506 74.2549 20.2506C74.3592 20.2506 74.4445 20.206 74.4445 20.1514C74.4445 20.0968 74.504 19.9926 74.5768 19.92C74.6495 19.8472 74.7537 19.7876 74.8083 19.7876C74.8628 19.7876 74.9075 19.6835 74.9075 19.5562V19.3247H77.2223H79.537V19.5562C79.537 19.6835 79.4999 19.7876 79.4544 19.7876C79.4091 19.7876 79.3457 19.8918 79.3138 20.0191C79.2819 20.1464 79.2148 20.2506 79.1649 20.2506C79.1149 20.2506 79.0741 20.3548 79.0741 20.4821C79.0741 20.6094 79.0369 20.7136 78.9915 20.7136C78.9461 20.7136 78.8828 20.8177 78.8508 20.945C78.8189 21.0724 78.7519 21.1765 78.702 21.1765C78.652 21.1765 78.6111 21.2807 78.6111 21.408C78.6111 21.5353 78.5665 21.6395 78.512 21.6395C78.4573 21.6395 78.3532 21.699 78.2805 21.7718C78.2077 21.8445 78.1482 21.9335 78.1482 21.9695C78.1482 22.0055 78.044 22.1314 77.9167 22.2495C77.7894 22.3674 77.6852 22.5257 77.6852 22.601C77.6852 22.6764 77.5941 22.7671 77.4827 22.8023C77.3714 22.8377 77.1477 23.0072 76.9857 23.179C76.8237 23.3508 76.663 23.4913 76.6287 23.4913C76.5944 23.4913 76.5041 23.5434 76.4281 23.607C76.3521 23.6708 76.2318 23.7749 76.1609 23.8385C76.0899 23.9022 75.9872 23.9543 75.9325 23.9543C75.878 23.9543 75.8334 23.9951 75.8334 24.0451C75.8334 24.095 75.7292 24.162 75.6019 24.194C75.4746 24.2259 75.3704 24.2893 75.3704 24.3346C75.3704 24.3801 75.2841 24.4172 75.1787 24.4172C75.0731 24.4172 74.9243 24.4797 74.8479 24.5561C74.7715 24.6325 74.6078 24.695 74.4842 24.695C74.3605 24.695 74.2593 24.7367 74.2593 24.7876C74.2593 24.8385 74.1031 24.8815 73.9121 24.8831C73.7212 24.8847 73.484 24.9472 73.3852 25.022C73.2606 25.1162 72.9692 25.158 72.4361 25.158C71.9849 25.158 71.6668 25.1963 71.6668 25.2505C71.6668 25.3015 71.6043 25.3431 71.5279 25.3431C71.4515 25.3431 71.389 25.3015 71.389 25.2505C71.389 25.1957 71.0517 25.158 70.5622 25.158C69.9509 25.158 69.6994 25.1218 69.5967 25.0191C69.5203 24.9427 69.3298 24.8802 69.1734 24.8802C69.017 24.8802 68.889 24.8439 68.889 24.7994C68.889 24.755 68.7224 24.692 68.5186 24.6594C68.3149 24.6269 68.1483 24.5591 68.1483 24.5087C68.1483 24.4584 68.0441 24.4172 67.9168 24.4172C67.7895 24.4172 67.6853 24.3801 67.6853 24.3346C67.6853 24.2893 67.5812 24.2259 67.4538 24.194C67.3265 24.162 67.2224 24.095 67.2224 24.0451C67.2224 23.9951 67.1789 23.9543 67.1259 23.9543C67.0728 23.9543 66.9672 23.9022 66.8912 23.8385C66.8151 23.7749 66.6949 23.6708 66.6239 23.607C66.5529 23.5434 66.4685 23.4913 66.4364 23.4913C66.4041 23.4913 66.047 23.1605 65.6427 22.7562C65.2384 22.3519 64.9076 21.996 64.9076 21.9652C64.9076 21.9346 64.8555 21.8473 64.7918 21.7712C64.7282 21.6952 64.6241 21.5749 64.5604 21.504C64.4967 21.433 64.4446 21.3303 64.4446 21.2757C64.4446 21.2212 64.4075 21.1765 64.362 21.1765C64.3167 21.1765 64.2533 21.0724 64.2214 20.945C64.1894 20.8177 64.1224 20.7136 64.0725 20.7136C64.0225 20.7136 63.9817 20.6094 63.9817 20.4821C63.9817 20.3548 63.9405 20.2506 63.8902 20.2506C63.8398 20.2506 63.772 20.0839 63.7394 19.8802C63.7069 19.6765 63.6439 19.5099 63.5994 19.5099C63.555 19.5099 63.5187 19.3479 63.5187 19.1501C63.5187 18.9522 63.4565 18.671 63.3804 18.5251C63.2757 18.3242 63.242 17.9229 63.242 16.871C63.242 15.8191 63.2757 15.4178 63.3804 15.217C63.4565 15.071 63.5187 14.7898 63.5187 14.592C63.5187 14.3941 63.5604 14.2322 63.6113 14.2322C63.6622 14.2322 63.7039 14.1267 63.7039 13.9978C63.7039 13.8688 63.7664 13.7394 63.8428 13.7101C63.9219 13.6798 63.9817 13.5416 63.9817 13.3889C63.9817 13.2416 64.0233 13.1211 64.0743 13.1211C64.1252 13.1211 64.1668 13.0573 64.1668 12.9793C64.1668 12.9012 64.2293 12.8135 64.3057 12.7842C64.3821 12.7549 64.4446 12.652 64.4446 12.5556C64.4446 12.4592 64.4863 12.3803 64.5372 12.3803C64.5881 12.3803 64.6298 12.3178 64.6298 12.2414C64.6298 12.1651 64.6923 12.1026 64.7687 12.1026C64.8475 12.1026 64.9076 12.0195 64.9076 11.9108C64.9076 11.8052 64.9671 11.6594 65.0399 11.5867C65.1126 11.5139 65.2167 11.4544 65.2714 11.4544C65.3259 11.4544 65.3705 11.4095 65.3705 11.3547C65.3705 11.2999 65.4923 11.1332 65.6412 10.9843C65.7901 10.8354 65.9389 10.7137 65.9719 10.7137C66.0049 10.7137 66.0915 10.6541 66.1641 10.5814C66.2369 10.5087 66.2965 10.4045 66.2965 10.3499C66.2965 10.2954 66.4006 10.2507 66.5279 10.2507C66.672 10.2507 66.7594 10.1982 66.7594 10.1118C66.7594 10.0354 66.8219 9.97295 66.8983 9.97295C66.9747 9.97295 67.0372 9.93128 67.0372 9.88036C67.0372 9.82943 67.1016 9.78777 67.1805 9.78777C67.2593 9.78777 67.4203 9.6836 67.5383 9.55629C67.6793 9.40425 67.8525 9.32481 68.0432 9.32481C68.2028 9.32481 68.3335 9.28648 68.3335 9.23953C68.3335 9.19268 68.4585 9.12685 68.6112 9.09333C68.764 9.05981 68.889 8.99398 68.889 8.94713C68.889 8.90018 69.0973 8.86185 69.352 8.86185C69.6066 8.86185 69.8149 8.82296 69.8149 8.77537ZM38.5161 12.8433C38.3521 12.8433 38.2133 12.7856 38.1821 12.7044C38.1389 12.5917 37.9208 12.5655 37.0248 12.5655C36.1287 12.5655 35.9106 12.5917 35.8674 12.7044C35.8344 12.7901 35.6938 12.8433 35.4999 12.8433C35.3271 12.8433 35.1857 12.885 35.1857 12.9359C35.1857 12.9868 35.1004 13.0285 34.9961 13.0285C34.8918 13.0285 34.71 13.1326 34.592 13.2599C34.474 13.3873 34.348 13.4914 34.312 13.4914C34.276 13.4914 34.187 13.551 34.1143 13.6237C34.0415 13.6964 33.982 13.8006 33.982 13.8552C33.982 13.9098 33.9195 13.9544 33.8431 13.9544C33.7667 13.9544 33.7042 14.0016 33.7042 14.0593C33.7042 14.117 33.6268 14.2315 33.5323 14.3139C33.4378 14.3962 33.3307 14.5573 33.2946 14.672C33.2584 14.7866 33.19 14.8803 33.1425 14.8803C33.095 14.8803 33.0561 14.981 33.0561 15.1041C33.0561 15.2271 33.0156 15.3417 32.9662 15.3587C32.9168 15.3757 32.8647 15.4937 32.8505 15.621L32.8246 15.8525H36.9912H41.1579L41.1871 15.5979C41.208 15.416 41.175 15.3433 41.0714 15.3433C40.9784 15.3433 40.9264 15.2602 40.9264 15.1118C40.9264 14.9845 40.8847 14.8803 40.8338 14.8803C40.7829 14.8803 40.7412 14.8028 40.7412 14.7081C40.7412 14.6134 40.637 14.4576 40.5097 14.3621C40.3824 14.2664 40.2782 14.1532 40.2782 14.1105C40.2782 14.0677 40.1565 13.911 40.0076 13.7621C39.8587 13.6132 39.7072 13.4914 39.671 13.4914C39.6347 13.4914 39.5085 13.3873 39.3905 13.2599C39.2725 13.1326 39.0907 13.0285 38.9864 13.0285C38.882 13.0285 38.7968 12.9868 38.7968 12.9359C38.7968 12.885 38.6705 12.8433 38.5161 12.8433ZM73.0159 12.8433C72.8923 12.8433 72.7286 12.7808 72.6522 12.7044C72.5454 12.5975 72.2821 12.5663 71.5113 12.569C70.7519 12.5717 70.4805 12.6053 70.39 12.7079C70.3243 12.7824 70.1681 12.8433 70.0428 12.8433C69.9174 12.8433 69.8149 12.885 69.8149 12.9359C69.8149 12.9868 69.7297 13.0285 69.6253 13.0285C69.521 13.0285 69.3392 13.1326 69.2212 13.2599C69.1032 13.3873 68.9444 13.4914 68.8682 13.4914C68.7921 13.4914 68.6515 13.5956 68.556 13.7229C68.4603 13.8502 68.3295 13.9544 68.2652 13.9544C68.2009 13.9544 68.1483 14.0585 68.1483 14.1859C68.1483 14.3299 68.0958 14.4173 68.0094 14.4173C67.933 14.4173 67.8705 14.4798 67.8705 14.5562C67.8705 14.6326 67.8288 14.6951 67.7779 14.6951C67.727 14.6951 67.6853 14.7959 67.6853 14.9189C67.6853 15.042 67.6404 15.1576 67.5855 15.1759C67.5306 15.1942 67.4785 15.3539 67.4698 15.5308L67.4538 15.8525H71.5896C73.8643 15.8525 75.7589 15.819 75.7999 15.7781C75.8408 15.737 75.8267 15.6742 75.7686 15.6383C75.7104 15.6023 75.6342 15.4587 75.5992 15.3192C75.5642 15.1796 75.4984 15.0655 75.453 15.0655C75.4076 15.0655 75.3704 14.9821 75.3704 14.8803C75.3704 14.7784 75.3296 14.6951 75.2796 14.6951C75.2297 14.6951 75.1626 14.591 75.1307 14.4636C75.0988 14.3363 75.0354 14.2322 74.9901 14.2322C74.9446 14.2322 74.9075 14.1697 74.9075 14.0933C74.9075 14.0169 74.8628 13.9544 74.8083 13.9544C74.7537 13.9544 74.6495 13.8948 74.5768 13.8221C74.504 13.7494 74.4445 13.6452 74.4445 13.5906C74.4445 13.5361 74.382 13.4914 74.3056 13.4914C74.2292 13.4914 74.1665 13.4601 74.1662 13.422C74.1658 13.3838 74.0375 13.2797 73.8809 13.1905C73.7243 13.1013 73.5162 13.0285 73.4185 13.0285C73.3208 13.0285 73.2408 12.9868 73.2408 12.9359C73.2408 12.885 73.1396 12.8433 73.0159 12.8433Z" fill="#20478A"/>
<path d="M0.0655548 0.0319516C0.0299997 0.0674141 0.000925936 1.34018 0.000925936 2.86016V5.62383L2.80182 5.59939L5.60271 5.57485L5.62725 2.82025L5.65179 0.0656549H3.01913C1.57109 0.0656549 0.328793 0.0435255 0.25833 0.0164888C0.187776 -0.010548 0.10111 -0.00360358 0.0655548 0.0319516Z" fill="#A02C2C"/>
</svg>
