<svg width="140" height="27" viewBox="0 0 140 27" fill="none" xmlns="http://www.w3.org/2000/svg">
<path d="M8.99888 1.33872C8.99888 1.33872 6.38265 0.311494 3.73433 2.44086C3.73433 2.44086 0.583083 4.55417 0.00526593 13.4622C0.00526593 13.4622 -0.171289 14.9442 1.1395 15.1635C1.1395 15.1635 2.45564 15.4203 2.63219 14.3075C2.8034 13.1947 2.7713 7.57701 5.26447 4.69327C5.26447 4.69327 5.50523 4.32946 6.16865 4.0459C6.71971 3.70349 7.15843 3.08288 7.48479 2.59066C7.48479 2.59066 7.97165 1.94329 9.00423 1.34407" fill="#0066B3"/>
<path d="M13.7231 1.13113C13.7231 1.13113 11.3958 0.392806 8.89196 2.30281C8.89196 2.30281 5.91727 4.12187 5.2271 11.3392C5.2271 11.3392 4.97029 13.1208 5.10939 14.025C5.10939 14.025 5.22175 15.079 6.31318 15.1753C6.31318 15.1753 7.62397 15.2769 7.70422 14.0464C7.78447 12.8212 7.81657 12.3183 7.81657 12.3183C7.81657 12.3183 8.02523 7.51922 9.97269 5.08489L10.4435 5.438C10.4435 5.438 11.1069 2.91808 13.7231 1.12578V1.13113Z" fill="#0066B3"/>
<path d="M18.4419 1.13102C18.4419 1.13102 15.3281 0.403394 13.0757 2.85377C13.0757 2.85377 10.8393 4.84938 10.1813 9.80362C10.1813 9.80362 9.90306 12.468 9.85491 13.7627C9.85491 13.7627 9.83351 15.02 11.0373 15.1805C11.0373 15.1805 12.2839 15.2554 12.3641 13.9393C12.3641 13.9393 12.4444 7.87221 14.6914 5.09548L15.2479 5.44324C15.2479 5.44324 16.2216 2.63976 18.4419 1.13637V1.13102Z" fill="#0066B3"/>
<path d="M22.0265 1.06712C22.0265 1.06712 18.8913 0.93872 17.0509 4.10066C17.0509 4.10066 14.9269 7.1984 14.9322 13.5437C14.9322 13.5437 14.8038 15.0471 15.9809 15.1862C15.9809 15.1862 17.3772 15.2718 17.3772 13.6774C17.3772 13.6774 17.4414 7.41776 19.8276 4.88714C19.8276 4.88714 21.9409 7.42311 22.1175 13.3992C22.1175 13.3992 22.1924 17.4921 22.9521 19.7499C22.9521 19.7499 23.6423 17.2192 23.7814 13.7095C23.7814 13.7095 23.7225 13.0675 24.2789 12.6181C24.2789 12.6181 24.6428 12.4362 24.5732 11.7995C24.5732 11.7995 24.0596 6.58849 22.3261 3.6352C22.3261 3.6352 26.0071 3.39444 26.7347 10.7563C26.7347 10.7563 26.74 11.8316 27.3392 12.5004C27.3392 12.5004 27.778 12.8107 27.8208 13.5651C27.8208 13.5651 27.9278 14.6084 27.6174 17.9736C27.6174 17.9736 27.5425 18.7119 27.8689 19.7606C27.8689 19.7606 28.7784 17.246 28.5377 14.7796C28.5377 14.7796 28.42 12.7786 29.4151 12.1045C29.4151 12.1045 29.3295 6.51893 27.1092 3.46399C27.1092 3.46399 25.349 0.92802 22.0265 1.06712Z" fill="#0066B3"/>
<path d="M32.9891 26.3565C32.9891 26.3565 35.6053 27.3837 38.2536 25.2543C38.2536 25.2543 41.3995 23.141 41.9773 14.233C41.9773 14.233 42.1539 12.751 40.8431 12.5317C40.8431 12.5317 39.527 12.2749 39.3504 13.3877C39.1792 14.5005 39.2113 20.1182 36.7181 22.9966C36.7181 22.9966 36.4774 23.3604 35.814 23.6439C35.2629 23.9864 34.8242 24.607 34.4978 25.0992C34.4978 25.0992 34.011 25.7466 32.9784 26.3458" fill="#0066B3"/>
<path d="M28.2648 26.5663C28.2648 26.5663 30.5921 27.3047 33.096 25.3893C33.096 25.3893 36.0707 23.5703 36.7608 16.3529C36.7608 16.3529 37.0177 14.5713 36.8785 13.6671C36.8785 13.6671 36.7662 12.6131 35.6748 12.5168C35.6748 12.5168 34.364 12.4152 34.2837 13.6404C34.2035 14.8656 34.1714 15.3685 34.1714 15.3685C34.1714 15.3685 33.9627 20.1676 32.0153 22.6019L31.5444 22.2488C31.5444 22.2488 30.881 24.7687 28.2648 26.561V26.5663Z" fill="#0066B3"/>
<path d="M23.5407 26.5662C23.5407 26.5662 26.6545 27.2938 28.9069 24.8434C28.9069 24.8434 31.1432 22.8478 31.8013 17.8936C31.8013 17.8936 32.0795 15.2292 32.1277 13.9344C32.1277 13.9344 32.1491 12.6771 30.9453 12.5166C30.9453 12.5166 29.6987 12.4417 29.6184 13.7579C29.6184 13.7579 29.5382 19.825 27.2911 22.6017L26.7347 22.2539C26.7347 22.2539 25.761 25.0574 23.5407 26.5608V26.5662Z" fill="#0066B3"/>
<path d="M19.9614 26.6341C19.9614 26.6341 23.0966 26.7626 24.937 23.6006C24.937 23.6006 27.061 20.5029 27.0557 14.1576C27.0557 14.1576 27.1841 12.6542 26.0071 12.5151C26.0071 12.5151 24.6107 12.4295 24.6107 14.0238C24.6107 14.0238 24.5465 20.2835 22.1603 22.8141C22.1603 22.8141 20.047 20.2782 19.8704 14.302C19.8704 14.302 19.7955 10.2092 19.0358 7.9514C19.0358 7.9514 18.3456 10.482 18.2065 13.9917C18.2065 13.9917 18.2654 14.6337 17.709 15.0832C17.709 15.0832 17.3398 15.2651 17.4147 15.9017C17.4147 15.9017 17.9283 21.1128 19.6618 24.0661C19.6618 24.0661 15.9809 24.3068 15.2532 16.945C15.2532 16.945 15.2479 15.8696 14.6487 15.2009C14.6487 15.2009 14.21 14.8906 14.1672 14.1362C14.1672 14.1362 14.0602 13.0929 14.3705 9.72765C14.3705 9.72765 14.4454 8.98933 14.119 7.9407C14.119 7.9407 13.2095 10.4553 13.4502 12.9217C13.4502 12.9217 13.5679 14.9227 12.5728 15.5968C12.5728 15.5968 12.6584 21.1823 14.8787 24.2426C14.8787 24.2426 16.6389 26.7786 19.9614 26.6395V26.6341Z" fill="#0066B3"/>
<path d="M46.2735 8.29051L47.6057 4.20299C47.8304 3.49677 48.5794 3.18646 49.2214 3.51282C49.7885 3.78033 50.0293 4.41165 49.7778 5.04297L47.5147 10.7195C47.1723 11.5595 46.5998 11.8751 45.808 11.5862C45.4495 11.4685 45.2088 11.2117 45.0162 10.7195L42.7531 5.04297C42.4963 4.41165 42.737 3.78568 43.3095 3.51282C43.9515 3.18111 44.7005 3.51282 44.9252 4.20299L46.2735 8.29051Z" fill="#231F20"/>
<path d="M50.484 4.54455C50.484 4.22889 50.6017 3.92928 50.8264 3.72063C51.2759 3.25516 52.0088 3.27121 52.4582 3.72063C52.6669 3.94533 52.7899 4.24494 52.7899 4.54455V10.5367C52.806 11.1787 52.2977 11.6924 51.6504 11.7031C51.0083 11.7031 50.484 11.1787 50.484 10.5474V4.5392V4.54455ZM50.6927 0.38213C51.217 -0.142186 52.057 -0.126135 52.5813 0.39818C53.0896 0.922496 53.0896 1.74642 52.5813 2.27074C52.057 2.79505 51.217 2.79505 50.7087 2.28679C50.4519 2.02998 50.3021 1.68757 50.3021 1.32911C50.3021 0.970647 50.4519 0.638937 50.6927 0.38748V0.38213Z" fill="#231F20"/>
<path d="M58.4022 3.39455C60.125 3.58716 60.6921 4.33618 60.4995 5.10125C60.3818 5.60952 60.0073 5.90913 59.5579 5.89308C59.483 5.87703 59.4081 5.87702 59.3332 5.86097L59.2155 5.81817L59.0068 5.74327L58.857 5.70047L58.6483 5.62557C57.2573 5.17615 56.1338 6.00008 56.1445 7.57302C56.1766 9.14597 57.3108 9.91104 58.7982 9.41348L59.055 9.32253L59.162 9.27973C59.8361 9.03897 60.4353 9.37068 60.5423 10.0715C60.6333 10.6547 60.2427 11.1951 59.162 11.5375C58.8945 11.6284 58.6056 11.6873 58.3059 11.7194C55.7272 11.9602 53.7797 10.1625 53.8118 7.50882C53.8439 4.84444 55.8342 3.10564 58.4129 3.3892L58.4022 3.39455Z" fill="#231F20"/>
<path d="M62.2223 3.48622L62.2063 2.15403C62.2063 1.52271 62.7145 0.998393 63.3619 0.998393C64.0093 0.998393 64.5175 1.52271 64.5015 2.15403V3.48622H65.1917C65.4592 3.48622 65.732 3.59322 65.9246 3.80188C66.3312 4.19244 66.3312 4.85051 65.9246 5.25712C65.716 5.44972 65.4592 5.55673 65.1756 5.55673H64.5015V10.5324C64.5015 10.832 64.3838 11.1316 64.1698 11.3563C63.7204 11.8057 63.0034 11.8057 62.5647 11.3563C62.34 11.1316 62.2223 10.832 62.2223 10.5324L62.2384 5.54603H61.8318C61.5482 5.54603 61.2753 5.43902 61.0667 5.23037C60.6601 4.83981 60.6601 4.19779 61.0827 3.79118C61.2753 3.59857 61.5482 3.49157 61.8318 3.49157H62.2223V3.48622Z" fill="#231F20"/>
<path d="M66.6682 4.50079C66.6682 3.94437 67.1337 3.43611 67.8346 3.3933C68.5515 3.33445 68.9902 3.78387 68.9581 4.21723L68.9421 4.33493C69.0009 4.26003 69.0598 4.18513 69.1347 4.12628C70.0174 3.1686 71.0233 3.18465 71.4887 3.86947C71.8953 4.46869 71.6813 5.15886 71.0821 5.41031L70.9644 5.46916L70.6488 5.57617C70.3492 5.68317 70.1405 5.78482 69.9586 5.89183C69.2256 6.32519 68.9688 6.71575 68.9688 7.09026V10.5358C68.9688 11.1671 68.4605 11.6914 67.8132 11.6914C67.1658 11.6914 66.6575 11.1831 66.6575 10.5518V4.50079H66.6682Z" fill="#231F20"/>
<path d="M72.1896 5.29417C72.9386 4.05293 74.212 3.33066 75.5763 3.33066C77.7484 3.33066 79.53 5.12831 79.5461 7.52518C79.5461 9.9381 77.7645 11.7358 75.5763 11.7358C73.3881 11.7358 71.6065 9.9381 71.6065 7.52518C71.6065 6.65846 71.7991 5.92013 72.1896 5.29417ZM73.9284 7.88364C74.121 9.26398 74.9289 9.8739 75.9187 9.64919C76.5767 9.51544 77.0743 8.91622 77.192 7.89434C77.2188 7.65359 77.2188 7.41283 77.192 7.17742C77.0583 6.18764 76.55 5.60447 75.9187 5.47072C74.961 5.26206 74.105 5.86128 73.9284 7.19347C73.9124 7.31117 73.9124 7.43423 73.9124 7.55193C73.9124 7.66964 73.9124 7.77664 73.9284 7.88364Z" fill="#231F20"/>
<path d="M80.5305 4.55972C80.5305 3.9926 81.012 3.45223 81.6861 3.39338C82.3014 3.33453 82.7187 3.72509 82.7187 4.1424V4.23336C83.0772 3.79999 83.5748 3.51643 84.2756 3.39338C84.6501 3.31848 85.0246 3.31848 85.3831 3.37733C86.9721 3.63414 87.8388 4.68277 87.8388 6.25572V10.5572C87.8388 11.1993 87.3306 11.7129 86.6992 11.7236C86.0572 11.7236 85.5329 11.2153 85.5329 10.5679V6.64093C85.5329 6.28247 85.3831 5.93471 85.1263 5.68325C84.602 5.14288 83.7459 5.14288 83.2216 5.6672C82.9702 5.93471 82.8311 6.26642 82.8311 6.62488V10.5519C82.8311 11.1832 82.3068 11.7075 81.6594 11.6915C81.0281 11.6915 80.5198 11.1672 80.5198 10.5358V4.55972H80.5305Z" fill="#231F20"/>
<path d="M95.3612 8.26255C95.42 8.54611 95.5538 8.82967 95.7517 9.07042C96.367 9.8034 97.4905 9.9853 98.7638 9.31118C99.4968 8.90457 99.7055 8.87782 100.096 9.02762C100.321 9.11858 100.503 9.29513 100.588 9.51984C100.92 10.3277 99.9141 11.7241 97.1 11.7348C94.2376 11.7348 92.3383 9.37003 92.9964 6.52375C93.3709 4.8759 94.6121 3.69352 96.1744 3.40996C97.972 3.07825 99.6787 3.99313 100.428 5.69983C100.626 6.16529 100.743 6.64145 100.77 7.00526C100.861 7.93619 100.562 8.26255 99.7964 8.26255H95.3612ZM98.491 6.78056C98.4749 6.73776 98.4749 6.67355 98.4589 6.63075C98.2181 5.53932 97.4424 5.02571 96.5596 5.23971C96.0032 5.37347 95.527 5.85498 95.329 6.604C95.313 6.66285 95.313 6.7217 95.3023 6.78591H98.491V6.78056Z" fill="#231F20"/>
<path d="M101.621 4.55972C101.621 3.9926 102.102 3.45223 102.776 3.39338C103.392 3.33453 103.809 3.72509 103.809 4.1424V4.23336C104.167 3.79999 104.665 3.51643 105.366 3.39338C105.74 3.31848 106.115 3.31848 106.473 3.37733C108.062 3.63414 108.929 4.68277 108.929 6.25572V10.5572C108.929 11.1993 108.421 11.7129 107.79 11.7236C107.148 11.7236 106.623 11.2153 106.623 10.5679V6.64093C106.623 6.28247 106.473 5.93471 106.217 5.68325C105.692 5.14288 104.836 5.14288 104.312 5.6672C104.061 5.93471 103.921 6.26642 103.921 6.62488V10.5519C103.921 11.1832 103.397 11.7075 102.755 11.6915C102.124 11.6915 101.615 11.1672 101.615 10.5358V4.55972H101.621Z" fill="#231F20"/>
<path d="M112.407 8.26255C112.466 8.54611 112.605 8.82967 112.797 9.07042C113.413 9.8034 114.536 9.9853 115.809 9.31118C116.542 8.90457 116.756 8.87782 117.142 9.02762C117.366 9.11858 117.548 9.29513 117.634 9.51984C117.966 10.3277 116.96 11.7241 114.146 11.7348C111.283 11.7348 109.384 9.37003 110.042 6.52375C110.416 4.8759 111.658 3.69352 113.22 3.40996C115.018 3.07825 116.724 3.99313 117.473 5.69983C117.666 6.16529 117.789 6.64145 117.816 7.00526C117.907 7.93619 117.607 8.26255 116.842 8.26255H112.407ZM115.537 6.78056C115.521 6.73776 115.521 6.67355 115.51 6.63075C115.269 5.53932 114.493 5.02571 113.605 5.23971C113.049 5.37347 112.573 5.85498 112.38 6.604C112.364 6.66285 112.364 6.7217 112.348 6.78591H115.537V6.78056Z" fill="#231F20"/>
<path d="M118.666 4.50079C118.666 3.94437 119.132 3.43611 119.833 3.3933C120.555 3.33445 120.988 3.78387 120.956 4.21723L120.94 4.33493C120.999 4.26003 121.058 4.18513 121.138 4.12628C122.021 3.1686 123.027 3.18465 123.487 3.86947C123.894 4.46869 123.685 5.15886 123.08 5.41031L122.963 5.46916L122.647 5.57617C122.347 5.68317 122.139 5.78482 121.957 5.89183C121.224 6.32519 120.967 6.71575 120.967 7.09026V10.5358C120.967 11.1671 120.459 11.6914 119.811 11.6914C119.164 11.6914 118.656 11.1831 118.656 10.5518V4.50079H118.666Z" fill="#231F20"/>
<path d="M129.281 4.16976C129.297 3.7364 129.714 3.34584 130.33 3.40469C131.004 3.46354 131.485 4.00391 131.485 4.58707V10.5953C131.485 13.5914 129.72 15.2232 126.601 14.8968C125.969 14.8219 125.402 14.6721 124.862 14.4314C123.754 13.9231 123.556 13.142 124.097 12.5749C124.396 12.2432 124.771 12.1682 125.279 12.3341L125.295 12.3502L125.761 12.5588C125.868 12.6016 125.969 12.6498 126.076 12.6765C128.04 13.3827 129.163 12.5695 129.206 11.0715C129.222 10.9645 129.206 10.8628 129.206 10.7558C128.35 11.9703 126.242 12.1789 124.787 10.7398C123.856 9.80883 123.396 8.28403 123.696 6.62013C123.803 6.02092 123.995 5.51265 124.263 5.07929C125.536 3.02483 128.115 2.83222 129.281 4.27142V4.16441V4.16976ZM126.376 9.07051C127.023 9.85163 128.206 9.83558 128.805 9.02771C129.072 8.66924 129.212 8.23588 129.222 7.60456C129.222 6.58803 128.848 5.94066 128.249 5.64106C127.248 5.14884 126.125 5.80691 125.943 7.1712C125.927 7.30495 125.911 7.45476 125.911 7.58851C125.911 8.21983 126.092 8.71205 126.376 9.07051Z" fill="#231F20"/>
<path d="M132.769 3.4947C133.411 3.22719 134.075 3.5268 134.342 4.25977L135.782 8.11188L137.248 4.24907C137.531 3.5161 138.205 3.21649 138.837 3.5161C139.404 3.78361 139.644 4.43098 139.404 5.01414L135.675 14.1522C135.359 14.9173 134.733 15.2008 134.102 14.944C133.502 14.6872 133.246 14.0452 133.502 13.4299L134.583 10.9421L132.143 4.96599C131.919 4.39887 132.186 3.73546 132.775 3.50005L132.769 3.4947Z" fill="#231F20"/>
<path d="M58.7501 15.2398C59.0978 15.2398 59.269 15.3735 59.269 15.6464C59.269 15.9513 59.0818 16.1065 58.7019 16.1065C58.5789 16.1065 58.4719 16.1065 58.3916 16.0958V15.2558C58.4986 15.2451 58.6163 15.2398 58.7501 15.2398ZM59.5633 17.6259C59.7506 17.4708 59.8469 17.2675 59.8469 17.0107C59.8469 16.7913 59.7934 16.6148 59.6864 16.4864C59.5793 16.358 59.4135 16.267 59.1781 16.2082C59.3011 16.1814 59.4135 16.1119 59.5151 15.9995C59.6168 15.8871 59.665 15.7641 59.665 15.6303C59.665 15.4003 59.5847 15.2184 59.4295 15.0953C59.2744 14.9723 59.0497 14.9081 58.7608 14.9081C58.6056 14.9081 58.3488 14.9188 57.9904 14.9348V17.856H58.825C59.1299 17.856 59.376 17.7811 59.5633 17.6259ZM59.2637 16.5292C59.3707 16.6201 59.4295 16.7592 59.4295 16.9518C59.4295 17.1551 59.3707 17.3049 59.2583 17.4012C59.1406 17.4975 58.9587 17.5403 58.7126 17.5403C58.6377 17.5403 58.5361 17.535 58.397 17.5189V16.4061L58.718 16.3954C58.9748 16.3954 59.1567 16.4382 59.269 16.5292H59.2637Z" fill="#231F20"/>
<path d="M65.6999 17.8565H63.9825V14.9353H64.3784V17.498H65.6999V17.8565Z" fill="#231F20"/>
<path d="M69.7285 16.9684V14.9353H70.1245V16.9363C70.1245 17.1128 70.1833 17.2626 70.2957 17.375C70.408 17.4873 70.5578 17.5462 70.7451 17.5462C70.943 17.5462 71.0982 17.4927 71.2105 17.3803C71.3229 17.268 71.3817 17.1182 71.3817 16.9256V14.9353H71.7777V16.9684C71.7777 17.2626 71.6867 17.4927 71.4995 17.6585C71.3175 17.8244 71.0661 17.9047 70.7451 17.9047C70.4241 17.9047 70.1673 17.8244 69.9907 17.6585C69.8142 17.498 69.7285 17.2626 69.7285 16.9577V16.9684Z" fill="#231F20"/>
<path d="M78.4814 15.2938H77.1331V16.107H78.1015V16.4441H77.1331V17.498H78.46V17.8565H76.7372V14.9353H78.4814V15.2938Z" fill="#231F20"/>
<path d="M88.1277 15.2709C88.6574 15.2709 88.9195 15.4474 88.9195 15.8059C88.9195 16.1965 88.6734 16.3891 88.1759 16.3891C88.1652 16.3891 88.0742 16.3837 87.9084 16.3677V15.2869C87.9993 15.2762 88.0742 15.2655 88.1277 15.2655V15.2709ZM88.2026 16.7475C88.9516 16.7475 89.3262 16.4212 89.3262 15.7631C89.3262 15.196 88.9035 14.9124 88.0528 14.9124C87.9886 14.9124 87.8067 14.9178 87.5071 14.9338V17.855H87.9084V16.7315C88.0582 16.7422 88.1598 16.7529 88.2026 16.7529V16.7475Z" fill="#231F20"/>
<path d="M93.938 15.5442C94.0664 15.3409 94.2536 15.2393 94.5051 15.2393C95.0615 15.2393 95.345 15.6138 95.345 16.3682C95.345 16.7427 95.2755 17.0316 95.131 17.2349C94.9866 17.4382 94.7833 17.5452 94.5104 17.5452C94.2697 17.5452 94.0824 17.4328 93.9487 17.2081C93.8149 16.9834 93.7507 16.7052 93.7507 16.3682C93.7507 16.0311 93.8149 15.7422 93.9433 15.5442H93.938ZM93.6383 17.4756C93.847 17.7646 94.1359 17.909 94.5051 17.909C94.9117 17.909 95.222 17.7753 95.436 17.5024C95.6553 17.2295 95.7624 16.855 95.7624 16.3735C95.7624 15.892 95.6553 15.5389 95.436 15.2767C95.222 15.0146 94.9117 14.8808 94.5051 14.8808C94.1466 14.8808 93.8577 15.0253 93.6437 15.3088C93.4297 15.5924 93.3227 15.9455 93.3227 16.3682C93.3227 16.8176 93.4297 17.1867 93.633 17.4756H93.6383Z" fill="#231F20"/>
<path d="M103.055 14.9353L102.145 17.8993H102.022L101.327 15.8823L100.674 17.8993H100.545L99.6252 14.9353H100.043L100.626 16.9737L101.268 14.9353H101.412L102.044 16.9737L102.643 14.9353H103.055Z" fill="#231F20"/>
<path d="M108.806 15.2938H107.458V16.107H108.426V16.4441H107.458V17.498H108.785V17.8565H107.057V14.9353H108.806V15.2938Z" fill="#231F20"/>
<path d="M113.578 15.2718C113.83 15.2718 114.017 15.3092 114.135 15.3788C114.253 15.4483 114.311 15.566 114.311 15.7319C114.311 15.9298 114.258 16.069 114.146 16.1439C114.039 16.2188 113.862 16.2616 113.621 16.2616C113.53 16.2616 113.439 16.2562 113.343 16.2402V15.2878C113.461 15.2771 113.541 15.2664 113.578 15.2664V15.2718ZM114.156 16.513C114.311 16.4756 114.445 16.3846 114.558 16.2402C114.67 16.0957 114.729 15.9298 114.729 15.7426C114.729 15.1862 114.376 14.9026 113.675 14.9026C113.589 14.9026 113.445 14.9026 113.252 14.9187C113.059 14.9294 112.958 14.9347 112.942 14.9347V17.8559H113.343V16.5826C113.536 16.5986 113.675 16.604 113.766 16.604L114.547 17.8613H115.002L114.156 16.5184V16.513Z" fill="#231F20"/>
</svg>
