<svg width="100" height="28" viewBox="0 0 100 28" fill="none" xmlns="http://www.w3.org/2000/svg">
<path d="M33.5833 6.88361H37.95V9.73361C39.0333 7.58361 41.4333 6.06694 43.9167 6.61694V10.5169C43.3167 10.2836 42.7333 10.1836 42.1833 10.1836C40.3167 10.1836 38.9 11.2669 37.9333 12.8169V23.1003H33.5833V6.88361ZM51.3333 4.16694V0.516939H46.9667V4.16694H51.3333ZM51.3333 23.0836V6.88361H46.9667V23.0836H51.3333ZM54.15 22.5669C56.1333 23.1503 58.0833 23.4503 59.9833 23.4503C63.0833 23.4503 66.8667 22.0003 66.8667 18.3169C66.8667 17.2669 66.55 16.3669 65.9167 15.6003C65.2667 14.8503 63.9 14.0836 61.8 13.2836C60.9 12.9336 59.65 12.6169 58.9667 11.9169C58.2833 11.2503 58.4167 10.2336 59.2 9.70027C59.65 9.40027 60.3333 9.23361 61.2333 9.23361C62.3833 9.23361 63.8333 9.53361 65.5833 10.1503V7.08361C62.6667 6.46694 58.35 5.80027 55.8667 7.88361C54.0333 9.40027 53.5333 12.4503 55.3167 14.2169C57.1833 16.1169 59.9167 16.1503 61.8333 17.7336C62.5833 18.4003 62.55 19.5503 61.7333 20.1503C61.1667 20.5669 60.35 20.7336 59.6833 20.7336C58.15 20.7336 56.3 20.2836 54.15 19.3836V22.5669ZM72.9 13.4003C73.0333 12.0503 73.3833 11.0169 73.9167 10.3169C74.9333 9.00027 76.85 8.86694 77.9 10.2169C78.4 10.8503 78.6333 11.9169 78.6333 13.4003H72.9ZM82.9333 19.4836C79.1 20.9003 73.45 21.4669 72.95 15.8669H82.9333C82.9333 12.2836 82.3167 9.83361 81.0833 8.50027C78.8333 6.11694 74.5833 5.90027 71.8833 7.63361C69.45 9.21694 68.35 12.0503 68.35 14.8669C68.35 19.9836 71.8167 23.4503 77.05 23.4503C78.9 23.4503 80.85 23.1503 82.9167 22.5336V19.4836H82.9333ZM89.8167 12.9003C90.5667 11.7336 91.25 10.9169 91.9167 10.5669C92.6167 10.2169 93.5167 9.98361 94.2667 10.1503C95.6 10.4336 95.6333 11.5836 95.6333 12.7169V23.0836H100V11.6503C100 8.76694 98.3667 6.5336 95.3333 6.5336C92.9167 6.5336 91.05 7.9836 89.8167 9.95027V6.90027H85.45V23.1003H89.8167V12.9003Z" fill="#004097"/>
<path fill-rule="evenodd" clip-rule="evenodd" d="M20.95 9.38428H27.0167C27.5 10.7843 27.75 12.3009 27.75 13.8676C27.75 15.3176 27.5167 16.7176 27.1167 18.0343H20.95C20.35 18.0343 19.8667 17.5509 19.8667 16.9509V10.4676C19.8667 9.86761 20.35 9.38428 20.95 9.38428Z" fill="#E7664E"/>
<path fill-rule="evenodd" clip-rule="evenodd" d="M11.9834 11.5171H18.4667C19.0667 11.5171 19.55 12.0004 19.55 12.6004V19.0838C19.55 19.6838 19.0667 20.1671 18.4667 20.1671H11.9834C11.4 20.1671 10.9 19.6838 10.9 19.0838V12.6004C10.9 12.0004 11.4 11.5171 11.9834 11.5171Z" fill="#008BD5"/>
<path fill-rule="evenodd" clip-rule="evenodd" d="M1.4667 17.5337H7.95003C8.55003 17.5337 9.03337 18.017 9.03337 18.617V25.1004C9.03337 25.7004 8.55003 26.1837 7.95003 26.1837H7.48337C4.2167 24.4837 1.7167 21.5337 0.616699 17.9504C0.816699 17.7004 1.13337 17.5337 1.4667 17.5337Z" fill="#6CB964"/>
<path fill-rule="evenodd" clip-rule="evenodd" d="M17.9667 20.1669L11.9834 20.1671C11.4 20.1671 10.9 19.6838 10.9 19.0838V15.5669H16.8667C17.4667 15.5669 17.95 16.0502 17.95 16.6502V20.1669H17.9667Z" fill="#80B934"/>
<path fill-rule="evenodd" clip-rule="evenodd" d="M14.55 6.08447H21.0333C21.6333 6.08447 22.1167 6.56781 22.1167 7.16781V13.6511C22.1167 14.2511 21.6333 14.7345 21.0333 14.7345H14.55C13.95 14.7345 13.4667 14.2511 13.4667 13.6511V7.16781C13.4667 6.56781 13.95 6.08447 14.55 6.08447Z" fill="#D70C18"/>
<path fill-rule="evenodd" clip-rule="evenodd" d="M12.5167 0.0678711V5.9012C12.5167 6.5012 12.0333 6.98454 11.4333 6.98454H4.95C4.36667 6.98454 3.86667 6.5012 3.86667 5.9012V4.28454C6.1 1.93454 9.13334 0.384538 12.5167 0.0678711Z" fill="#E50012"/>
<path fill-rule="evenodd" clip-rule="evenodd" d="M4.76668 4.53369H11.25C11.85 4.53369 12.3333 5.01702 12.3333 5.61702V12.1004C12.3333 12.7004 11.85 13.1837 11.25 13.1837H4.76668C4.16668 13.1837 3.68335 12.7004 3.68335 12.1004V5.61702C3.68335 5.01702 4.16668 4.53369 4.76668 4.53369Z" fill="#D7000F"/>
<path fill-rule="evenodd" clip-rule="evenodd" d="M12.4667 6.18408H18.95C19.55 6.18408 20.0334 6.66742 20.0334 7.26742V13.7507C20.0334 14.3507 19.55 14.8341 18.95 14.8341H12.4667C11.8667 14.8341 11.3834 14.3507 11.3834 13.7507V7.26742C11.3834 6.66742 11.8667 6.18408 12.4667 6.18408Z" fill="#EF8200"/>
<path fill-rule="evenodd" clip-rule="evenodd" d="M20.0334 9.88428L20.0334 13.7507C20.0334 13.9674 19.9667 14.1509 19.8667 14.3176V10.4509C19.8667 10.2509 19.9334 10.0509 20.0334 9.88428Z" fill="#E53918"/>
<path fill-rule="evenodd" clip-rule="evenodd" d="M5.86669 11.7007H12.35C12.9334 11.7007 13.4334 12.184 13.4334 12.784V19.2674C13.4334 19.8674 12.95 20.3507 12.35 20.3507H5.86669C5.26669 20.3507 4.78336 19.8674 4.78336 19.2674V12.784C4.78336 12.184 5.26669 11.7007 5.86669 11.7007Z" fill="#FFC600"/>
<path fill-rule="evenodd" clip-rule="evenodd" d="M15.9 13.0171H22.3833C22.9833 13.0171 23.4667 13.5004 23.4667 14.1004V20.5838C23.4667 21.1838 22.9833 21.6671 22.3833 21.6671H15.9C15.3 21.6671 14.8167 21.1838 14.8167 20.5838V14.1004C14.8167 13.5004 15.3 13.0171 15.9 13.0171Z" fill="#F9BE00"/>
<path fill-rule="evenodd" clip-rule="evenodd" d="M14.55 3.25049H21.0333C21.6333 3.25049 22.1167 3.73382 22.1167 4.33382V10.8172C22.1167 11.4172 21.6333 11.9005 21.0333 11.9005H14.55C13.95 11.9005 13.4667 11.4172 13.4667 10.8172V4.33382C13.4667 3.73382 13.95 3.25049 14.55 3.25049Z" fill="#E50012"/>
<path fill-rule="evenodd" clip-rule="evenodd" d="M21.2833 11.8676C21.2 11.8843 21.1167 11.9009 21.0167 11.9009H19.85V10.4676C19.85 9.86761 20.3333 9.38428 20.9333 9.38428H21.2833V11.8676Z" fill="#D70C18"/>
<path fill-rule="evenodd" clip-rule="evenodd" d="M22.3667 5.39975H24.85C26.6667 7.74975 27.75 10.6831 27.75 13.8664C27.75 13.9164 27.75 13.9831 27.75 14.0497H22.3667C21.7667 14.0497 21.2834 13.5664 21.2834 12.9664V6.48308C21.2834 5.88308 21.7834 5.39975 22.3667 5.39975Z" fill="#EF8200"/>
<path fill-rule="evenodd" clip-rule="evenodd" d="M25.9833 7.10069V7.26735C25.9833 7.86735 25.5 8.35069 24.9 8.35069H18.4167C17.8167 8.35069 17.3333 7.86735 17.3333 7.26735V0.784017C17.3333 0.66735 17.35 0.56735 17.3833 0.450684C21.0833 1.40068 24.1667 3.85069 25.9833 7.10069Z" fill="#FFC600"/>
<path fill-rule="evenodd" clip-rule="evenodd" d="M10.4 15.5669H13.4333L13.4334 19.2674C13.4334 19.8674 12.95 20.3507 12.35 20.3507L9.31668 20.3502V16.6502C9.31668 16.0502 9.80001 15.5669 10.4 15.5669Z" fill="#CCD700"/>
<path fill-rule="evenodd" clip-rule="evenodd" d="M16.8 15.5669H14.8V20.3502H17.8667V16.6502C17.8834 16.0502 17.4 15.5669 16.8 15.5669Z" fill="#DDD200"/>
<path fill-rule="evenodd" clip-rule="evenodd" d="M6.78335 1.95068C7.03335 2.15068 7.18335 2.45068 7.18335 2.78402V9.26735C7.18335 9.86735 6.70001 10.3507 6.10001 10.3507H0.450012C1.38335 6.78402 3.70001 3.78402 6.78335 1.95068Z" fill="#FFC600"/>
<path fill-rule="evenodd" clip-rule="evenodd" d="M19.1333 1.03382V5.95048C19.1333 6.55048 18.65 7.03382 18.05 7.03382H11.5667C10.9667 7.03382 10.4833 6.55048 10.4833 5.95048V0.417155C11.5667 0.150488 12.7 0.000488281 13.8833 0.000488281C15.7333 0.000488281 17.5167 0.367154 19.1333 1.03382Z" fill="#EF8200"/>
<path fill-rule="evenodd" clip-rule="evenodd" d="M26.5167 12.2173H27.65C27.7167 12.7506 27.75 13.3006 27.75 13.8506C27.75 16.334 27.1 18.6673 25.95 20.7006C25.65 20.5173 25.45 20.1673 25.45 19.784V13.3006C25.4333 12.7173 25.9167 12.2173 26.5167 12.2173Z" fill="#004097"/>
<path fill-rule="evenodd" clip-rule="evenodd" d="M18.35 16.1H24.8334C25.4334 16.1 25.9167 16.5833 25.9167 17.1833V20.7667C25.0334 22.3 23.8667 23.65 22.4834 24.75H18.35C17.75 24.75 17.2667 24.2667 17.2667 23.6667V17.1833C17.2667 16.5833 17.7667 16.1 18.35 16.1Z" fill="#009844"/>
<path fill-rule="evenodd" clip-rule="evenodd" d="M25.75 16.6001C25.85 16.7668 25.9167 16.9667 25.9167 17.1833V20.7667C25.1 22.2 24.0167 23.4834 22.75 24.5334C22.7167 24.4168 22.7 24.3001 22.7 24.1668V17.6834C22.7 17.0834 23.1833 16.6001 23.7833 16.6001H25.75Z" fill="#006991"/>
<path fill-rule="evenodd" clip-rule="evenodd" d="M8.40001 19.2837H14.8833C15.4833 19.2837 15.9667 19.767 15.9667 20.367V26.8504C15.9667 27.1504 15.8333 27.417 15.65 27.617C15.0667 27.6837 14.4833 27.7337 13.8833 27.7337C11.5167 27.7337 9.28335 27.1337 7.31668 26.0837V20.367C7.31668 19.7837 7.81668 19.2837 8.40001 19.2837Z" fill="#3AB7E7"/>
<path fill-rule="evenodd" clip-rule="evenodd" d="M9.31668 19.2837H14.8833C15.4833 19.2837 15.9667 19.767 15.9667 20.367L15.9667 24.217H10.4C9.80001 24.217 9.31668 23.7337 9.31668 23.1337V19.2837Z" fill="#32AEC3"/>
<path fill-rule="evenodd" clip-rule="evenodd" d="M0.6 9.83447H4.66667C5.26667 9.83447 5.75 10.3178 5.75 10.9178V17.4011C5.75 18.0011 5.26667 18.4845 4.66667 18.4845H0.783333C0.283333 17.0345 0 15.4845 0 13.8678C0 12.4678 0.216666 11.1178 0.6 9.83447Z" fill="#F2981D"/>
<path fill-rule="evenodd" clip-rule="evenodd" d="M5.75002 13.1845L4.76668 13.1837C4.16668 13.1837 3.68335 12.7004 3.68335 12.1004V9.83447H4.66667C5.26667 9.83447 5.75 10.3178 5.75 10.9178L5.75002 13.1845Z" fill="#EA6112"/>
<path fill-rule="evenodd" clip-rule="evenodd" d="M5.60001 10.3511L0.450012 10.3507L0.466679 10.2844V10.2677L0.500012 10.1511L0.516679 10.0844L0.550012 9.9844L0.583346 9.85106H4.65001C5.05001 9.8344 5.40001 10.0344 5.60001 10.3511Z" fill="#EF8208"/>
<path fill-rule="evenodd" clip-rule="evenodd" d="M4.78336 17.534V12.784C4.78336 12.234 5.21669 11.7674 5.75002 11.7007L5.75 17.4011C5.75 17.4511 5.75002 17.484 5.75002 17.534H4.78336Z" fill="#F08C00"/>
<path fill-rule="evenodd" clip-rule="evenodd" d="M4.78336 17.534H5.75002C5.68336 18.034 5.28336 18.4337 4.78336 18.4837V17.534Z" fill="#32A138"/>
<path fill-rule="evenodd" clip-rule="evenodd" d="M9.03336 20.3504L5.86669 20.3507C5.26669 20.3507 4.78336 19.8674 4.78336 19.2674V17.534L7.95003 17.5337C8.55003 17.5337 9.03337 18.017 9.03337 18.617L9.03336 20.3504Z" fill="#56B032"/>
<path fill-rule="evenodd" clip-rule="evenodd" d="M1.4667 17.5337H5.73337C5.6667 18.067 5.21667 18.4845 4.66667 18.4845H0.783333C0.733333 18.3178 0.666699 18.1337 0.616699 17.9504C0.816699 17.7004 1.13337 17.5337 1.4667 17.5337Z" fill="#55A83D"/>
<path fill-rule="evenodd" clip-rule="evenodd" d="M8.40001 19.2837H9.03335L9.03337 25.1004C9.03337 25.7004 8.55003 26.1837 7.95003 26.1837H7.48337C7.43337 26.1504 7.36668 26.117 7.31668 26.1004V20.3837C7.31668 19.7837 7.81668 19.2837 8.40001 19.2837Z" fill="#22A76F"/>
<path fill-rule="evenodd" clip-rule="evenodd" d="M13.4333 19.2837C13.4167 19.867 12.9334 20.3507 12.35 20.3507L7.31668 20.3504C7.33335 19.767 7.81668 19.2837 8.40001 19.2837H13.4333Z" fill="#5BA99C"/>
<path fill-rule="evenodd" clip-rule="evenodd" d="M8.40001 19.2837H9.03335L9.03336 20.3504H7.31668C7.33335 19.767 7.81668 19.2837 8.40001 19.2837Z" fill="#009E55"/>
<path fill-rule="evenodd" clip-rule="evenodd" d="M10.9333 19.2837H14.9C15.4167 19.2837 15.8667 19.667 15.9667 20.167L11.9834 20.1671C11.4667 20.1671 11.0333 19.7837 10.9333 19.2837Z" fill="#00A3C3"/>
<path fill-rule="evenodd" clip-rule="evenodd" d="M9.31668 19.2837H13.4333C13.4167 19.867 12.9334 20.3507 12.35 20.3507L9.31668 20.3502V19.2837Z" fill="#3CABA9"/>
<path fill-rule="evenodd" clip-rule="evenodd" d="M15.9667 21.667H15.8834C15.2834 21.667 14.8 21.1837 14.8 20.5837V19.2837H14.8833C15.4833 19.2837 15.9667 19.767 15.9667 20.367L15.9667 21.667Z" fill="#3CABA9"/>
<path fill-rule="evenodd" clip-rule="evenodd" d="M16.6334 19.2671H23.1167C23.7167 19.2671 24.2 19.7504 24.2 20.3504V23.1338C22.0833 25.5004 19.1667 27.1171 15.8667 27.6004C15.6667 27.4004 15.55 27.1338 15.55 26.8338V20.3504C15.55 19.7504 16.0334 19.2671 16.6334 19.2671Z" fill="#004097"/>
<path fill-rule="evenodd" clip-rule="evenodd" d="M22.7 19.2671H23.1167C23.7167 19.2671 24.2 19.7504 24.2 20.3504V23.1338L23.1 24.2338L23.0333 24.2838L22.9833 24.3338L22.9167 24.3838L22.8667 24.4338L22.8167 24.4671L22.7833 24.4838C22.75 24.3671 22.7333 24.2504 22.7333 24.1338V19.2671H22.7Z" fill="#003993"/>
<path fill-rule="evenodd" clip-rule="evenodd" d="M19.8667 16.1H24.8334C25.2167 16.1 25.5667 16.3001 25.75 16.6001L23.7667 16.6C23.1834 16.6 22.6834 17.0833 22.6834 17.6833V18.0333H20.9334C20.3334 18.0333 19.85 17.55 19.85 16.95V16.1H19.8667Z" fill="#B94726"/>
<path fill-rule="evenodd" clip-rule="evenodd" d="M19.8667 13.0171H22.3833C22.9833 13.0171 23.4667 13.5004 23.4667 14.1004L23.4667 16.1004L19.8667 16.1L19.8667 13.0171Z" fill="#E53918"/>
<path fill-rule="evenodd" clip-rule="evenodd" d="M27.0167 9.38428L27.0334 9.43428V9.46761L27.0667 9.55094L27.1 9.68428L27.1167 9.73428L27.1334 9.81761L27.15 9.86761L27.1667 9.95094L27.1834 10.0176L27.2 10.1009L27.2167 10.1509V10.1676L27.2334 10.2343L27.25 10.2843L27.2667 10.3676L27.2834 10.4176L27.3 10.5176L27.3167 10.5676L27.3334 10.6676L27.35 10.7176L27.4167 10.9843V11.0009L27.4334 11.0676L27.45 11.1176L27.4667 11.2009L27.4834 11.2509L27.5 11.3176V11.3843L27.5167 11.4843L27.5334 11.5343L27.55 11.6343V11.6676L27.5667 11.7676L27.5834 11.8176L27.6 11.9176V11.9676L27.6167 12.0676V12.1009L27.6334 12.2009V12.2509L27.65 12.3676V12.4009C27.65 12.4343 27.65 12.4843 27.6667 12.5176V12.5509C27.6667 12.5843 27.6667 12.6176 27.6834 12.6676V12.7176C27.6834 12.7509 27.6834 12.8009 27.7 12.8343V13.0176C27.7 13.0676 27.7 13.1009 27.7 13.1343V13.1676C27.7 13.2176 27.7 13.2509 27.7 13.3009V13.3176C27.7 13.3676 27.7 13.4009 27.7 13.4509V13.4676C27.7 13.5009 27.7 13.5509 27.7 13.6009V13.7676C27.7 13.8176 27.7 13.8676 27.7 13.9009V14.0509H22.3167C21.7167 14.0509 21.2334 13.5676 21.2334 12.9676V9.38428H27.0167Z" fill="#E50012"/>
<path fill-rule="evenodd" clip-rule="evenodd" d="M26.5167 12.2173H27.65C27.7 12.6506 27.7334 13.1006 27.75 13.5506L27.75 13.8506L27.75 14.884L27.7334 14.9673V15.1006L27.7167 15.1673V15.334L27.7 15.4173V15.6673L27.6834 15.7506V15.784L27.6667 15.8506L27.65 15.934V16.0173L27.6334 16.084V16.184L27.6167 16.2673V16.3673L27.6 16.434V16.4506L27.5834 16.5006V16.5173L27.5667 16.584L27.55 16.634V16.6506C27.5334 16.7173 27.5334 16.7673 27.5 16.834L27.45 17.034C27.4334 17.084 27.4334 17.1173 27.4167 17.1673L27.4 17.234L27.3834 17.284V17.3006L27.3667 17.3673L27.35 17.4173V17.434C27.3334 17.5006 27.3167 17.5506 27.3 17.6173L27.2834 17.684V17.7006L27.2667 17.734L27.25 17.8006V17.8173L27.2167 17.9006V17.934L27.1334 17.984L27.1167 18.0173L27.1167 18.0343L25.4334 18.034V13.3173C25.4334 12.7173 25.9167 12.2173 26.5167 12.2173Z" fill="#B82632"/>
<path fill-rule="evenodd" clip-rule="evenodd" d="M23.7833 16.6001H27.4833C27.3833 17.0834 27.2667 17.5676 27.1167 18.0343L22.7 18.0334V17.6834C22.7 17.0834 23.1833 16.6001 23.7833 16.6001Z" fill="#374887"/>
<path fill-rule="evenodd" clip-rule="evenodd" d="M9.18334 23.1343H15.6667C16.2667 23.1343 16.75 23.6176 16.75 24.2176V27.4343C15.8167 27.6343 14.8667 27.7343 13.8667 27.7343C11.8167 27.7343 9.85001 27.2843 8.10001 26.4843V24.2176C8.11667 23.6343 8.60001 23.1343 9.18334 23.1343Z" fill="#004097"/>
</svg>
