<svg width="70" height="50" viewBox="0 0 70 50" fill="none" xmlns="http://www.w3.org/2000/svg">
<path d="M29.7052 46.0999C29.8721 46.1254 30.0351 46.1721 30.1902 46.2388C30.3247 46.3053 30.4475 46.3931 30.5539 46.4989C30.6602 46.608 30.7428 46.7378 30.7964 46.8803C30.8532 47.0477 30.8824 47.2233 30.883 47.4C30.8818 47.5459 30.8644 47.6912 30.8312 47.8332C30.7943 47.991 30.7234 48.1389 30.6234 48.2664C30.5303 48.4177 30.4064 48.5477 30.2596 48.6478C30.0884 48.78 29.8946 48.8799 29.6876 48.9426C29.5017 49.0031 29.3099 49.0437 29.1155 49.0639C28.9077 49.081 28.6476 49.0986 28.3527 49.0986H26.863V43.2578H28.6652C28.7694 43.2578 28.873 43.2748 28.9601 43.2748C29.0477 43.2779 29.1348 43.2895 29.2202 43.3096C29.2896 43.3266 29.3762 43.3443 29.4456 43.3614C29.6201 43.4125 29.7886 43.4822 29.9482 43.5691C30.231 43.728 30.4511 43.9786 30.5721 44.2795C30.6274 44.4353 30.6567 44.5992 30.6586 44.7645C30.6585 44.9048 30.6411 45.0446 30.6068 45.1806C30.5761 45.3099 30.5234 45.433 30.4509 45.5444C30.3708 45.6593 30.2709 45.7591 30.156 45.8392C30.0213 45.9316 29.8758 46.0073 29.7228 46.0646V46.0994L29.7052 46.0999ZM28.6652 45.8051C28.7867 45.8089 28.9083 45.8032 29.029 45.788C29.1331 45.7709 29.2197 45.7533 29.3045 45.7362C29.5024 45.6819 29.6745 45.559 29.7901 45.3895C29.8981 45.2253 29.9526 45.0316 29.946 44.8351C29.9555 44.649 29.9004 44.4654 29.7901 44.3154C29.663 44.1653 29.4939 44.0567 29.3045 44.0034C29.1797 43.9688 29.0521 43.9456 28.9231 43.934C28.7504 43.9184 28.5769 43.9127 28.4034 43.9169H27.606V45.8062L28.6652 45.8051ZM27.5905 48.4736H28.4569C28.648 48.4718 28.839 48.4602 29.029 48.4389C29.1815 48.4234 29.3323 48.3944 29.4798 48.3524C29.6019 48.3088 29.7182 48.2507 29.8264 48.1793C29.914 48.1178 29.9903 48.0415 30.0519 47.9539C30.1063 47.8745 30.1472 47.7866 30.1731 47.6938C30.1931 47.6032 30.2047 47.5109 30.2078 47.4182C30.2048 47.3135 30.1932 47.2091 30.1731 47.1063C30.1468 47.0137 30.1059 46.9258 30.0519 46.8461C29.9826 46.7644 29.9008 46.6942 29.8094 46.6384C29.6936 46.5789 29.5716 46.5323 29.4456 46.4995C29.3591 46.4824 29.2549 46.4648 29.1508 46.4477C29.0466 46.4477 28.9083 46.4306 28.7347 46.4306H27.5905V48.4736Z" fill="black"/>
<path d="M32.8941 48.4923H35.8922V49.1349H32.1836V43.2929H35.7368V43.9345H32.8946V45.8237H35.4078V46.4652H32.8946L32.8941 48.4923Z" fill="black"/>
<path d="M37.8161 46.7072V49.1321H37.1057V43.2929H38.6136C38.8737 43.2929 39.0815 43.31 39.2722 43.3277C39.4357 43.3451 39.5978 43.374 39.7572 43.4142C40.1235 43.4978 40.4524 43.6986 40.6941 43.9863C40.9159 44.2738 41.0326 44.6285 41.0248 44.9915C41.0315 45.2115 40.9901 45.4302 40.9036 45.6325C40.8308 45.8124 40.725 45.977 40.5916 46.118C40.4516 46.2573 40.2869 46.3694 40.1061 46.4487C39.9026 46.543 39.6865 46.6072 39.4646 46.6394V46.6565L41.1979 49.152H40.4874L38.6853 46.727H37.8189L37.8161 46.7072ZM37.8161 46.0662H38.5265C38.7115 46.0704 38.8966 46.0646 39.081 46.0491C39.2231 46.0406 39.3633 46.0114 39.4971 45.9626C39.7215 45.9051 39.9218 45.7777 40.0692 45.5989C40.2145 45.411 40.2881 45.1775 40.2769 44.9403C40.2829 44.7226 40.2157 44.5091 40.0862 44.334C39.952 44.1719 39.7702 44.0562 39.5665 44.0033C39.4421 43.9672 39.3143 43.9439 39.1851 43.9339C39.0008 43.9181 38.8157 43.9124 38.6307 43.9168H37.8161V46.0662Z" fill="black"/>
<path d="M43.1197 43.2929V48.4923H45.9795V49.1349H42.4093V43.2929H43.1197Z" fill="black"/>
<path d="M47.0536 49.1349V43.2929H47.764V49.1349H47.0536Z" fill="black"/>
<path d="M52.253 46.5505C52.6168 47.0702 52.9634 47.5905 53.3101 48.1449H53.3448C53.3101 47.5729 53.293 47.0014 53.293 46.4116V43.3093H54.0034V49.1513H53.293L51.0052 45.893C50.6068 45.321 50.2601 44.8012 49.9482 44.2986H49.9134C49.948 44.8358 49.9653 45.4604 49.9653 46.1725V49.1513H49.2549V43.3093H49.9653L52.253 46.5505Z" fill="black"/>
<path d="M45.9795 5.4947C45.9795 6.19744 45.7711 6.88441 45.3807 7.46871C44.9903 8.05302 44.4354 8.50844 43.7861 8.77736C43.1369 9.04629 42.4224 9.11666 41.7332 8.97956C41.044 8.84246 40.4109 8.50406 39.9139 8.00714C39.417 7.51023 39.0786 6.87712 38.9415 6.18788C38.8044 5.49864 38.8748 4.78423 39.1437 4.13498C39.4127 3.48573 39.8681 2.93081 40.4524 2.54038C41.0367 2.14996 41.7236 1.94157 42.4264 1.94157C43.3684 1.94274 44.2715 2.31746 44.9375 2.98355C45.6036 3.64964 45.9783 4.55271 45.9795 5.4947Z" fill="#EF4123"/>
<path d="M55.6507 3.55315C55.6507 4.25517 55.4427 4.94144 55.0531 5.52538C54.6634 6.10931 54.1095 6.56473 53.4612 6.83415C52.813 7.10357 52.0994 7.17493 51.4107 7.03921C50.7219 6.90349 50.0888 6.56678 49.5912 6.07157C49.0936 5.57636 48.7539 4.94486 48.6148 4.25675C48.4758 3.56864 48.5437 2.85476 48.8101 2.20522C49.0764 1.55569 49.5291 0.99959 50.1112 0.60712C50.6932 0.214651 51.3785 0.00339818 52.0805 2.25947e-05C52.5484 -0.00164488 53.012 0.0889969 53.4448 0.266757C53.8776 0.444518 54.2711 0.705906 54.6027 1.03595C54.9343 1.366 55.1976 1.75822 55.3774 2.19016C55.5573 2.6221 55.6502 3.08527 55.6507 3.55315Z" fill="#EF4123"/>
<path d="M64.4726 6.621C64.4726 7.25856 64.2836 7.8818 63.9293 8.41191C63.5751 8.94202 63.0717 9.35519 62.4827 9.59918C61.8936 9.84316 61.2455 9.907 60.6202 9.78261C59.9949 9.65823 59.4205 9.35122 58.9697 8.9004C58.5189 8.44958 58.2118 7.87519 58.0875 7.24989C57.9631 6.62458 58.0269 5.97643 58.2709 5.3874C58.5149 4.79837 58.928 4.29492 59.4581 3.94071C59.9883 3.5865 60.6115 3.39745 61.2491 3.39745C62.1036 3.39876 62.9228 3.7388 63.527 4.34305C64.1313 4.9473 64.4713 5.76646 64.4726 6.621Z" fill="#EF4123"/>
<path d="M69.1528 13.2758C69.1528 13.7934 68.9993 14.2993 68.7118 14.7296C68.4243 15.1599 68.0156 15.4953 67.5374 15.6934C67.0593 15.8914 66.5331 15.9433 66.0255 15.8423C65.5179 15.7413 65.0517 15.4921 64.6857 15.1262C64.3198 14.7602 64.0705 14.2939 63.9696 13.7863C63.8686 13.2787 63.9204 12.7526 64.1185 12.2744C64.3165 11.7963 64.6519 11.3876 65.0823 11.1001C65.5126 10.8125 66.0185 10.6591 66.536 10.6591C67.2293 10.6614 67.8936 10.9378 68.3838 11.4281C68.874 11.9183 69.1505 12.5825 69.1528 13.2758Z" fill="#EF4123"/>
<path d="M70.0005 20.2772C70.0005 20.6851 69.8795 21.0838 69.6529 21.4229C69.4263 21.7621 69.1042 22.0264 68.7273 22.1825C68.3505 22.3386 67.9358 22.3794 67.5358 22.2999C67.1357 22.2203 66.7683 22.0239 66.4798 21.7354C66.1914 21.447 65.995 21.0796 65.9154 20.6795C65.8358 20.2795 65.8767 19.8648 66.0328 19.4879C66.1889 19.1111 66.4532 18.789 66.7924 18.5624C67.1315 18.3358 67.5302 18.2148 67.9381 18.2148C68.2092 18.214 68.4777 18.2668 68.7283 18.3702C68.9789 18.4736 69.2065 18.6254 69.3982 18.8171C69.5899 19.0088 69.7417 19.2364 69.8451 19.487C69.9484 19.7376 70.0013 20.0061 70.0005 20.2772Z" fill="#EF4123"/>
<path d="M65.129 29.9654C65.129 30.2052 65.0579 30.4396 64.9247 30.639C64.7915 30.8384 64.6021 30.9938 64.3805 31.0856C64.159 31.1774 63.9152 31.2014 63.68 31.1546C63.4448 31.1078 63.2288 30.9923 63.0592 30.8228C62.8896 30.6532 62.7742 30.4372 62.7274 30.202C62.6806 29.9668 62.7046 29.723 62.7964 29.5014C62.8881 29.2799 63.0435 29.0905 63.2429 28.9573C63.4423 28.824 63.6767 28.7529 63.9166 28.7529C64.076 28.7521 64.2341 28.7828 64.3816 28.8434C64.5291 28.9041 64.6631 28.9933 64.7759 29.1061C64.8886 29.2189 64.9779 29.3529 65.0385 29.5004C65.0991 29.6479 65.1299 29.806 65.129 29.9654Z" fill="#EF4123"/>
<path d="M62.186 32.5845C62.186 32.7698 62.1311 32.9509 62.0281 33.105C61.9252 33.2591 61.7788 33.3792 61.6076 33.4501C61.4364 33.521 61.2481 33.5396 61.0663 33.5034C60.8846 33.4673 60.7176 33.378 60.5866 33.247C60.4556 33.116 60.3663 32.949 60.3302 32.7673C60.294 32.5855 60.3126 32.3972 60.3835 32.226C60.4544 32.0548 60.5745 31.9084 60.7286 31.8055C60.8826 31.7025 61.0638 31.6476 61.2491 31.6476C61.3727 31.6455 61.4955 31.6683 61.6101 31.7146C61.7247 31.761 61.8288 31.8299 61.9162 31.9173C62.0037 32.0048 62.0726 32.1089 62.1189 32.2235C62.1653 32.3381 62.1881 32.4609 62.186 32.5845Z" fill="#EF4123"/>
<path d="M68.0936 25.8234C68.0936 26.1318 68.0021 26.4334 67.8307 26.6899C67.6593 26.9464 67.4157 27.1463 67.1308 27.2643C66.8458 27.3824 66.5322 27.4133 66.2296 27.3531C65.927 27.2929 65.6491 27.1444 65.431 26.9262C65.2129 26.7081 65.0643 26.4302 65.0042 26.1276C64.944 25.8251 64.9749 25.5115 65.0929 25.2265C65.211 24.9415 65.4109 24.6979 65.6674 24.5265C65.9239 24.3551 66.2254 24.2637 66.5339 24.2637C66.9463 24.2678 67.3406 24.4335 67.6322 24.7251C67.9238 25.0167 68.0894 25.411 68.0936 25.8234Z" fill="#EF4123"/>
<path d="M56.2217 11.1091C56.2217 11.517 56.1008 11.9157 55.8742 12.2548C55.6476 12.594 55.3255 12.8583 54.9486 13.0144C54.5718 13.1705 54.1571 13.2113 53.7571 13.1318C53.357 13.0522 52.9895 12.8558 52.7011 12.5673C52.4127 12.2789 52.2163 11.9115 52.1367 11.5114C52.0571 11.1114 52.098 10.6967 52.2541 10.3198C52.4102 9.94301 52.6745 9.62092 53.0136 9.3943C53.3528 9.16769 53.7515 9.04674 54.1594 9.04674C54.4305 9.04594 54.699 9.09874 54.9496 9.2021C55.2001 9.30545 55.4278 9.45733 55.6195 9.649C55.8111 9.84066 55.963 10.0683 56.0664 10.3189C56.1697 10.5695 56.2225 10.838 56.2217 11.1091Z" fill="black"/>
<path d="M61.4041 13.7954C61.4041 14.1691 61.2933 14.5344 61.0857 14.845C60.8781 15.1557 60.583 15.3979 60.2378 15.5409C59.8926 15.6839 59.5127 15.7213 59.1462 15.6484C58.7798 15.5755 58.4431 15.3956 58.1789 15.1313C57.9147 14.8671 57.7347 14.5305 57.6618 14.164C57.5889 13.7975 57.6264 13.4177 57.7694 13.0724C57.9123 12.7272 58.1545 12.4322 58.4652 12.2246C58.7759 12.017 59.1411 11.9062 59.5148 11.9062C60.0155 11.9073 60.4954 12.1067 60.8494 12.4608C61.2035 12.8149 61.4029 13.2947 61.4041 13.7954Z" fill="black"/>
<path d="M63.4663 18.1973C63.4663 18.5058 63.3749 18.8074 63.2035 19.0639C63.0321 19.3203 62.7885 19.5203 62.5035 19.6383C62.2185 19.7563 61.9049 19.7872 61.6024 19.7271C61.2998 19.6669 61.0219 19.5183 60.8038 19.3002C60.5856 19.0821 60.4371 18.8042 60.3769 18.5016C60.3167 18.1991 60.3476 17.8855 60.4657 17.6005C60.5837 17.3155 60.7836 17.0719 61.0401 16.9005C61.2966 16.7291 61.5982 16.6376 61.9066 16.6376C62.3199 16.6388 62.716 16.8035 63.0082 17.0957C63.3005 17.388 63.4652 17.784 63.4663 18.1973Z" fill="black"/>
<path d="M63.1186 22.3384C63.1186 22.5782 63.0475 22.8126 62.9143 23.012C62.781 23.2114 62.5917 23.3668 62.3701 23.4586C62.1486 23.5504 61.9048 23.5744 61.6696 23.5276C61.4344 23.4808 61.2183 23.3653 61.0487 23.1958C60.8792 23.0262 60.7637 22.8102 60.7169 22.575C60.6701 22.3398 60.6941 22.096 60.7859 21.8744C60.8777 21.6529 61.0331 21.4635 61.2325 21.3303C61.4319 21.197 61.6663 21.1259 61.9061 21.1259C62.0656 21.1251 62.2236 21.1558 62.3711 21.2164C62.5186 21.2771 62.6526 21.3663 62.7654 21.4791C62.8782 21.5919 62.9675 21.7259 63.0281 21.8734C63.0887 22.0209 63.1195 22.1789 63.1186 22.3384Z" fill="black"/>
<path d="M62.1861 25.8247C62.1861 26.01 62.1311 26.1911 62.0282 26.3452C61.9252 26.4993 61.7789 26.6194 61.6077 26.6903C61.4365 26.7612 61.2481 26.7798 61.0664 26.7436C60.8846 26.7075 60.7177 26.6182 60.5867 26.4872C60.4556 26.3562 60.3664 26.1892 60.3302 26.0075C60.2941 25.8257 60.3126 25.6374 60.3836 25.4662C60.4545 25.295 60.5746 25.1486 60.7286 25.0457C60.8827 24.9427 61.0639 24.8878 61.2492 24.8878C61.3724 24.8871 61.4945 24.9109 61.6085 24.9578C61.7224 25.0046 61.826 25.0736 61.9131 25.1607C62.0003 25.2479 62.0692 25.3514 62.1161 25.4654C62.1629 25.5793 62.1867 25.7015 62.1861 25.8247Z" fill="black"/>
<path d="M60.2577 28.5087C60.2577 28.6561 60.214 28.8002 60.1321 28.9227C60.0502 29.0452 59.9339 29.1408 59.7977 29.1971C59.6616 29.2535 59.5117 29.2683 59.3672 29.2395C59.2227 29.2108 59.0899 29.1398 58.9857 29.0356C58.8815 28.9314 58.8105 28.7986 58.7818 28.6541C58.753 28.5096 58.7678 28.3597 58.8242 28.2236C58.8806 28.0874 58.9761 27.9711 59.0986 27.8892C59.2211 27.8073 59.3652 27.7636 59.5126 27.7636C59.7088 27.768 59.8958 27.8479 60.0346 27.9867C60.1734 28.1255 60.2533 28.3125 60.2577 28.5087Z" fill="black"/>
<path d="M50.2255 11.421C50.2255 11.8906 50.0862 12.3496 49.8253 12.7401C49.5645 13.1305 49.1936 13.4348 48.7598 13.6145C48.326 13.7942 47.8486 13.8413 47.388 13.7496C46.9275 13.658 46.5044 13.4319 46.1724 13.0999C45.8403 12.7678 45.6142 12.3448 45.5226 11.8842C45.431 11.4236 45.478 10.9463 45.6577 10.5124C45.8374 10.0786 46.1417 9.70777 46.5321 9.44688C46.9226 9.18599 47.3816 9.04674 47.8512 9.04674C48.1633 9.0458 48.4724 9.10656 48.7609 9.22554C49.0494 9.34453 49.3115 9.51938 49.5322 9.74004C49.7528 9.9607 49.9277 10.2228 50.0467 10.5113C50.1657 10.7998 50.2264 11.1089 50.2255 11.421Z" fill="black"/>
<path d="M0 39.0289V18.0061H3.84743V27.5726H3.91687L11.8531 18.0061H16.6364L7.86847 28.4224L17.3661 39.0289H12.4263L3.91687 29.5313H3.84743V39.0289H0Z" fill="black"/>
<path d="M35.5809 23.6044C35.588 24.4792 35.3798 25.3423 34.9746 26.1175C34.4997 26.9334 33.7943 27.5906 32.947 28.0068V28.0763C33.4525 28.2414 33.9356 28.4683 34.3855 28.752C35.2366 29.2874 35.8834 30.093 36.2224 31.0397C36.4012 31.5581 36.4892 32.1034 36.4825 32.6517C36.4735 33.2087 36.3919 33.7621 36.24 34.298C36.067 34.9128 35.7788 35.4892 35.3907 35.9965C34.9337 36.5896 34.3835 37.1046 33.7616 37.5215C32.9728 38.0368 32.0982 38.4065 31.179 38.6133C30.9189 38.6827 30.6246 38.7346 30.3297 38.7864C30.0178 38.8382 29.6711 38.8905 29.3074 38.9252C28.926 38.96 28.5099 38.9947 28.0398 38.9947C27.5719 39.0118 27.0521 39.0118 26.4801 39.0118H20.3642V18.0066H27.6777C28.9535 17.9687 30.2276 18.1265 31.4557 18.4745C32.1158 18.6794 32.7411 18.9832 33.3102 19.3756C33.8081 19.7184 34.247 20.1398 34.6098 20.6233C34.9408 21.058 35.1984 21.5439 35.3725 22.0618C35.5025 22.566 35.5724 23.0838 35.5809 23.6044ZM27.6777 26.6549C28.4699 26.6913 29.2622 26.5856 30.0172 26.343C30.5288 26.1558 30.9624 25.8017 31.2479 25.3377C31.4955 24.8993 31.6211 24.4026 31.6116 23.8993C31.6198 23.3734 31.4753 22.8565 31.1955 22.4112C30.8468 21.9269 30.3367 21.5828 29.7571 21.4407C29.4348 21.3489 29.1038 21.2909 28.7695 21.2676C28.3881 21.2331 27.9202 21.2158 27.3657 21.2158H24.2116V26.6577H27.6777V26.6549ZM24.194 29.8785V35.8081H26.7071C27.3828 35.8081 27.9549 35.791 28.4404 35.7562C28.8596 35.7252 29.2764 35.6674 29.6882 35.5832C30.1523 35.489 30.6012 35.3315 31.0225 35.1153C31.3471 34.9474 31.6402 34.7246 31.8888 34.4567C32.1061 34.2253 32.2663 33.9464 32.3568 33.6421C32.4478 33.3324 32.4945 33.0114 32.4956 32.6887C32.5082 32.1349 32.3377 31.5925 32.0107 31.1455C31.6163 30.667 31.0837 30.322 30.4857 30.1579C30.1331 30.0622 29.7738 29.9927 29.411 29.9501C28.9949 29.9154 28.4741 29.8807 27.8336 29.8807L24.194 29.8785Z" fill="black"/>
<path d="M44.2639 35.8075H54.5932V39.0311H40.3989V18.0061H54.0382V21.2296H44.2639V26.6715H52.6521V29.895H44.2639V35.8075Z" fill="black"/>
</svg>
