<svg width="129" height="36" viewBox="0 0 129 36" fill="none" xmlns="http://www.w3.org/2000/svg">
<path fill-rule="evenodd" clip-rule="evenodd" d="M128.5 17.6222C128.313 41.0965 1.01859 41.4028 0 18.024V17.4698C1.13947 -5.86572 128.525 -5.83207 128.5 17.6222Z" fill="#CF4037"/>
<path fill-rule="evenodd" clip-rule="evenodd" d="M75.7004 24.0252L80.7926 13.0707H84.5716L79.4553 24.0252H75.7004ZM81.384 11.8365L82.7206 8.9689H86.5003L85.1561 11.8365H81.384ZM75.758 13.1216H63.807L58.7223 24.0252H62.4697L66.2171 15.9891H72.942L73.1034 16.0145L73.2387 16.0983L73.3218 16.2268L73.3726 16.3875L73.3218 16.5489L69.8382 24.0252H73.5849L77.4683 15.6931H77.4429L77.526 15.507L77.5768 15.3201L77.6022 15.1601L77.629 14.941L77.5768 14.568L77.4683 14.2473L77.2822 13.9252L77.0699 13.6559L76.7986 13.4437L76.4785 13.283L76.131 13.1477L75.758 13.1216ZM49.7473 15.963H49.6381V15.9891H49.5035L49.4774 16.0145H49.452V16.0406H49.3744L49.3428 16.0667H49.3167V16.099H49.2906L49.2645 16.1244H49.2391V16.1505H49.213V16.1766H49.1814V16.2027H49.1553V16.2343H49.1298V16.2604H49.1037V16.2865L49.079 16.3106V16.3621H49.0529V16.3875H49.0206V16.4198L47.092 20.5985H47.0666V20.7002H47.0405V20.8863H47.0666V20.9708H47.092V21.0216H47.1243V21.0539H47.1504V21.0793H47.1758V21.1047H47.2273V21.1315H47.3365V21.1569H47.388L47.4134 21.1823H53.6809L53.8993 21.1315L54.0854 21.0539L54.2461 20.8863L54.3814 20.7318L56.3355 16.5537L56.3616 16.4445V16.3607L56.3355 16.2L56.2517 16.0647L56.1233 15.9877L55.9632 15.9616H49.7473V15.963ZM60.4895 15.6931L57.5705 21.9358L57.3266 22.3919L57.0052 22.7902L56.6837 23.1378L56.2524 23.4331L55.8286 23.7031L55.3719 23.8638L54.8897 23.9991L54.356 24.0245H54.3814H44.5788L44.1997 23.9991L43.8528 23.8892L43.5314 23.7298L43.2931 23.4908L43.0492 23.247L42.8885 22.9262L42.7855 22.5787L42.7532 22.2057L42.7855 21.8259L42.9146 21.453L45.8399 15.2109L46.0775 14.7288L46.3729 14.3043L46.6943 13.9506L47.0927 13.6614L47.5233 13.4176L48.0055 13.2314L48.5392 13.1477L49.1305 13.0961H58.8246L59.2044 13.1477L59.5513 13.2575L59.8473 13.4176L60.1111 13.6614L60.3549 13.8997L60.5156 14.2212L60.6248 14.568L60.6509 14.9149V15.1333L60.5932 15.3194L60.4895 15.6931ZM33.1099 15.1601L28.9896 24.0252H32.7631L36.2728 16.4967L36.3566 16.3621L36.4336 16.2591L36.6197 16.066L36.8642 15.963L37.1602 15.9376H44.6558L45.9992 13.0707H36.4851L35.926 13.0961L35.4438 13.2053L34.9356 13.3922L34.4795 13.6298L34.0743 13.9252L33.7013 14.2988L33.3799 14.7033L33.1099 15.1601ZM24.0834 15.9376H31.9595L33.3029 13.0707H23.3382H23.3643L22.8561 13.0961L22.3416 13.2308L21.8594 13.3922L21.4096 13.6614L21.0043 13.9513L20.6321 14.3304L20.3099 14.7033L20.04 15.1601L17.2562 21.1583H15.9128L20.4967 11.2767L20.6321 11.0906L20.7667 10.9237L20.8951 10.7691L21.0881 10.6599L21.2488 10.5507L21.4611 10.4731L21.6733 10.4154H34.5049L35.8422 7.55469H20.7921L20.2845 7.58011L19.7701 7.70855L19.2879 7.87614L18.838 8.1392L18.4328 8.40981L18.0859 8.78277L17.7645 9.18732L17.4946 9.6372L10.802 24.0252H10.7704H19.667L23.229 16.4967L23.3643 16.2591L23.5505 16.066L23.8204 15.963L24.0834 15.9376ZM101.712 12.9869L97.6161 21.9097V21.9365L97.3709 22.3926L97.0502 22.7655L96.7026 23.1385L96.3043 23.4331L95.8482 23.7031L95.3921 23.8638L94.9093 23.9998L94.3763 24.0252H84.4885L84.1155 23.9998L83.768 23.8899L83.4727 23.7298L83.1766 23.4908L82.9644 23.2216L82.8037 22.8994L82.6945 22.5787L82.6436 22.1735L82.6945 21.8012L82.8037 21.4282L85.775 15.1024L86.7379 12.9869H90.486L87.0346 20.5669V20.5992H87.0092V20.65H86.9824V20.9193H87.0092V20.9447H87.0346V20.9976H87.06V21.023H87.0855V21.0484H87.1432V21.0807H87.1686V21.1061H87.2462L87.2716 21.1329H93.675L93.8934 21.1061L94.1057 21.023L94.2664 20.887L94.3763 20.7009L97.9115 12.9869H101.712ZM105.304 17.1142H113.661L114.034 17.1396L114.382 17.2495L114.677 17.4095L114.974 17.6478L115.186 17.9171L115.346 18.2392L115.481 18.5868L115.508 18.9597L115.481 19.1781V19.365L115.398 19.5511L115.321 19.7365L115.108 20.1686L114.304 21.9097L114.06 22.3671L113.74 22.7655L113.392 23.1385L112.962 23.4331L112.505 23.7031L112.055 23.8638L111.54 23.9998L111.007 24.0252H98.2844L99.6217 21.1329H110.415L110.608 21.1061L110.795 21.023L110.929 20.887L111.032 20.7009L111.412 19.924H103.105L102.701 19.8973L102.38 19.7633L102.058 19.6019L101.795 19.3904L101.551 19.0937L101.39 18.7983L101.287 18.4515L101.254 18.0785V17.8663L101.287 17.6478L101.364 17.461L101.447 17.2495L102.463 15.0763L102.701 14.5941L102.997 14.1697L103.319 13.8166L103.723 13.5268L104.179 13.3084L104.662 13.1477L105.195 13.0446L105.813 12.9869H118.451L117.088 15.8799H106.43L106.16 15.906L105.948 15.9891L105.813 16.1237L105.677 16.3106L105.304 17.1142Z" fill="white"/>
</svg>
