<svg width="58" height="30" viewBox="0 0 58 30" fill="none" xmlns="http://www.w3.org/2000/svg">
<path d="M8.0605 18.5798H19.6366V11.4484H8.0605V7.05479H19.2351L23.3724 0.0201447H3.08357C2.10938 0.0201447 1.35327 0.269944 0.811144 0.765512C0.269022 1.26309 0 1.95407 0 2.84045V27.1797C0 28.0661 0.27106 28.7591 0.811144 29.2546C1.35123 29.7522 2.10938 30 3.08357 30H21.3812V22.911H8.06254V18.5798H8.0605Z" fill="#CB007B"/>
<path d="M25.6306 0.0181298L21.5157 7.05479H30.3221L30.3079 29.9919L39.2121 29.998L39.2101 7.05479H45.8032L49.9262 0.0100731L25.6306 0.0181298Z" fill="#CB007B"/>
<path d="M56.238 0.745366C55.6979 0.247783 54.9398 0 53.9656 0H52.1823L48.0777 7.03868V29.9919H53.9656C54.9398 29.9919 55.6979 29.7442 56.238 29.2466C56.7802 28.749 57.0492 28.058 57.0492 27.1696V2.82232C57.0492 1.93594 56.7781 1.24295 56.238 0.745366Z" fill="#CB007B"/>
</svg>
