<svg width="120" height="28" viewBox="0 0 120 28" fill="none" xmlns="http://www.w3.org/2000/svg">
<path d="M34.0817 8.55155H37.1216V20.8623H34.0817V8.55155ZM38.3337 16.2315C38.3337 13.1823 40.2276 11.3546 43.0686 11.3546C45.9095 11.3546 47.8035 13.1823 47.8035 16.2315C47.8035 19.2808 45.9758 21.1274 43.0686 21.1274C40.1614 21.1274 38.3337 19.3471 38.3337 16.2315ZM44.7921 16.2315C44.7921 14.5554 44.1387 13.5705 43.097 13.5705C42.0553 13.5705 41.4114 14.5175 41.4114 16.2315C41.4114 17.9456 42.0553 18.8831 43.097 18.8831C44.1387 18.8831 44.811 17.9456 44.811 16.241L44.7921 16.2315ZM49.0156 21.4967H51.9512C52.0849 21.8128 52.3183 22.0765 52.6158 22.2474C52.9134 22.4184 53.2586 22.4874 53.599 22.4437C54.7638 22.4437 55.3698 21.8187 55.3698 20.8907V19.1861H55.3793C55.1284 19.7169 54.7228 20.1592 54.2158 20.4551C53.7086 20.7509 53.1239 20.8862 52.5384 20.8433C50.313 20.8433 48.8357 19.1482 48.8357 16.2315C48.8357 13.3149 50.2467 11.4967 52.6236 11.4967C53.2241 11.4646 53.8198 11.6194 54.3285 11.9399C54.8373 12.2605 55.2342 12.7309 55.4645 13.2864H55.3793V11.5724H58.3907V20.796C58.3907 23.0214 56.421 24.4134 53.5232 24.4134C50.8906 24.404 49.205 23.2013 49.0345 21.5062L49.0156 21.4967ZM55.3793 16.2315C55.3793 14.7448 54.6975 13.8073 53.6179 13.8073C52.5384 13.8073 51.8755 14.7543 51.8755 16.2315C51.8755 17.7088 52.5289 18.5801 53.6179 18.5801C54.7069 18.5801 55.3793 17.7751 55.3793 16.2315ZM59.5934 16.2315C59.5934 13.1823 61.4873 11.3546 64.3282 11.3546C67.1692 11.3546 69.0631 13.1823 69.0631 16.2315C69.0631 19.2808 67.226 21.1274 64.3282 21.1274C61.4305 21.1274 59.6123 19.3471 59.6123 16.2315H59.5934ZM66.0518 16.2315C66.0518 14.5554 65.3889 13.5705 64.3567 13.5705C63.3245 13.5705 62.671 14.5175 62.671 16.2315C62.671 17.9456 63.315 18.8831 64.3567 18.8831C65.3983 18.8831 66.0707 17.9456 66.0707 16.241L66.0518 16.2315ZM70.2942 9.32807C70.281 9.01841 70.3607 8.71187 70.5231 8.44795C70.6855 8.18393 70.9232 7.97465 71.2056 7.8469C71.488 7.71906 71.8021 7.67872 72.1076 7.73099C72.4131 7.78317 72.6959 7.9256 72.9198 8.1399C73.1437 8.35429 73.2983 8.63062 73.3639 8.93356C73.4293 9.2365 73.4027 9.55213 73.2873 9.83972C73.172 10.1274 72.9732 10.374 72.7166 10.5478C72.46 10.7216 72.1572 10.8145 71.8473 10.8148C71.6492 10.8198 71.4521 10.7855 71.2674 10.7138C71.0828 10.642 70.9141 10.5342 70.7714 10.3968C70.6287 10.2594 70.5147 10.095 70.4361 9.91312C70.3574 9.7313 70.3156 9.53565 70.3132 9.33754L70.2942 9.32807ZM70.2942 11.5629H73.3719V20.9002H70.3416L70.2942 11.5629ZM84.4421 16.2315C84.4421 19.2713 83.0784 21.0327 80.7583 21.0327C80.1644 21.0694 79.5735 20.9228 79.0654 20.6129C78.5574 20.303 78.1567 19.8447 77.9174 19.2998H77.8606V23.9021H74.8208V11.5914H77.8416V13.258H77.8985C78.1295 12.7024 78.5263 12.2315 79.0346 11.9095C79.5431 11.5876 80.1383 11.4302 80.7394 11.4588C83.1258 11.4398 84.4989 13.1917 84.4989 16.241L84.4421 16.2315ZM81.3455 16.2315C81.3455 14.7543 80.6542 13.7978 79.5841 13.7978C78.514 13.7978 77.8416 14.7448 77.8322 16.2315C77.8227 17.7183 78.514 18.6558 79.5841 18.6558C80.6542 18.6558 81.4023 17.7751 81.4023 16.241L81.3455 16.2315ZM89.6315 11.3451C92.1789 11.3451 93.7604 12.5478 93.7793 14.4796H91.0046C91.0046 13.8073 90.4459 13.3906 89.6126 13.3906C88.7792 13.3906 88.3815 13.7126 88.3815 14.1955C88.3815 14.6785 88.7319 14.83 89.4327 14.9721L91.3834 15.3698C93.2774 15.7675 94.035 16.5251 94.035 17.9361C94.035 19.8301 92.2831 21.118 89.6789 21.118C87.0747 21.118 85.3796 19.8679 85.2565 17.9645H88.2016C88.2868 18.6558 88.8361 19.063 89.7262 19.063C90.6164 19.063 91.0331 18.7789 91.0331 18.277C91.0331 17.7751 90.749 17.6899 90.0198 17.5384L88.2584 17.1691C86.4307 16.7808 85.4743 15.8243 85.4743 14.3944C85.5311 12.5383 87.122 11.3546 89.6883 11.3546L89.6315 11.3451ZM104.215 20.8907H101.27V19.1388H101.213C101.048 19.7232 100.689 20.2339 100.195 20.5867C99.7007 20.9396 99.1013 21.1136 98.4952 21.0801C98.0379 21.0949 97.5814 21.0129 97.1581 20.8393C96.7348 20.6657 96.3522 20.4044 96.0369 20.0727C95.7206 19.7409 95.4791 19.3461 95.3266 18.9142C95.1742 18.4824 95.1145 18.0231 95.1524 17.5668V11.5724H98.1922V16.9134C98.1922 18.0119 98.7699 18.6085 99.7168 18.6085C99.9394 18.6068 100.158 18.5574 100.36 18.4639C100.562 18.3702 100.741 18.2344 100.884 18.0657C101.029 17.8969 101.136 17.6991 101.198 17.4856C101.259 17.2721 101.274 17.0479 101.241 16.8281V11.5724H104.272L104.215 20.8907ZM105.683 11.5629H108.637V13.3622H108.704C108.867 12.7858 109.217 12.2798 109.698 11.9234C110.18 11.567 110.766 11.3803 111.365 11.3925C111.966 11.3402 112.565 11.5141 113.045 11.8801C113.525 12.2461 113.851 12.778 113.959 13.3717H114.092C114.281 12.7748 114.662 12.2572 115.176 11.8993C115.69 11.5414 116.308 11.3632 116.933 11.3925C117.349 11.3767 117.763 11.4488 118.149 11.6042C118.535 11.7595 118.884 11.9947 119.173 12.2942C119.461 12.5936 119.683 12.9507 119.824 13.342C119.966 13.7333 120.023 14.15 119.992 14.5649V20.9002H116.933V15.3414C116.933 14.3944 116.488 13.8641 115.626 13.8641C115.435 13.861 115.245 13.8992 115.07 13.9761C114.895 14.0531 114.74 14.167 114.613 14.31C114.486 14.4531 114.391 14.6218 114.335 14.8047C114.28 14.9877 114.265 15.1804 114.291 15.3698V20.9002H111.393V15.313C111.393 14.366 110.929 13.8641 110.096 13.8641C109.903 13.8626 109.711 13.9024 109.535 13.9808C109.358 14.0593 109.201 14.1745 109.072 14.3189C108.944 14.4633 108.849 14.6335 108.792 14.818C108.734 15.0026 108.717 15.1972 108.742 15.3887V20.9002H105.702L105.683 11.5629Z" fill="#151515"/>
<path d="M28.0684 9.35648C28.0685 7.47171 27.4994 5.63084 26.4356 4.07501C25.3717 2.51918 23.8627 1.32092 22.1063 0.637202C20.35 -0.046526 18.428 -0.183838 16.5923 0.24324C14.7565 0.670318 13.0925 1.64188 11.8183 3.03066H0V27.9741H24.9529V16.3168C25.9322 15.4408 26.716 14.3682 27.2528 13.1688C27.7896 11.9695 28.0676 10.6705 28.0684 9.35648ZM23.2673 9.35648C23.2691 10.2596 23.003 11.1431 22.5027 11.895C22.0022 12.6468 21.2901 13.2333 20.4561 13.5802C19.6222 13.9272 18.7042 14.0189 17.8181 13.8438C16.9322 13.6688 16.1179 13.2348 15.4786 12.5969C14.8393 11.9589 14.4037 11.1456 14.2268 10.2599C14.0499 9.37428 14.1398 8.456 14.485 7.62143C14.8301 6.78682 15.4152 6.07339 16.166 5.57143C16.9168 5.06946 17.7997 4.80152 18.7028 4.80151C19.9117 4.80151 21.0713 5.28111 21.927 6.13506C22.7828 6.98901 23.2648 8.14757 23.2673 9.35648ZM20.1517 23.1729H4.80118V7.83185H9.47924C9.3889 8.33517 9.34136 8.84521 9.33719 9.35648C9.33975 11.8396 10.3273 14.2204 12.0831 15.9762C13.8389 17.732 16.2196 18.7196 18.7028 18.7221C19.1883 18.7195 19.6728 18.6784 20.1517 18.599V23.1729Z" fill="#151515"/>
</svg>
