<svg width="32" height="32" viewBox="0 0 32 32" fill="none" xmlns="http://www.w3.org/2000/svg">
<path d="M15.9996 17.3335C14.5329 17.3335 13.2773 16.8113 12.2329 15.7668C11.1884 14.7224 10.6662 13.4668 10.6662 12.0002C10.6662 10.5335 11.1884 9.27794 12.2329 8.2335C13.2773 7.18905 14.5329 6.66683 15.9996 6.66683C17.4662 6.66683 18.7218 7.18905 19.7662 8.2335C20.8107 9.27794 21.3329 10.5335 21.3329 12.0002C21.3329 13.4668 20.8107 14.7224 19.7662 15.7668C18.7218 16.8113 17.4662 17.3335 15.9996 17.3335ZM5.33289 28.0002V24.2668C5.33289 23.5335 5.52178 22.8446 5.89956 22.2002C6.27734 21.5557 6.79956 21.0668 7.46623 20.7335C8.59956 20.1557 9.87734 19.6668 11.2996 19.2668C12.7218 18.8668 14.2885 18.6668 15.9996 18.6668C17.7107 18.6668 19.2773 18.8668 20.6996 19.2668C22.1218 19.6668 23.3996 20.1557 24.5329 20.7335C25.1996 21.0668 25.7218 21.5557 26.0996 22.2002C26.4773 22.8446 26.6662 23.5335 26.6662 24.2668V28.0002H5.33289ZM7.99956 25.3335H23.9996V24.2668C23.9996 24.0224 23.9384 23.8002 23.8162 23.6002C23.694 23.4002 23.5329 23.2446 23.3329 23.1335C22.5329 22.7335 21.5051 22.3335 20.2496 21.9335C18.994 21.5335 17.5773 21.3335 15.9996 21.3335C14.4218 21.3335 13.0051 21.5335 11.7496 21.9335C10.494 22.3335 9.46623 22.7335 8.66623 23.1335C8.46623 23.2446 8.30512 23.4002 8.18289 23.6002C8.06067 23.8002 7.99956 24.0224 7.99956 24.2668V25.3335ZM15.9996 14.6668C16.7329 14.6668 17.3607 14.4057 17.8829 13.8835C18.4051 13.3613 18.6662 12.7335 18.6662 12.0002C18.6662 11.2668 18.4051 10.6391 17.8829 10.1168C17.3607 9.59461 16.7329 9.3335 15.9996 9.3335C15.2662 9.3335 14.6384 9.59461 14.1162 10.1168C13.594 10.6391 13.3329 11.2668 13.3329 12.0002C13.3329 12.7335 13.594 13.3613 14.1162 13.8835C14.6384 14.4057 15.2662 14.6668 15.9996 14.6668ZM1.29956 6.66683V4.00016C1.67734 4.00016 2.02178 3.92794 2.33289 3.7835C2.64401 3.63905 2.92178 3.44461 3.16623 3.20016C3.41067 2.95572 3.59956 2.67794 3.73289 2.36683C3.86623 2.05572 3.93289 1.71127 3.93289 1.3335H6.63289C6.63289 2.06683 6.49401 2.75572 6.21623 3.40016C5.93845 4.04461 5.55512 4.61127 5.06623 5.10016C4.57734 5.58905 4.01067 5.97238 3.36623 6.25016C2.72178 6.52794 2.03289 6.66683 1.29956 6.66683ZM1.29956 12.0335V9.36683C2.43289 9.36683 3.48289 9.15572 4.44956 8.7335C5.41623 8.31127 6.25512 7.7335 6.96623 7.00016C7.67734 6.26683 8.24401 5.41683 8.66623 4.45016C9.08845 3.4835 9.29956 2.44461 9.29956 1.3335H11.9996C11.9996 2.80016 11.7218 4.1835 11.1662 5.4835C10.6107 6.7835 9.84401 7.92238 8.86623 8.90016C7.88845 9.87794 6.75512 10.6446 5.46623 11.2002C4.17734 11.7557 2.78845 12.0335 1.29956 12.0335ZM30.6662 12.0335C29.1996 12.0335 27.8162 11.7557 26.5162 11.2002C25.2162 10.6446 24.0773 9.87794 23.0996 8.90016C22.1218 7.92238 21.3551 6.7835 20.7996 5.4835C20.244 4.1835 19.9662 2.80016 19.9662 1.3335H22.6329C22.6329 2.44461 22.844 3.4835 23.2662 4.45016C23.6884 5.41683 24.2662 6.26683 24.9996 7.00016C25.7329 7.7335 26.5829 8.31127 27.5496 8.7335C28.5162 9.15572 29.5551 9.36683 30.6662 9.36683V12.0335ZM30.6662 6.66683C29.9329 6.66683 29.244 6.52794 28.5996 6.25016C27.9551 5.97238 27.3885 5.58905 26.8996 5.10016C26.4107 4.61127 26.0273 4.04461 25.7496 3.40016C25.4718 2.75572 25.3329 2.06683 25.3329 1.3335H27.9996C27.9996 1.71127 28.0718 2.05572 28.2162 2.36683C28.3607 2.67794 28.5551 2.95572 28.7996 3.20016C29.044 3.44461 29.3218 3.63905 29.6329 3.7835C29.944 3.92794 30.2885 4.00016 30.6662 4.00016V6.66683Z" fill="#4B4B4B"/>
</svg>
