<svg width="32" height="32" viewBox="0 0 32 32" fill="none" xmlns="http://www.w3.org/2000/svg">
<path d="M6.6665 22.6663C6.28873 22.6663 5.97206 22.5386 5.7165 22.283C5.46095 22.0275 5.33317 21.7108 5.33317 21.333V18.6663H2.6665V13.333H5.33317V10.6663C5.33317 10.2886 5.46095 9.9719 5.7165 9.71634C5.97206 9.46079 6.28873 9.33301 6.6665 9.33301H27.9998C28.3776 9.33301 28.6943 9.46079 28.9498 9.71634C29.2054 9.9719 29.3332 10.2886 29.3332 10.6663V21.333C29.3332 21.7108 29.2054 22.0275 28.9498 22.283C28.6943 22.5386 28.3776 22.6663 27.9998 22.6663H6.6665ZM7.99984 19.9997H13.3332V11.9997H7.99984V19.9997Z" fill="#4B4B4B"/>
</svg>
