<svg width="32" height="32" viewBox="0 0 32 32" fill="none" xmlns="http://www.w3.org/2000/svg">
<path d="M1 28V24.2667C1 23.5333 1.18889 22.8444 1.56667 22.2C1.94444 21.5556 2.46667 21.0667 3.13333 20.7333C4.26667 20.1556 5.54444 19.6667 6.96667 19.2667C8.38889 18.8667 9.95555 18.6667 11.6667 18.6667C13.3778 18.6667 14.9444 18.8667 16.3667 19.2667C17.7889 19.6667 19.0667 20.1556 20.2 20.7333C20.8667 21.0667 21.3889 21.5556 21.7667 22.2C22.1444 22.8444 22.3333 23.5333 22.3333 24.2667V28H1ZM3.66667 25.3333H19.6667V24.2667C19.6667 24.0222 19.6056 23.8 19.4833 23.6C19.3611 23.4 19.2 23.2444 19 23.1333C18.2 22.7333 17.1722 22.3333 15.9167 21.9333C14.6611 21.5333 13.2444 21.3333 11.6667 21.3333C10.0889 21.3333 8.67222 21.5333 7.41667 21.9333C6.16111 22.3333 5.13333 22.7333 4.33333 23.1333C4.13333 23.2444 3.97222 23.4 3.85 23.6C3.72778 23.8 3.66667 24.0222 3.66667 24.2667V25.3333ZM11.6667 17.3333C10.2 17.3333 8.94444 16.8111 7.9 15.7667C6.85556 14.7222 6.33333 13.4667 6.33333 12H6C5.8 12 5.63889 11.9389 5.51667 11.8167C5.39444 11.6944 5.33333 11.5333 5.33333 11.3333C5.33333 11.1333 5.39444 10.9722 5.51667 10.85C5.63889 10.7278 5.8 10.6667 6 10.6667H6.33333C6.33333 9.66667 6.57778 8.76667 7.06667 7.96667C7.55556 7.16667 8.2 6.53333 9 6.06667V7.33333C9 7.53333 9.06111 7.69444 9.18333 7.81667C9.30556 7.93889 9.46667 8 9.66667 8C9.86667 8 10.0278 7.93889 10.15 7.81667C10.2722 7.69444 10.3333 7.53333 10.3333 7.33333V5.53333C10.5333 5.46667 10.7444 5.41667 10.9667 5.38333C11.1889 5.35 11.4222 5.33333 11.6667 5.33333C11.9111 5.33333 12.1444 5.35 12.3667 5.38333C12.5889 5.41667 12.8 5.46667 13 5.53333V7.33333C13 7.53333 13.0611 7.69444 13.1833 7.81667C13.3056 7.93889 13.4667 8 13.6667 8C13.8667 8 14.0278 7.93889 14.15 7.81667C14.2722 7.69444 14.3333 7.53333 14.3333 7.33333V6.06667C15.1333 6.53333 15.7778 7.16667 16.2667 7.96667C16.7556 8.76667 17 9.66667 17 10.6667H17.3333C17.5333 10.6667 17.6944 10.7278 17.8167 10.85C17.9389 10.9722 18 11.1333 18 11.3333C18 11.5333 17.9389 11.6944 17.8167 11.8167C17.6944 11.9389 17.5333 12 17.3333 12H17C17 13.4667 16.4778 14.7222 15.4333 15.7667C14.3889 16.8111 13.1333 17.3333 11.6667 17.3333ZM11.6667 14.6667C12.4 14.6667 13.0278 14.4056 13.55 13.8833C14.0722 13.3611 14.3333 12.7333 14.3333 12H9C9 12.7333 9.26111 13.3611 9.78333 13.8833C10.3056 14.4056 10.9333 14.6667 11.6667 14.6667ZM21.6667 20L21.4667 19C21.3333 18.9556 21.2056 18.9056 21.0833 18.85C20.9611 18.7944 20.8444 18.7111 20.7333 18.6L19.8 18.9333L19.1333 17.7333L19.8667 17.0667V16.2667L19.1333 15.6L19.8 14.4L20.7333 14.7333C20.8222 14.6444 20.9333 14.5667 21.0667 14.5C21.2 14.4333 21.3333 14.3778 21.4667 14.3333L21.6667 13.3333H23L23.2 14.3333C23.3333 14.3778 23.4667 14.4333 23.6 14.5C23.7333 14.5667 23.8444 14.6444 23.9333 14.7333L24.8667 14.4L25.5333 15.6L24.8 16.2667V17.0667L25.5333 17.7333L24.8667 18.9333L23.9333 18.6C23.8222 18.7111 23.7056 18.7944 23.5833 18.85C23.4611 18.9056 23.3333 18.9556 23.2 19L23 20H21.6667ZM22.3333 17.6667C22.6 17.6667 22.8333 17.5667 23.0333 17.3667C23.2333 17.1667 23.3333 16.9333 23.3333 16.6667C23.3333 16.4 23.2333 16.1667 23.0333 15.9667C22.8333 15.7667 22.6 15.6667 22.3333 15.6667C22.0667 15.6667 21.8333 15.7667 21.6333 15.9667C21.4333 16.1667 21.3333 16.4 21.3333 16.6667C21.3333 16.9333 21.4333 17.1667 21.6333 17.3667C21.8333 17.5667 22.0667 17.6667 22.3333 17.6667ZM24.7333 13.3333L24.4667 11.9333C24.2667 11.8667 24.0833 11.7833 23.9167 11.6833C23.75 11.5833 23.6 11.4667 23.4667 11.3333L22.0667 11.8L21.1333 10.2L22.2667 9.2C22.2222 9.08889 22.2 9 22.2 8.93333V8.4C22.2 8.33333 22.2222 8.24444 22.2667 8.13333L21.1333 7.13333L22.0667 5.53333L23.4667 6C23.6 5.86667 23.75 5.75 23.9167 5.65C24.0833 5.55 24.2667 5.46667 24.4667 5.4L24.7333 4H26.6L26.8667 5.4C27.0667 5.46667 27.25 5.55 27.4167 5.65C27.5833 5.75 27.7333 5.86667 27.8667 6L29.2667 5.53333L30.2 7.13333L29.0667 8.13333C29.1111 8.24444 29.1333 8.33333 29.1333 8.4V8.93333C29.1333 9 29.1111 9.08889 29.0667 9.2L30.2 10.2L29.2667 11.8L27.8667 11.3333C27.7333 11.4667 27.5833 11.5833 27.4167 11.6833C27.25 11.7833 27.0667 11.8667 26.8667 11.9333L26.6 13.3333H24.7333ZM25.6667 10.3333C26.1333 10.3333 26.5278 10.1722 26.85 9.85C27.1722 9.52778 27.3333 9.13333 27.3333 8.66667C27.3333 8.2 27.1722 7.80556 26.85 7.48333C26.5278 7.16111 26.1333 7 25.6667 7C25.2 7 24.8056 7.16111 24.4833 7.48333C24.1611 7.80556 24 8.2 24 8.66667C24 9.13333 24.1611 9.52778 24.4833 9.85C24.8056 10.1722 25.2 10.3333 25.6667 10.3333Z" fill="#4B4B4B"/>
</svg>
