<svg width="32" height="32" viewBox="0 0 32 32" fill="none" xmlns="http://www.w3.org/2000/svg">
<path d="M16 30C17.6667 30 19.2278 29.6833 20.6833 29.05C22.1389 28.4167 23.4056 27.5611 24.4833 26.4833C25.5611 25.4056 26.4167 24.1389 27.05 22.6833C27.6833 21.2278 28 19.6667 28 18H25.3333C25.3333 20.6 24.4278 22.8056 22.6167 24.6167C20.8056 26.4278 18.6 27.3333 16 27.3333C13.4 27.3333 11.1944 26.4278 9.38333 24.6167C7.57222 22.8056 6.66667 20.6 6.66667 18C6.66667 15.4 7.57222 13.1944 9.38333 11.3833C11.1944 9.57222 13.4 8.66667 16 8.66667H16.2L14.1333 10.7333L16 12.6667L21.3333 7.33333L16 2L14.1333 3.93333L16.2 6H16C14.3333 6 12.7722 6.31667 11.3167 6.95C9.86111 7.58333 8.59444 8.43889 7.51667 9.51667C6.43889 10.5944 5.58333 11.8611 4.95 13.3167C4.31667 14.7722 4 16.3333 4 18C4 19.6667 4.31667 21.2278 4.95 22.6833C5.58333 24.1389 6.43889 25.4056 7.51667 26.4833C8.59444 27.5611 9.86111 28.4167 11.3167 29.05C12.7722 29.6833 14.3333 30 16 30Z" fill="#4B4B4B"/>
<path d="M13.31 14.1191V22.4537H11.7622V15.4169H10V14.1191H13.31Z" fill="#4B4B4B"/>
<path d="M21 21.1439V22.4537H14.8562V21.4178L18.1662 18.2745C18.5393 17.9173 18.7893 17.6077 18.9163 17.3457C19.0513 17.0759 19.1188 16.81 19.1188 16.548C19.1188 16.1591 18.9878 15.8614 18.7258 15.655C18.4639 15.4486 18.0789 15.3454 17.5709 15.3454C16.7216 15.3454 16.0707 15.6352 15.6182 16.2146L14.5347 15.3812C14.8602 14.9446 15.2968 14.6072 15.8445 14.3691C16.4001 14.123 17.0192 14 17.7019 14C18.6068 14 19.3291 14.2143 19.8689 14.643C20.4086 15.0716 20.6785 15.655 20.6785 16.3932C20.6785 16.8457 20.5833 17.2703 20.3928 17.6672C20.2023 18.0641 19.8371 18.5166 19.2974 19.0246L17.0708 21.1439H21Z" fill="#4B4B4B"/>
</svg>
