<svg width="32" height="32" viewBox="0 0 32 32" fill="none" xmlns="http://www.w3.org/2000/svg">
<path d="M3 10.6667V6.66667C3 5.93333 3.26111 5.30556 3.78333 4.78333C4.30556 4.26111 4.93333 4 5.66667 4H27C27.7333 4 28.3611 4.26111 28.8833 4.78333C29.4056 5.30556 29.6667 5.93333 29.6667 6.66667V14H27V6.66667H5.66667V10.6667H3ZM9.66667 21.3333C9.42222 21.3333 9.18889 21.2722 8.96667 21.15C8.74444 21.0278 8.57778 20.8444 8.46667 20.6L6.16667 16H3V13.3333H7C7.24444 13.3333 7.47778 13.3944 7.7 13.5167C7.92222 13.6389 8.08889 13.8222 8.2 14.0667L9.66667 17L13.8 8.73333C13.9111 8.51111 14.0778 8.34444 14.3 8.23333C14.5222 8.12222 14.7556 8.06667 15 8.06667C15.2444 8.06667 15.4778 8.12222 15.7 8.23333C15.9222 8.34444 16.0889 8.51111 16.2 8.73333L18.4333 13.2C18.0333 13.4444 17.65 13.7 17.2833 13.9667C16.9167 14.2333 16.5778 14.5333 16.2667 14.8667L15 12.3333L10.8667 20.6C10.7556 20.8444 10.5889 21.0278 10.3667 21.15C10.1444 21.2722 9.91111 21.3333 9.66667 21.3333ZM14.5667 25.3333H5.66667C4.93333 25.3333 4.30556 25.0722 3.78333 24.55C3.26111 24.0278 3 23.4 3 22.6667V18.6667H5.66667V22.6667H13.7667C13.8333 23.1333 13.9333 23.5889 14.0667 24.0333C14.2 24.4778 14.3667 24.9111 14.5667 25.3333ZM23 28C21.1556 28 19.5833 27.35 18.2833 26.05C16.9833 24.75 16.3333 23.1778 16.3333 21.3333C16.3333 19.4889 16.9833 17.9167 18.2833 16.6167C19.5833 15.3167 21.1556 14.6667 23 14.6667C24.8444 14.6667 26.4167 15.3167 27.7167 16.6167C29.0167 17.9167 29.6667 19.4889 29.6667 21.3333C29.6667 23.1778 29.0167 24.75 27.7167 26.05C26.4167 27.35 24.8444 28 23 28ZM23.2667 22L26.3 18.9667L25.3667 18.0333L22.3333 21.0667L23.2667 22Z" fill="#4B4B4B"/>
</svg>
