<svg width="32" height="32" viewBox="0 0 32 32" fill="none" xmlns="http://www.w3.org/2000/svg">
<path d="M10.6668 23.9998H21.3335V21.3332H10.6668V23.9998ZM10.6668 18.6665H21.3335V15.9998H10.6668V18.6665ZM8.00016 29.3332C7.26683 29.3332 6.63905 29.0721 6.11683 28.5498C5.59461 28.0276 5.3335 27.3998 5.3335 26.6665V5.33317C5.3335 4.59984 5.59461 3.97206 6.11683 3.44984C6.63905 2.92761 7.26683 2.6665 8.00016 2.6665H18.6668L26.6668 10.6665V26.6665C26.6668 27.3998 26.4057 28.0276 25.8835 28.5498C25.3613 29.0721 24.7335 29.3332 24.0002 29.3332H8.00016ZM17.3335 11.9998V5.33317H8.00016V26.6665H24.0002V11.9998H17.3335Z" fill="#4B4B4B"/>
</svg>
