<svg width="32" height="32" viewBox="0 0 32 32" fill="none" xmlns="http://www.w3.org/2000/svg">
<path d="M17.3333 14.6668V6.6668H20V10.1335L26.6667 3.4668L28.5333 5.33346L21.8667 12.0001H25.3333V14.6668H17.3333ZM26.6 28.0001C23.8222 28.0001 21.0778 27.3946 18.3667 26.1835C15.6556 24.9724 13.1889 23.2557 10.9667 21.0335C8.74444 18.8112 7.02778 16.3446 5.81667 13.6335C4.60556 10.9224 4 8.17791 4 5.40013C4 5.00013 4.13333 4.6668 4.4 4.40013C4.66667 4.13346 5 4.00013 5.4 4.00013H10.8C11.1111 4.00013 11.3889 4.10569 11.6333 4.3168C11.8778 4.52791 12.0222 4.77791 12.0667 5.0668L12.9333 9.73346C12.9778 10.089 12.9667 10.389 12.9 10.6335C12.8333 10.8779 12.7111 11.089 12.5333 11.2668L9.3 14.5335C9.74444 15.3557 10.2722 16.1501 10.8833 16.9168C11.4944 17.6835 12.1667 18.4224 12.9 19.1335C13.5889 19.8224 14.3111 20.4612 15.0667 21.0501C15.8222 21.639 16.6222 22.1779 17.4667 22.6668L20.6 19.5335C20.8 19.3335 21.0611 19.1835 21.3833 19.0835C21.7056 18.9835 22.0222 18.9557 22.3333 19.0001L26.9333 19.9335C27.2444 20.0224 27.5 20.1835 27.7 20.4168C27.9 20.6501 28 20.9112 28 21.2001V26.6001C28 27.0001 27.8667 27.3335 27.6 27.6001C27.3333 27.8668 27 28.0001 26.6 28.0001ZM8.03333 12.0001L10.2333 9.80013L9.66667 6.6668H6.7C6.81111 7.57791 6.96667 8.47791 7.16667 9.3668C7.36667 10.2557 7.65556 11.1335 8.03333 12.0001ZM19.9667 23.9335C20.8333 24.3112 21.7167 24.6112 22.6167 24.8335C23.5167 25.0557 24.4222 25.2001 25.3333 25.2668V22.3335L22.2 21.7001L19.9667 23.9335Z" fill="#4B4B4B"/>
</svg>
