<svg width="32" height="32" viewBox="0 0 32 32" fill="none" xmlns="http://www.w3.org/2000/svg">
<path d="M5.33317 14.6666C4.59984 14.6666 3.97206 14.4055 3.44984 13.8833C2.92761 13.361 2.6665 12.7333 2.6665 11.9999V7.99992C2.6665 7.26659 2.92761 6.63881 3.44984 6.11659C3.97206 5.59436 4.59984 5.33325 5.33317 5.33325H17.3332V14.6666H5.33317ZM5.33317 11.9999H14.6665V7.99992H5.33317V11.9999ZM5.33317 26.6666C4.59984 26.6666 3.97206 26.4055 3.44984 25.8833C2.92761 25.361 2.6665 24.7333 2.6665 23.9999V19.9999C2.6665 19.2666 2.92761 18.6388 3.44984 18.1166C3.97206 17.5944 4.59984 17.3333 5.33317 17.3333H19.9998V26.6666H5.33317ZM5.33317 23.9999H17.3332V19.9999H5.33317V23.9999ZM22.6665 26.6666V14.6666H19.9998V5.33325H29.3332L26.6665 11.9999H29.3332L22.6665 26.6666ZM6.33317 22.9999H8.33317V20.9999H6.33317V22.9999ZM6.33317 10.9999H8.33317V8.99992H6.33317V10.9999Z" fill="#4B4B4B"/>
</svg>
