<svg width="32" height="32" viewBox="0 0 32 32" fill="none" xmlns="http://www.w3.org/2000/svg">
<path d="M25.3335 18.6664V9.99976L18.6668 5.33309L12.0002 9.99976V11.9998H9.3335V8.66642L18.6668 1.99976L28.0002 8.66642V18.6664H25.3335ZM19.3335 10.6664H20.6668V9.33309H19.3335V10.6664ZM16.6668 10.6664H18.0002V9.33309H16.6668V10.6664ZM19.3335 13.3331H20.6668V11.9998H19.3335V13.3331ZM16.6668 13.3331H18.0002V11.9998H16.6668V13.3331ZM9.3335 24.6664L18.6002 27.1998L26.5335 24.7331C26.4224 24.5331 26.2613 24.3609 26.0502 24.2164C25.8391 24.072 25.6002 23.9998 25.3335 23.9998H18.6002C18.0002 23.9998 17.5224 23.9775 17.1668 23.9331C16.8113 23.8886 16.4446 23.7998 16.0668 23.6664L12.9668 22.6331L13.7002 20.0331L16.4002 20.9331C16.7779 21.0442 17.2224 21.1331 17.7335 21.1998C18.2446 21.2664 19.0002 21.3109 20.0002 21.3331C20.0002 21.0886 19.9279 20.8553 19.7835 20.6331C19.6391 20.4109 19.4668 20.2664 19.2668 20.1998L11.4668 17.3331H9.3335V24.6664ZM1.3335 29.3331V14.6664H11.4668C11.6224 14.6664 11.7779 14.6831 11.9335 14.7164C12.0891 14.7498 12.2335 14.7886 12.3668 14.8331L20.2002 17.7331C20.9335 17.9998 21.5279 18.4664 21.9835 19.1331C22.4391 19.7998 22.6668 20.5331 22.6668 21.3331H25.3335C26.4446 21.3331 27.3891 21.6998 28.1668 22.4331C28.9446 23.1664 29.3335 24.1331 29.3335 25.3331V26.6664L18.6668 29.9998L9.3335 27.3998V29.3331H1.3335ZM4.00016 26.6664H6.66683V17.3331H4.00016V26.6664Z" fill="#4B4B4B"/>
</svg>
