<svg width="32" height="32" viewBox="0 0 32 32" fill="none" xmlns="http://www.w3.org/2000/svg">
<path d="M10 7C9.44444 7 8.97222 7.19444 8.58333 7.58333C8.19444 7.97222 8 8.44444 8 9C8 9.55556 8.19444 10.0278 8.58333 10.4167C8.97222 10.8056 9.44444 11 10 11C10.5556 11 11.0278 10.8056 11.4167 10.4167C11.8056 10.0278 12 9.55556 12 9C12 8.44444 11.8056 7.97222 11.4167 7.58333C11.0278 7.19444 10.5556 7 10 7ZM10 20.3333C9.44444 20.3333 8.97222 20.5278 8.58333 20.9167C8.19444 21.3056 8 21.7778 8 22.3333C8 22.8889 8.19444 23.3611 8.58333 23.75C8.97222 24.1389 9.44444 24.3333 10 24.3333C10.5556 24.3333 11.0278 24.1389 11.4167 23.75C11.8056 23.3611 12 22.8889 12 22.3333C12 21.7778 11.8056 21.3056 11.4167 20.9167C11.0278 20.5278 10.5556 20.3333 10 20.3333ZM5.33333 3H26.6667C27.0444 3 27.3611 3.12778 27.6167 3.38333C27.8722 3.63889 28 3.95556 28 4.33333V13.6667C28 14.0444 27.8722 14.3611 27.6167 14.6167C27.3611 14.8722 27.0444 15 26.6667 15H5.33333C4.95556 15 4.63889 14.8722 4.38333 14.6167C4.12778 14.3611 4 14.0444 4 13.6667V4.33333C4 3.95556 4.12778 3.63889 4.38333 3.38333C4.63889 3.12778 4.95556 3 5.33333 3ZM6.66667 5.66667V12.3333H25.3333V5.66667H6.66667ZM5.33333 16.3333H26.6667C27.0444 16.3333 27.3611 16.4611 27.6167 16.7167C27.8722 16.9722 28 17.2889 28 17.6667V27C28 27.3778 27.8722 27.6944 27.6167 27.95C27.3611 28.2056 27.0444 28.3333 26.6667 28.3333H5.33333C4.95556 28.3333 4.63889 28.2056 4.38333 27.95C4.12778 27.6944 4 27.3778 4 27V17.6667C4 17.2889 4.12778 16.9722 4.38333 16.7167C4.63889 16.4611 4.95556 16.3333 5.33333 16.3333ZM6.66667 19V25.6667H25.3333V19H6.66667Z" fill="#4B4B4B"/>
</svg>
