<svg width="32" height="32" viewBox="0 0 32 32" fill="none" xmlns="http://www.w3.org/2000/svg">
<path d="M26 18.6667V10L19.3333 5.33333L12.6667 10V12H10V8.66667L19.3333 2L28.6667 8.66667V18.6667H26ZM20 10.6667H21.3333V9.33333H20V10.6667ZM17.3333 10.6667H18.6667V9.33333H17.3333V10.6667ZM20 13.3333H21.3333V12H20V13.3333ZM17.3333 13.3333H18.6667V12H17.3333V13.3333ZM10 24.6667L19.2667 27.2L27.2 24.7333C27.0889 24.5333 26.9278 24.3611 26.7167 24.2167C26.5056 24.0722 26.2667 24 26 24H19.2667C18.6667 24 18.1889 23.9778 17.8333 23.9333C17.4778 23.8889 17.1111 23.8 16.7333 23.6667L13.6333 22.6333L14.3667 20.0333L17.0667 20.9333C17.4444 21.0444 17.8889 21.1333 18.4 21.2C18.9111 21.2667 19.6667 21.3111 20.6667 21.3333C20.6667 21.0889 20.5944 20.8556 20.45 20.6333C20.3056 20.4111 20.1333 20.2667 19.9333 20.2L12.1333 17.3333H10V24.6667ZM2 29.3333V14.6667H12.1333C12.2889 14.6667 12.4444 14.6833 12.6 14.7167C12.7556 14.75 12.9 14.7889 13.0333 14.8333L20.8667 17.7333C21.6 18 22.1944 18.4667 22.65 19.1333C23.1056 19.8 23.3333 20.5333 23.3333 21.3333H26C27.1111 21.3333 28.0556 21.7 28.8333 22.4333C29.6111 23.1667 30 24.1333 30 25.3333V26.6667L19.3333 30L10 27.4V29.3333H2ZM4.66667 26.6667H7.33333V17.3333H4.66667V26.6667Z" fill="#4B4B4B"/>
</svg>
