<svg width="32" height="32" viewBox="0 0 32 32" fill="none" xmlns="http://www.w3.org/2000/svg">
<path d="M16.3333 27C18 27 19.4167 26.4167 20.5833 25.25C21.75 24.0833 22.3333 22.6667 22.3333 21C22.3333 19.3333 21.75 17.9167 20.5833 16.75C19.4167 15.5833 18 15 16.3333 15C14.6667 15 13.25 15.5833 12.0833 16.75C10.9167 17.9167 10.3333 19.3333 10.3333 21C10.3333 22.6667 10.9167 24.0833 12.0833 25.25C13.25 26.4167 14.6667 27 16.3333 27ZM12.4333 13.2667C12.8778 13.0222 13.35 12.8278 13.85 12.6833C14.35 12.5389 14.8556 12.4444 15.3667 12.4L12 5.66667H8.66667L12.4333 13.2667ZM20.2333 13.2667L24.0333 5.66667H20.6667L17.8333 11.3333L18.4667 12.6C18.7778 12.6889 19.0778 12.7833 19.3667 12.8833C19.6556 12.9833 19.9444 13.1111 20.2333 13.2667ZM8.86667 25.4C8.48889 24.7556 8.19444 24.0611 7.98333 23.3167C7.77222 22.5722 7.66667 21.8 7.66667 21C7.66667 20.2 7.77222 19.4278 7.98333 18.6833C8.19444 17.9389 8.48889 17.2444 8.86667 16.6C7.93333 16.9111 7.16667 17.4611 6.56667 18.25C5.96667 19.0389 5.66667 19.9556 5.66667 21C5.66667 22.0444 5.96667 22.9611 6.56667 23.75C7.16667 24.5389 7.93333 25.0889 8.86667 25.4ZM23.8 25.4C24.7333 25.0889 25.5 24.5389 26.1 23.75C26.7 22.9611 27 22.0444 27 21C27 19.9556 26.7 19.0389 26.1 18.25C25.5 17.4611 24.7333 16.9111 23.8 16.6C24.1778 17.2444 24.4722 17.9389 24.6833 18.6833C24.8944 19.4278 25 20.2 25 21C25 21.8 24.8944 22.5722 24.6833 23.3167C24.4722 24.0611 24.1778 24.7556 23.8 25.4ZM16.3333 29.6667C15.4444 29.6667 14.5944 29.5389 13.7833 29.2833C12.9722 29.0278 12.2222 28.6778 11.5333 28.2333C11.3333 28.2778 11.1333 28.3056 10.9333 28.3167C10.7333 28.3278 10.5222 28.3333 10.3 28.3333C8.27778 28.3333 6.55556 27.6222 5.13333 26.2C3.71111 24.7778 3 23.0556 3 21.0333C3 19.1 3.64444 17.4444 4.93333 16.0667C6.22222 14.6889 7.81111 13.9222 9.7 13.7667L4.33333 3H13.6667L16.3333 8.33333L19 3H28.3333L23 13.7C24.8889 13.8778 26.4722 14.6556 27.75 16.0333C29.0278 17.4111 29.6667 19.0667 29.6667 21C29.6667 23.0444 28.9556 24.7778 27.5333 26.2C26.1111 27.6222 24.3778 28.3333 22.3333 28.3333C22.1333 28.3333 21.9278 28.3278 21.7167 28.3167C21.5056 28.3056 21.3 28.2778 21.1 28.2333C20.4111 28.6778 19.6667 29.0278 18.8667 29.2833C18.0667 29.5389 17.2222 29.6667 16.3333 29.6667ZM13.8667 24.6667L14.8 21.6333L12.3333 19.8667H15.3667L16.3333 16.6667L17.3 19.8667H20.3333L17.8667 21.6333L18.8 24.6667L16.3333 22.8L13.8667 24.6667Z" fill="#4B4B4B"/>
</svg>
