<svg width="32" height="32" viewBox="0 0 32 32" fill="none" xmlns="http://www.w3.org/2000/svg">
<path d="M23.4 28.3333V20.3333L30.0667 24.3333L23.4 28.3333ZM16.7333 28.3333V20.3333L23.4 24.3333L16.7333 28.3333ZM11.7333 29.6667L11.2 25.4C10.9111 25.2889 10.6389 25.1556 10.3833 25C10.1278 24.8444 9.87778 24.6778 9.63333 24.5L5.66667 26.1667L2 19.8333L5.43333 17.2333C5.41111 17.0778 5.4 16.9278 5.4 16.7833V15.8833C5.4 15.7389 5.41111 15.5889 5.43333 15.4333L2 12.8333L5.66667 6.5L9.63333 8.16667C9.87778 7.98889 10.1333 7.82222 10.4 7.66667C10.6667 7.51111 10.9333 7.37778 11.2 7.26667L11.7333 3H19.0667L19.6 7.26667C19.8889 7.37778 20.1611 7.51111 20.4167 7.66667C20.6722 7.82222 20.9222 7.98889 21.1667 8.16667L25.1333 6.5L28.8 12.8333L25.3667 15.4333C25.3889 15.5889 25.4 15.7389 25.4 15.8833V17C25.4 17.2222 25.3778 17.4444 25.3333 17.6667H22.6C22.6444 17.4444 22.6778 17.2222 22.7 17C22.7222 16.7778 22.7333 16.5556 22.7333 16.3333C22.7111 15.9111 22.6778 15.5389 22.6333 15.2167C22.5889 14.8944 22.5222 14.5889 22.4333 14.3L25.3 12.1333L24 9.86667L20.7 11.2667C20.2111 10.7556 19.6722 10.3278 19.0833 9.98333C18.4944 9.63889 17.8556 9.37778 17.1667 9.2L16.7333 5.66667H14.1L13.6333 9.2C12.9444 9.37778 12.3056 9.63889 11.7167 9.98333C11.1278 10.3278 10.5889 10.7444 10.1 11.2333L6.8 9.86667L5.5 12.1333L8.36667 14.2667C8.25556 14.6 8.17778 14.9333 8.13333 15.2667C8.08889 15.6 8.06667 15.9556 8.06667 16.3333C8.06667 16.6889 8.08889 17.0333 8.13333 17.3667C8.17778 17.7 8.25556 18.0333 8.36667 18.3667L5.5 20.5333L6.8 22.8L10.1 21.4C10.6333 21.9556 11.2333 22.4222 11.9 22.8C12.5667 23.1778 13.2889 23.4222 14.0667 23.5333V29.6667H11.7333ZM14.0667 20.8V17.7667C13.8889 17.5889 13.7444 17.3778 13.6333 17.1333C13.5222 16.8889 13.4667 16.6222 13.4667 16.3333C13.4667 15.7778 13.6611 15.3056 14.05 14.9167C14.4389 14.5278 14.9111 14.3333 15.4667 14.3333C16.0222 14.3333 16.4944 14.5278 16.8833 14.9167C17.2722 15.3056 17.4667 15.7778 17.4667 16.3333C17.4667 16.5778 17.4278 16.8167 17.35 17.05C17.2722 17.2833 17.1444 17.4889 16.9667 17.6667H19.9333C20 17.4444 20.05 17.2278 20.0833 17.0167C20.1167 16.8056 20.1333 16.5778 20.1333 16.3333C20.1333 15.0444 19.6778 13.9444 18.7667 13.0333C17.8556 12.1222 16.7556 11.6667 15.4667 11.6667C14.1556 11.6667 13.05 12.1222 12.15 13.0333C11.25 13.9444 10.8 15.0444 10.8 16.3333C10.8 17.4 11.1056 18.3333 11.7167 19.1333C12.3278 19.9333 13.1111 20.4889 14.0667 20.8Z" fill="#4B4B4B"/>
</svg>
