<svg width="100" height="100" viewBox="0 0 100 100" fill="none" xmlns="http://www.w3.org/2000/svg">
<path d="M100 50C100 77.6135 77.6135 100 50 100C22.3866 100 0 77.6135 0 50C0 22.3865 22.3866 0 50 0C77.6135 0 100 22.3865 100 50Z" fill="white"/>
<path d="M26.3783 37.4366C25.7321 36.8937 24.8687 36.6248 23.7881 36.6248C22.7076 36.6248 21.8442 36.9144 21.1979 37.4883C20.5516 38.0622 20.2311 38.7808 20.2311 39.6339C20.2311 40.4869 20.5516 41.2056 21.1979 41.7795C21.8442 42.3533 22.7076 42.6428 23.7881 42.6428C24.8687 42.6428 25.7321 42.3533 26.3783 41.7639C27.0246 41.1797 27.3452 40.4352 27.3452 39.5253C27.3452 38.6722 27.0246 37.9742 26.3783 37.4314" fill="black"/>
<path d="M26.7447 43.7958H20.8301V58.1118H26.7447V43.7958Z" fill="black"/>
<path d="M45.6937 50.3517C46.3762 49.328 46.7123 48.113 46.7123 46.7016C46.7123 45.2901 46.371 44.0648 45.6937 43.0256C45.0112 41.9864 44.0496 41.1902 42.8036 40.6319C41.5576 40.0735 40.079 39.7943 38.3677 39.7943H29.5475V58.1171H35.7258V53.5106H37.4112L40.5184 58.1171H47.1155L43.2638 52.4714C44.2875 51.944 45.1095 51.2512 45.704 50.3568M39.8722 45.1299C40.2806 45.5124 40.4874 46.0398 40.4874 46.7016C40.4874 47.3634 40.2806 47.8855 39.8722 48.2733C39.4637 48.6559 38.8278 48.8472 37.9748 48.8472H35.7258V44.556H37.9748C38.8278 44.556 39.4637 44.7473 39.8722 45.1299Z" fill="black"/>
<path d="M55.1178 51.0444H62.8627V46.5981H55.1178V44.4525H63.9381V39.7891H49.043V58.1119H64.2793V53.4537H55.1178V51.0444Z" fill="black"/>
<path d="M81.4755 49.9483C81.1085 49.3021 80.6224 48.7799 80.0227 48.3766C79.423 47.9734 78.7612 47.6528 78.0478 47.4098C77.3343 47.1668 76.6105 46.9755 75.8866 46.8359C75.1628 46.6963 74.5011 46.5671 73.8962 46.443C73.2964 46.3241 72.8104 46.169 72.4433 45.9829C72.0763 45.8019 71.8953 45.5538 71.8953 45.2384C71.8953 45.0264 71.9677 44.8351 72.1176 44.6645C72.2675 44.4887 72.5157 44.3491 72.8621 44.2457C73.2085 44.1423 73.6842 44.0906 74.2736 44.0906C75.0749 44.0906 75.9022 44.2044 76.7449 44.4319C77.5928 44.6593 78.4665 45.0005 79.3764 45.4503L81.2325 40.9731C80.2709 40.4302 79.1904 40.0321 77.9857 39.7684C76.7811 39.5047 75.5609 39.3755 74.3201 39.3755C72.433 39.3755 70.8613 39.6547 69.5946 40.213C68.3279 40.7714 67.3767 41.5159 66.7408 42.4517C66.1048 43.3875 65.7842 44.4163 65.7842 45.5538C65.7842 46.5309 65.9652 47.3478 66.3323 47.9992C66.6994 48.6558 67.1853 49.1832 67.7851 49.5813C68.3848 49.9845 69.0518 50.3051 69.7756 50.5481C70.4994 50.791 71.218 50.9875 71.9367 51.1375C72.6501 51.2874 73.312 51.427 73.9117 51.5562C74.5114 51.6855 74.9974 51.8509 75.3644 52.0422C75.7315 52.2335 75.9125 52.4972 75.9125 52.8281C75.9125 53.0401 75.8349 53.2158 75.6746 53.3658C75.5195 53.5157 75.2714 53.6295 74.9302 53.707C74.589 53.7846 74.1237 53.8259 73.5291 53.8259C72.5158 53.8259 71.4765 53.6708 70.4012 53.3658C69.3258 53.0607 68.3538 52.6523 67.4801 52.1456L65.4896 56.6488C66.415 57.2072 67.5938 57.6621 69.0207 58.0085C70.4528 58.3549 71.9367 58.5307 73.4722 58.5307C75.3748 58.5307 76.9517 58.2464 78.208 57.6828C79.4643 57.1141 80.4105 56.3644 81.0464 55.4338C81.6823 54.5032 82.0028 53.4743 82.0028 52.3576C82.0028 51.396 81.8167 50.5946 81.4548 49.9483" fill="black"/>
<path d="M81.5011 60.3607H20.8301V63.3749H81.5011V60.3607Z" fill="black"/>
</svg>
