<svg width="72" height="72" viewBox="0 0 72 72" fill="none" xmlns="http://www.w3.org/2000/svg">
<path d="M72 36C72 55.8817 55.8817 72 36 72C16.1183 72 0 55.8817 0 36C0 16.1183 16.1183 0 36 0C55.8817 0 72 16.1183 72 36Z" fill="#FFC600"/>
<path d="M18.9923 26.9543C18.527 26.5635 17.9053 26.3699 17.1273 26.3699C16.3493 26.3699 15.7277 26.5784 15.2624 26.9916C14.797 27.4048 14.5663 27.9222 14.5663 28.5364C14.5663 29.1506 14.797 29.668 15.2624 30.0812C15.7277 30.4944 16.3493 30.7029 17.1273 30.7029C17.9053 30.7029 18.527 30.4944 18.9923 30.07C19.4576 29.6494 19.6884 29.1134 19.6884 28.4582C19.6884 27.844 19.4576 27.3415 18.9923 26.9506" fill="black"/>
<path d="M19.256 31.533H14.9975V41.8405H19.256V31.533Z" fill="black"/>
<path d="M32.8992 36.2534C33.3906 35.5163 33.6326 34.6416 33.6326 33.6253C33.6326 32.6091 33.3869 31.7269 32.8992 30.9786C32.4079 30.2304 31.7155 29.6572 30.8184 29.2551C29.9213 28.8531 28.8567 28.6521 27.6245 28.6521H21.274V41.8445H25.7224V38.5278H26.9358L29.1731 41.8445H33.9229L31.1497 37.7796C31.8868 37.3999 32.4786 36.9011 32.9067 36.2571M28.7077 32.4937C29.0018 32.7692 29.1507 33.1489 29.1507 33.6253C29.1507 34.1018 29.0018 34.4778 28.7077 34.757C28.4137 35.0324 27.9558 35.1701 27.3416 35.1701H25.7224V32.0805H27.3416C27.9558 32.0805 28.4137 32.2182 28.7077 32.4937Z" fill="black"/>
<path d="M39.6846 36.7521H45.2609V33.5508H39.6846V32.0059H46.0351V28.6483H35.3107V41.8407H46.2808V38.4868H39.6846V36.7521Z" fill="black"/>
<path d="M58.6624 35.9627C58.3982 35.4974 58.0482 35.1214 57.6164 34.8311C57.1846 34.5407 56.7081 34.3099 56.1944 34.135C55.6807 33.96 55.1596 33.8223 54.6384 33.7218C54.1173 33.6213 53.6408 33.5282 53.2053 33.4389C52.7735 33.3533 52.4236 33.2416 52.1593 33.1076C51.895 32.9773 51.7647 32.7986 51.7647 32.5715C51.7647 32.4189 51.8168 32.2812 51.9247 32.1584C52.0327 32.0318 52.2114 31.9313 52.4608 31.8568C52.7102 31.7824 53.0527 31.7451 53.477 31.7451C54.054 31.7451 54.6496 31.827 55.2564 31.9908C55.8669 32.1546 56.4959 32.4003 57.1511 32.7242L58.4875 29.5005C57.7951 29.1096 57.0171 28.823 56.1498 28.6332C55.2824 28.4433 54.4039 28.3503 53.5105 28.3503C52.1518 28.3503 51.0202 28.5513 50.1082 28.9533C49.1962 29.3553 48.5113 29.8914 48.0534 30.5651C47.5955 31.2389 47.3647 31.9797 47.3647 32.7986C47.3647 33.5022 47.495 34.0903 47.7593 34.5593C48.0236 35.0321 48.3735 35.4118 48.8053 35.6984C49.2371 35.9888 49.7174 36.2195 50.2385 36.3945C50.7596 36.5695 51.277 36.7109 51.7945 36.8189C52.3082 36.9268 52.7847 37.0273 53.2165 37.1204C53.6483 37.2134 53.9982 37.3326 54.2625 37.4703C54.5268 37.608 54.6571 37.7979 54.6571 38.0361C54.6571 38.1887 54.6012 38.3153 54.4858 38.4232C54.3741 38.5312 54.1955 38.6131 53.9498 38.6689C53.7041 38.7248 53.3691 38.7546 52.941 38.7546C52.2114 38.7546 51.4632 38.6429 50.6889 38.4232C49.9146 38.2036 49.2148 37.9096 48.5857 37.5448L47.1526 40.787C47.8189 41.1891 48.6676 41.5166 49.695 41.766C50.7261 42.0154 51.7945 42.142 52.9 42.142C54.2699 42.142 55.4053 41.9373 56.3098 41.5315C57.2144 41.1221 57.8956 40.5823 58.3535 39.9122C58.8113 39.2422 59.0421 38.5014 59.0421 37.6974C59.0421 37.005 58.9081 36.428 58.6475 35.9627" fill="black"/>
<path d="M58.6807 43.4597H14.9975V45.63H58.6807V43.4597Z" fill="black"/>
</svg>
