<?xml version="1.0" encoding="UTF-8" standalone="no"?>
<!-- Created with Inkscape (http://www.inkscape.org/) -->

<svg
   version="1.1"
   id="svg2"
   width="96"
   height="96"
   viewBox="0 0 96 96"
   sodipodi:docname="logo_iRES_big.eps"
   xmlns:inkscape="http://www.inkscape.org/namespaces/inkscape"
   xmlns:sodipodi="http://sodipodi.sourceforge.net/DTD/sodipodi-0.dtd"
   xmlns="http://www.w3.org/2000/svg"
   xmlns:svg="http://www.w3.org/2000/svg">
  <defs
     id="defs6" />
  <sodipodi:namedview
     id="namedview4"
     pagecolor="#ffffff"
     bordercolor="#000000"
     borderopacity="0.25"
     inkscape:showpageshadow="2"
     inkscape:pageopacity="0.0"
     inkscape:pagecheckerboard="0"
     inkscape:deskcolor="#d1d1d1" />
  <g
     id="g8"
     inkscape:groupmode="layer"
     inkscape:label="ink_ext_XXXXXX"
     transform="matrix(1.3333333,0,0,-1.3333333,0,96)">
    <g
       id="g10"
       transform="scale(0.1)">
      <path
         d="M 720,360 C 720,161.176 558.824,0 360,0 161.176,0 0,161.176 0,360 0,558.824 161.176,720 360,720 558.824,720 720,558.824 720,360"
         style="fill:#fbc208;fill-opacity:1;fill-rule:nonzero;stroke:none"
         id="path12" />
      <path
         d="m 189.906,450.465 c -4.652,3.89 -10.871,5.84 -18.66,5.84 -7.789,0 -14.008,-2.071 -18.656,-6.215 -4.649,-4.149 -6.973,-9.301 -6.973,-15.457 0,-6.156 2.324,-11.305 6.973,-15.453 4.648,-4.145 10.867,-6.215 18.656,-6.215 7.789,0 14.008,2.098 18.66,6.308 4.645,4.211 6.973,9.582 6.973,16.114 0,6.156 -2.328,11.183 -6.973,15.078"
         style="fill:#100f0d;fill-opacity:1;fill-rule:nonzero;stroke:none"
         id="path14" />
      <path
         d="m 149.953,301.586 h 42.59 v 103.082 h -42.59 V 301.586"
         style="fill:#100f0d;fill-opacity:1;fill-rule:nonzero;stroke:none"
         id="path16" />
      <path
         d="m 287.051,395.059 c 2.953,-2.766 4.429,-6.536 4.429,-11.309 0,-4.773 -1.476,-8.543 -4.429,-11.305 -2.953,-2.765 -7.508,-4.148 -13.66,-4.148 h -16.207 v 30.906 h 16.207 c 6.152,0 10.707,-1.383 13.66,-4.144 z m 41.933,-37.598 c 4.899,7.352 7.348,16.113 7.348,26.289 0,10.176 -2.449,19.004 -7.348,26.477 -4.898,7.476 -11.843,13.222 -20.828,17.246 -8.98,4.019 -19.629,6.031 -31.941,6.031 H 212.703 V 301.586 h 44.481 v 33.168 h 12.113 l 22.375,-33.168 h 47.488 l -27.754,40.668 c 7.379,3.781 13.305,8.797 17.578,15.207"
         style="fill:#100f0d;fill-opacity:1;fill-rule:nonzero;stroke:none"
         id="path18" />
      <path
         d="m 396.828,352.469 h 55.781 v 32.035 h -55.781 v 15.453 h 63.508 v 33.547 H 353.105 V 301.586 h 109.684 v 33.543 h -65.961 v 17.34"
         style="fill:#100f0d;fill-opacity:1;fill-rule:nonzero;stroke:none"
         id="path20" />
      <path
         d="m 586.605,360.383 c -2.64,4.648 -6.128,8.414 -10.46,11.305 -4.332,2.89 -9.079,5.214 -14.231,6.972 -5.148,1.762 -10.336,3.141 -15.547,4.149 -5.215,1.004 -9.984,1.945 -14.32,2.828 -4.336,0.875 -7.82,1.976 -10.461,3.297 -2.637,1.32 -3.961,3.109 -3.961,5.371 0,1.508 0.535,2.89 1.605,4.144 1.067,1.254 2.856,2.262 5.372,3.016 2.511,0.754 5.906,1.133 10.175,1.133 5.778,0 11.715,-0.821 17.813,-2.453 6.09,-1.633 12.402,-4.082 18.937,-7.348 l 13.379,32.226 c -6.91,3.891 -14.699,6.786 -23.367,8.668 -8.672,1.883 -17.465,2.829 -26.383,2.829 -13.57,0 -24.91,-2.012 -34.015,-6.032 -9.114,-4.023 -15.961,-9.394 -20.543,-16.113 -4.59,-6.723 -6.879,-14.164 -6.879,-22.332 0,-7.039 1.316,-12.91 3.957,-17.621 2.637,-4.711 6.125,-8.512 10.457,-11.402 4.336,-2.891 9.109,-5.215 14.324,-6.973 5.211,-1.762 10.395,-3.172 15.551,-4.238 5.144,-1.071 9.89,-2.075 14.226,-3.016 4.336,-0.941 7.821,-2.105 10.457,-3.488 2.641,-1.383 3.957,-3.266 3.957,-5.653 0,-1.507 -0.562,-2.797 -1.695,-3.863 -1.129,-1.07 -2.918,-1.883 -5.371,-2.449 -2.449,-0.567 -5.812,-0.852 -10.078,-0.852 -7.289,0 -14.797,1.102 -22.524,3.301 -7.726,2.195 -14.734,5.117 -21.015,8.762 l -14.32,-32.414 c 6.656,-4.02 15.136,-7.285 25.441,-9.801 10.301,-2.512 20.98,-3.766 32.039,-3.766 13.691,0 25.066,2.043 34.109,6.121 9.047,4.086 15.86,9.485 20.45,16.211 4.582,6.719 6.879,14.102 6.879,22.141 0,6.91 -1.325,12.691 -3.958,17.34"
         style="fill:#100f0d;fill-opacity:1;fill-rule:nonzero;stroke:none"
         id="path22" />
      <path
         d="m 161.883,279.516 c 0.617,-0.547 0.926,-1.289 0.926,-2.223 0,-0.973 -0.309,-1.73 -0.926,-2.266 -0.617,-0.539 -1.539,-0.804 -2.774,-0.804 h -3.25 v 6.113 h 3.25 c 1.235,0 2.157,-0.273 2.774,-0.82 z m 5.742,-6.34 c 0.742,1.133 1.117,2.508 1.117,4.117 0,1.57 -0.375,2.937 -1.117,4.102 -0.746,1.16 -1.816,2.05 -3.207,2.668 -1.395,0.617 -3.043,0.925 -4.953,0.925 h -9.512 v -20.875 h 5.906 v 5.543 h 3.192 l 3.785,-5.543 h 6.324 l -4.523,6.586 c 1.273,0.602 2.285,1.414 2.988,2.477"
         style="fill:#100f0d;fill-opacity:1;fill-rule:nonzero;stroke:none"
         id="path24" />
      <path
         d="m 177.836,272.52 h 9.273 v 4.386 h -9.273 v 3.489 h 10.527 v 4.593 H 172.02 v -20.875 h 16.73 v 4.59 h -10.914 v 3.817"
         style="fill:#100f0d;fill-opacity:1;fill-rule:nonzero;stroke:none"
         id="path26" />
      <path
         d="m 206.27,274.922 c -0.704,0.449 -1.473,0.805 -2.309,1.074 -0.836,0.27 -1.676,0.492 -2.52,0.668 -0.847,0.184 -1.617,0.356 -2.312,0.524 -0.695,0.167 -1.266,0.39 -1.699,0.656 -0.438,0.269 -0.657,0.64 -0.657,1.117 0,0.32 0.11,0.617 0.329,0.898 0.218,0.278 0.574,0.504 1.074,0.684 0.496,0.18 1.148,0.27 1.965,0.27 0.914,0 1.859,-0.129 2.836,-0.387 0.968,-0.258 1.953,-0.668 2.949,-1.227 l 1.793,4.356 c -1.016,0.617 -2.188,1.078 -3.508,1.386 -1.32,0.309 -2.664,0.461 -4.039,0.461 -2.047,0 -3.758,-0.304 -5.129,-0.922 -1.371,-0.617 -2.395,-1.433 -3.07,-2.445 -0.676,-1.015 -1.012,-2.137 -1.012,-3.371 0,-1.113 0.211,-2.039 0.637,-2.773 0.429,-0.735 0.992,-1.332 1.683,-1.789 0.699,-0.457 1.473,-0.825 2.328,-1.106 0.856,-0.277 1.696,-0.5 2.52,-0.668 0.824,-0.172 1.594,-0.348 2.297,-0.539 0.707,-0.187 1.277,-0.418 1.715,-0.684 0.437,-0.269 0.656,-0.632 0.656,-1.089 0,-0.36 -0.113,-0.664 -0.344,-0.926 -0.226,-0.258 -0.586,-0.453 -1.074,-0.594 -0.488,-0.141 -1.149,-0.211 -1.981,-0.211 -1.214,0 -2.433,0.195 -3.656,0.582 -1.222,0.391 -2.297,0.879 -3.234,1.477 l -1.938,-4.383 c 0.973,-0.656 2.25,-1.199 3.832,-1.625 1.578,-0.43 3.235,-0.641 4.961,-0.641 2.071,0 3.793,0.309 5.164,0.922 1.371,0.617 2.403,1.438 3.086,2.461 0.688,1.024 1.028,2.145 1.028,3.356 0,1.093 -0.219,2.004 -0.657,2.726 -0.433,0.727 -1.007,1.313 -1.714,1.762"
         style="fill:#100f0d;fill-opacity:1;fill-rule:nonzero;stroke:none"
         id="path28" />
      <path
         d="m 217.172,272.52 h 9.273 v 4.386 h -9.273 v 3.489 h 10.527 v 4.593 h -16.344 v -20.875 h 16.731 v 4.59 h -10.914 v 3.817"
         style="fill:#100f0d;fill-opacity:1;fill-rule:nonzero;stroke:none"
         id="path30" />
      <path
         d="m 243.324,279.516 c 0.617,-0.547 0.926,-1.289 0.926,-2.223 0,-0.973 -0.309,-1.73 -0.926,-2.266 -0.617,-0.539 -1.539,-0.804 -2.773,-0.804 h -3.25 v 6.113 h 3.25 c 1.234,0 2.156,-0.273 2.773,-0.82 z m 5.742,-6.34 c 0.747,1.133 1.118,2.508 1.118,4.117 0,1.57 -0.371,2.937 -1.118,4.102 -0.746,1.16 -1.816,2.05 -3.207,2.668 -1.39,0.617 -3.043,0.925 -4.949,0.925 h -9.515 v -20.875 h 5.906 v 5.543 h 3.191 l 3.785,-5.543 h 6.325 l -4.524,6.586 c 1.274,0.602 2.285,1.414 2.988,2.477"
         style="fill:#100f0d;fill-opacity:1;fill-rule:nonzero;stroke:none"
         id="path32" />
      <path
         d="m 262.965,271.371 -5.684,13.617 h -6.355 l 8.918,-20.875 h 5.816 l 8.949,20.875 h -5.847 l -5.797,-13.617"
         style="fill:#100f0d;fill-opacity:1;fill-rule:nonzero;stroke:none"
         id="path34" />
      <path
         d="m 282.121,272.52 h 9.274 v 4.386 h -9.274 v 3.489 h 10.527 v 4.593 h -16.343 v -20.875 h 16.73 v 4.59 h -10.914 v 3.817"
         style="fill:#100f0d;fill-opacity:1;fill-rule:nonzero;stroke:none"
         id="path36" />
      <path
         d="m 310.84,272.52 h 9.273 v 4.386 h -9.273 v 3.489 h 10.527 v 4.593 h -16.344 v -20.875 h 16.731 v 4.59 H 310.84 v 3.817"
         style="fill:#100f0d;fill-opacity:1;fill-rule:nonzero;stroke:none"
         id="path38" />
      <path
         d="m 339.109,273.871 -9.187,11.117 h -4.859 v -20.875 h 5.757 v 11.121 l 9.215,-11.121 h 4.86 v 20.875 h -5.786 v -11.117"
         style="fill:#100f0d;fill-opacity:1;fill-rule:nonzero;stroke:none"
         id="path40" />
      <path
         d="m 354.918,272.52 h 9.273 v 4.386 h -9.273 v 3.489 h 10.527 v 4.593 h -16.343 v -20.875 h 16.73 v 4.59 h -10.914 v 3.817"
         style="fill:#100f0d;fill-opacity:1;fill-rule:nonzero;stroke:none"
         id="path42" />
      <path
         d="m 381.07,279.516 c 0.618,-0.547 0.926,-1.289 0.926,-2.223 0,-0.973 -0.308,-1.73 -0.926,-2.266 -0.617,-0.539 -1.539,-0.804 -2.773,-0.804 h -3.25 v 6.113 h 3.25 c 1.234,0 2.156,-0.273 2.773,-0.82 z m 5.743,-6.34 c 0.742,1.133 1.117,2.508 1.117,4.117 0,1.57 -0.375,2.937 -1.117,4.102 -0.747,1.16 -1.821,2.05 -3.208,2.668 -1.39,0.617 -3.042,0.925 -4.953,0.925 h -9.511 v -20.875 h 5.906 v 5.543 h 3.191 l 3.785,-5.543 h 6.325 l -4.524,6.586 c 1.274,0.602 2.285,1.414 2.989,2.477"
         style="fill:#100f0d;fill-opacity:1;fill-rule:nonzero;stroke:none"
         id="path44" />
      <path
         d="m 397.711,278.887 c 0.516,0.527 1.141,0.929 1.879,1.207 0.734,0.277 1.547,0.422 2.441,0.422 1.016,0 1.938,-0.192 2.758,-0.571 0.828,-0.375 1.598,-0.965 2.313,-1.757 l 3.757,3.398 c -1.011,1.234 -2.296,2.18 -3.843,2.836 -1.555,0.656 -3.301,0.98 -5.25,0.98 -1.711,0 -3.274,-0.261 -4.684,-0.789 -1.41,-0.527 -2.641,-1.273 -3.684,-2.234 -1.043,-0.969 -1.851,-2.113 -2.429,-3.445 -0.578,-1.332 -0.864,-2.793 -0.864,-4.383 0,-1.594 0.286,-3.055 0.864,-4.387 0.578,-1.332 1.383,-2.48 2.418,-3.441 1.031,-0.965 2.246,-1.711 3.636,-2.239 1.391,-0.527 2.926,-0.789 4.594,-0.789 1.508,0 3.043,0.227 4.606,0.684 1.562,0.457 2.949,1.113 4.164,1.969 v 8.648 h -5.254 v -5.633 c -0.195,-0.09 -0.399,-0.277 -0.594,-0.347 -0.836,-0.286 -1.691,-0.43 -2.566,-0.43 -0.875,0 -1.672,0.144 -2.399,0.43 -0.726,0.289 -1.347,0.695 -1.863,1.222 -0.52,0.528 -0.922,1.16 -1.211,1.895 -0.285,0.738 -0.434,1.539 -0.434,2.418 0,0.894 0.149,1.707 0.434,2.445 0.289,0.734 0.691,1.363 1.211,1.891"
         style="fill:#100f0d;fill-opacity:1;fill-rule:nonzero;stroke:none"
         id="path46" />
      <path
         d="m 427.59,284.988 -4.977,-8.304 -4.925,8.304 h -6.262 l 7.992,-13.312 v -7.563 h 5.906 v 7.434 l 7.989,13.441 h -5.723"
         style="fill:#100f0d;fill-opacity:1;fill-rule:nonzero;stroke:none"
         id="path48" />
      <path
         d="m 457.723,274.922 c -0.707,0.449 -1.477,0.805 -2.309,1.074 -0.836,0.27 -1.676,0.492 -2.519,0.668 -0.848,0.184 -1.618,0.356 -2.317,0.524 -0.691,0.167 -1.262,0.39 -1.695,0.656 -0.442,0.269 -0.66,0.64 -0.66,1.117 0,0.32 0.113,0.617 0.332,0.898 0.218,0.278 0.574,0.504 1.07,0.684 0.5,0.18 1.156,0.27 1.973,0.27 0.91,0 1.855,-0.129 2.832,-0.387 0.972,-0.258 1.957,-0.668 2.953,-1.227 l 1.789,4.356 c -1.016,0.617 -2.188,1.078 -3.504,1.386 -1.324,0.309 -2.672,0.461 -4.043,0.461 -2.047,0 -3.758,-0.304 -5.129,-0.922 -1.375,-0.617 -2.394,-1.433 -3.074,-2.445 -0.672,-1.015 -1.012,-2.137 -1.012,-3.371 0,-1.113 0.215,-2.039 0.641,-2.773 0.429,-0.735 0.988,-1.332 1.683,-1.789 0.7,-0.457 1.473,-0.825 2.329,-1.106 0.855,-0.277 1.695,-0.5 2.519,-0.668 0.824,-0.172 1.59,-0.348 2.297,-0.539 0.707,-0.187 1.273,-0.418 1.715,-0.684 0.433,-0.269 0.652,-0.632 0.652,-1.089 0,-0.36 -0.109,-0.664 -0.34,-0.926 -0.23,-0.258 -0.586,-0.453 -1.074,-0.594 -0.484,-0.141 -1.148,-0.211 -1.98,-0.211 -1.215,0 -2.434,0.195 -3.657,0.582 -1.222,0.391 -2.3,0.879 -3.234,1.477 l -1.938,-4.383 c 0.973,-0.656 2.25,-1.199 3.832,-1.625 1.579,-0.43 3.235,-0.641 4.965,-0.641 2.071,0 3.789,0.309 5.16,0.922 1.372,0.617 2.399,1.438 3.086,2.461 0.688,1.024 1.032,2.145 1.032,3.356 0,1.093 -0.219,2.004 -0.66,2.726 -0.434,0.727 -1.008,1.313 -1.715,1.762"
         style="fill:#100f0d;fill-opacity:1;fill-rule:nonzero;stroke:none"
         id="path50" />
      <path
         d="m 476.23,284.988 -4.972,-8.304 -4.93,8.304 h -6.262 l 7.993,-13.312 v -7.563 h 5.906 v 7.434 l 7.988,13.441 h -5.723"
         style="fill:#100f0d;fill-opacity:1;fill-rule:nonzero;stroke:none"
         id="path52" />
      <path
         d="m 497.688,274.922 c -0.708,0.449 -1.477,0.805 -2.313,1.074 -0.836,0.27 -1.676,0.492 -2.52,0.668 -0.847,0.184 -1.617,0.356 -2.312,0.524 -0.695,0.167 -1.262,0.39 -1.699,0.656 -0.438,0.269 -0.656,0.64 -0.656,1.117 0,0.32 0.109,0.617 0.328,0.898 0.218,0.278 0.578,0.504 1.074,0.684 0.5,0.18 1.152,0.27 1.969,0.27 0.91,0 1.855,-0.129 2.832,-0.387 0.972,-0.258 1.957,-0.668 2.953,-1.227 l 1.789,4.356 c -1.016,0.617 -2.184,1.078 -3.504,1.386 -1.32,0.309 -2.668,0.461 -4.039,0.461 -2.051,0 -3.762,-0.304 -5.133,-0.922 -1.371,-0.617 -2.394,-1.433 -3.074,-2.445 -0.672,-1.015 -1.012,-2.137 -1.012,-3.371 0,-1.113 0.215,-2.039 0.645,-2.773 0.425,-0.735 0.988,-1.332 1.683,-1.789 0.696,-0.457 1.469,-0.825 2.328,-1.106 0.852,-0.277 1.696,-0.5 2.52,-0.668 0.82,-0.172 1.59,-0.348 2.297,-0.539 0.703,-0.187 1.273,-0.418 1.711,-0.684 0.433,-0.269 0.656,-0.632 0.656,-1.089 0,-0.36 -0.113,-0.664 -0.344,-0.926 -0.226,-0.258 -0.586,-0.453 -1.074,-0.594 -0.484,-0.141 -1.145,-0.211 -1.98,-0.211 -1.215,0 -2.43,0.195 -3.657,0.582 -1.218,0.391 -2.297,0.879 -3.234,1.477 l -1.938,-4.383 c 0.973,-0.656 2.254,-1.199 3.832,-1.625 1.582,-0.43 3.239,-0.641 4.965,-0.641 2.071,0 3.789,0.309 5.16,0.922 1.375,0.617 2.403,1.438 3.086,2.461 0.688,1.024 1.032,2.145 1.032,3.356 0,1.093 -0.219,2.004 -0.661,2.726 -0.433,0.727 -1.007,1.313 -1.71,1.762"
         style="fill:#100f0d;fill-opacity:1;fill-rule:nonzero;stroke:none"
         id="path54" />
      <path
         d="m 500.77,280.305 h 6.41 v -16.192 h 5.906 v 16.192 h 6.383 v 4.683 H 500.77 v -4.683"
         style="fill:#100f0d;fill-opacity:1;fill-rule:nonzero;stroke:none"
         id="path56" />
      <path
         d="m 527.52,272.52 h 9.277 v 4.386 h -9.277 v 3.489 h 10.531 v 4.593 h -16.348 v -20.875 h 16.735 v 4.59 H 527.52 v 3.817"
         style="fill:#100f0d;fill-opacity:1;fill-rule:nonzero;stroke:none"
         id="path58" />
      <path
         d="m 561.098,284.988 -7.168,-12.062 -7.325,12.062 h -4.859 v -20.875 h 5.43 v 10.766 l 5.336,-8.711 h 2.625 l 5.375,9.02 0.051,-11.075 h 5.429 l -0.031,20.875 h -4.863"
         style="fill:#100f0d;fill-opacity:1;fill-rule:nonzero;stroke:none"
         id="path60" />
      <path
         d="m 586.148,273.16 c -0.433,0.727 -1.007,1.313 -1.714,1.762 -0.704,0.449 -1.473,0.805 -2.309,1.074 -0.836,0.27 -1.676,0.492 -2.52,0.668 -0.843,0.184 -1.617,0.356 -2.312,0.524 -0.695,0.167 -1.262,0.39 -1.699,0.656 -0.438,0.269 -0.656,0.64 -0.656,1.117 0,0.32 0.109,0.617 0.328,0.898 0.218,0.278 0.574,0.504 1.074,0.684 0.496,0.18 1.152,0.27 1.965,0.27 0.918,0 1.859,-0.129 2.836,-0.387 0.972,-0.258 1.957,-0.668 2.949,-1.227 l 1.793,4.356 c -1.016,0.617 -2.184,1.078 -3.504,1.386 -1.324,0.309 -2.668,0.461 -4.039,0.461 -2.051,0 -3.762,-0.304 -5.133,-0.922 -1.371,-0.617 -2.394,-1.433 -3.07,-2.445 -0.676,-1.015 -1.016,-2.137 -1.016,-3.371 0,-1.113 0.215,-2.039 0.645,-2.773 0.425,-0.735 0.988,-1.332 1.683,-1.789 0.696,-0.457 1.469,-0.825 2.324,-1.106 0.856,-0.277 1.696,-0.5 2.52,-0.668 0.824,-0.172 1.594,-0.348 2.297,-0.539 0.707,-0.187 1.277,-0.418 1.715,-0.684 0.437,-0.269 0.656,-0.632 0.656,-1.089 0,-0.36 -0.113,-0.664 -0.344,-0.926 -0.226,-0.258 -0.586,-0.453 -1.074,-0.594 -0.484,-0.141 -1.145,-0.211 -1.98,-0.211 -1.215,0 -2.434,0.195 -3.657,0.582 -1.222,0.391 -2.301,0.879 -3.234,1.477 l -1.938,-4.383 c 0.973,-0.656 2.254,-1.199 3.832,-1.625 1.582,-0.43 3.235,-0.641 4.965,-0.641 2.071,0 3.789,0.309 5.16,0.922 1.372,0.617 2.403,1.438 3.086,2.461 0.688,1.024 1.032,2.145 1.032,3.356 0,1.093 -0.219,2.004 -0.661,2.726"
         style="fill:#100f0d;fill-opacity:1;fill-rule:nonzero;stroke:none"
         id="path62" />
    </g>
  </g>
</svg>
