<svg width="300" height="300" viewBox="0 0 300 300" fill="none" xmlns="http://www.w3.org/2000/svg">
<circle cx="150" cy="150" r="150" fill="white"/>
<g clip-path="url(#clip0_4_70)">
<path d="M150 291C227.872 291 291 227.872 291 150C291 72.1279 227.872 9 150 9C72.1279 9 9 72.1279 9 150C9 227.872 72.1279 291 150 291Z" fill="#FFC600"/>
<path d="M83.3818 114.581C81.5558 113.057 79.1191 112.295 76.0718 112.295C73.0244 112.295 70.5878 113.101 68.7618 114.714C67.9063 115.472 67.2213 116.403 66.7522 117.445C66.2832 118.487 66.0406 119.617 66.0406 120.76C66.0406 121.903 66.2832 123.033 66.7522 124.075C67.2213 125.118 67.9063 126.048 68.7618 126.806C70.5797 128.419 73.0164 129.225 76.0718 129.225C79.1272 129.225 81.5638 128.401 83.3818 126.752C84.2691 125.962 84.973 124.988 85.444 123.898C85.9151 122.807 86.1419 121.627 86.1086 120.44C86.1299 119.32 85.8954 118.21 85.4228 117.195C84.9502 116.179 84.2522 115.285 83.3818 114.581Z" fill="black"/>
<path d="M84.4157 132.502H67.7339V172.879H84.4157V132.502Z" fill="black"/>
<path d="M137.853 150.998C139.822 147.938 140.824 144.356 140.731 140.719C140.862 137.079 139.875 133.487 137.902 130.425C135.929 127.363 133.065 124.98 129.697 123.596C126.178 122.016 122.006 121.228 117.181 121.232H92.3061V172.903H109.732V159.892H114.472L123.239 172.885H141.837L130.954 156.953C133.73 155.598 136.107 153.546 137.853 150.998ZM121.425 136.275C122.541 137.479 123.16 139.06 123.16 140.701C123.16 142.342 122.541 143.923 121.425 145.127C120.27 146.215 118.487 146.753 116.074 146.753H109.732V134.66H116.074C118.489 134.652 120.272 135.191 121.425 136.275Z" fill="black"/>
<path d="M164.427 152.951H186.272V140.405H164.427V134.352H189.301V121.214H147.297V172.879H190.262V159.741H164.427V152.951Z" fill="black"/>
<path d="M238.754 149.855C237.755 148.072 236.348 146.551 234.648 145.417C232.918 144.27 231.046 143.354 229.08 142.69C227.09 142.008 225.056 141.465 222.991 141.064C220.947 140.66 219.077 140.292 217.38 139.957C215.964 139.705 214.586 139.27 213.281 138.663C212.249 138.151 211.733 137.45 211.733 136.559C211.728 135.963 211.943 135.386 212.338 134.939C212.914 134.346 213.645 133.927 214.448 133.729C215.749 133.399 217.09 133.25 218.432 133.288C220.788 133.301 223.132 133.624 225.404 134.249C227.972 134.968 230.461 135.942 232.835 137.158L238.077 124.539C235.214 122.952 232.128 121.806 228.923 121.141C225.532 120.4 222.072 120.025 218.602 120.022C213.285 120.022 208.851 120.81 205.3 122.387C201.748 123.963 199.066 126.065 197.252 128.693C195.475 131.263 194.534 134.318 194.555 137.442C194.472 139.837 195.007 142.213 196.109 144.341C197.095 146.137 198.499 147.669 200.203 148.809C201.945 149.962 203.831 150.881 205.814 151.542C207.808 152.217 209.841 152.77 211.902 153.199C213.922 153.616 215.778 154.015 217.477 154.408C218.895 154.681 220.271 155.138 221.57 155.768C222.017 155.947 222.402 156.252 222.678 156.646C222.954 157.04 223.109 157.506 223.124 157.987C223.126 158.272 223.068 158.554 222.954 158.814C222.839 159.075 222.67 159.308 222.459 159.499C221.852 159.995 221.127 160.326 220.355 160.46C219.054 160.711 217.731 160.822 216.407 160.793C213.42 160.772 210.452 160.336 207.585 159.499C204.71 158.702 201.945 157.548 199.356 156.064L193.745 168.762C196.855 170.535 200.214 171.829 203.709 172.601C207.819 173.595 212.034 174.09 216.262 174.076C221.619 174.076 226.071 173.27 229.618 171.658C233.165 170.046 235.836 167.929 237.629 165.309C239.397 162.765 240.337 159.737 240.32 156.639C240.397 154.28 239.857 151.942 238.754 149.855Z" fill="black"/>
<path d="M74.6509 184.01C74.9399 183.524 75.0924 182.968 75.0924 182.402C75.0924 181.836 74.9399 181.281 74.6509 180.794C74.3483 180.325 73.9094 179.96 73.3932 179.748C72.7808 179.493 72.1216 179.369 71.4584 179.385H67.7339V187.56H70.0436V185.389H71.2952L72.7765 187.56H75.2555L73.4839 184.978C73.9555 184.771 74.3597 184.435 74.6509 184.01ZM72.4016 181.525C72.6346 181.759 72.7655 182.075 72.7655 182.405C72.7655 182.735 72.6346 183.051 72.4016 183.285C72.0911 183.518 71.7063 183.63 71.3193 183.599H70.0436V181.181H71.3193C71.7102 181.159 72.0953 181.282 72.4016 181.525Z" fill="black"/>
<path d="M78.6535 184.264H82.2874V182.547H78.6535V181.181H82.7771V179.379H76.3741V187.554H82.9283V185.758H78.6535V184.264Z" fill="black"/>
<path d="M89.7908 183.327C89.5067 183.15 89.2022 183.008 88.8839 182.904C88.56 182.8 88.2311 182.714 87.8983 182.644L86.9914 182.438C86.7571 182.388 86.5324 182.301 86.3263 182.178C86.2473 182.137 86.1814 182.074 86.1355 181.997C86.0897 181.92 86.0658 181.833 86.0663 181.743C86.0666 181.614 86.1139 181.489 86.1993 181.392C86.3099 181.266 86.4548 181.173 86.6165 181.126C86.8662 181.046 87.1281 181.009 87.3904 181.018C87.7641 181.022 88.1358 181.073 88.4969 181.169C88.9013 181.279 89.2896 181.441 89.6517 181.652L90.3531 179.941C89.9264 179.692 89.4633 179.51 88.9806 179.403C88.4633 179.282 87.9338 179.221 87.4025 179.222C86.7134 179.2 86.0274 179.324 85.3891 179.585C84.9039 179.783 84.4847 180.114 84.1798 180.54C83.9208 180.93 83.7839 181.389 83.7868 181.858C83.7743 182.236 83.8597 182.611 84.0347 182.946C84.1969 183.228 84.4226 183.468 84.6938 183.648C84.9778 183.83 85.2848 183.975 85.6068 184.077C85.9303 184.183 86.2593 184.272 86.5923 184.343C86.9188 184.41 87.1969 184.476 87.4932 184.555C87.7284 184.611 87.9544 184.701 88.1644 184.821C88.2424 184.862 88.3077 184.924 88.3535 185C88.3993 185.075 88.4238 185.162 88.4243 185.25C88.4263 185.383 88.3764 185.511 88.2853 185.607C88.1723 185.724 88.0272 185.806 87.8681 185.843C87.6228 185.903 87.3708 185.931 87.1183 185.927C86.6337 185.924 86.1524 185.847 85.6914 185.697C85.2433 185.553 84.8164 185.35 84.4217 185.093L83.6659 186.81C84.127 187.105 84.6336 187.321 85.1654 187.451C85.7988 187.617 86.4513 187.701 87.1062 187.699C87.7994 187.721 88.4894 187.597 89.1317 187.336C89.6169 187.135 90.0358 186.802 90.341 186.375C90.6036 185.985 90.7427 185.526 90.7401 185.057C90.7531 184.685 90.6653 184.318 90.4861 183.992C90.3092 183.72 90.0711 183.492 89.7908 183.327Z" fill="black"/>
<path d="M94.0595 184.264H97.6933V182.547H94.0595V181.181H98.1831V179.379H91.78V187.554H98.3342V185.758H94.0595V184.264Z" fill="black"/>
<path d="M106.551 184.011C106.837 183.523 106.987 182.967 106.987 182.402C106.987 181.837 106.837 181.282 106.551 180.794C106.247 180.326 105.809 179.962 105.294 179.748C104.679 179.492 104.018 179.369 103.353 179.385H99.6282V187.56H101.944V185.389H103.195L104.653 187.56H107.126L105.354 184.978C105.836 184.774 106.251 184.439 106.551 184.011ZM104.302 181.525C104.535 181.759 104.666 182.075 104.666 182.405C104.666 182.735 104.535 183.051 104.302 183.285C103.989 183.518 103.602 183.629 103.214 183.599H101.944V181.181H103.214C103.606 181.159 103.993 181.282 104.302 181.525Z" fill="black"/>
<path d="M111.993 184.712L109.768 179.379H107.277L110.772 187.554H113.051L116.552 179.379H114.266L111.993 184.712Z" fill="black"/>
<path d="M119.496 184.264H123.13V182.547H119.496V181.181H123.62V179.379H117.223V187.554H123.771V185.758H119.496V184.264Z" fill="black"/>
<path d="M130.742 184.264H134.376V182.547H130.742V181.181H134.872V179.379H128.469V187.554H135.023V185.758H130.742V184.264Z" fill="black"/>
<path d="M141.819 183.732L138.222 179.379H136.317V187.554H138.572V183.2L142.182 187.554H144.087V179.379H141.819V183.732Z" fill="black"/>
<path d="M148.011 184.264H151.639V182.547H148.011V181.181H152.134V179.379H145.731V187.554H152.286V185.758H148.011V184.264Z" fill="black"/>
<path d="M160.502 184.011C160.788 183.523 160.938 182.967 160.938 182.402C160.938 181.837 160.788 181.282 160.502 180.794C160.198 180.326 159.76 179.962 159.245 179.748C158.63 179.492 157.969 179.369 157.304 179.385H153.579V187.56H155.895V185.389H157.141L158.628 187.56H161.101L159.329 184.978C159.803 184.771 160.209 184.436 160.502 184.011ZM158.253 181.525C158.486 181.759 158.617 182.075 158.617 182.405C158.617 182.735 158.486 183.051 158.253 183.285C157.94 183.518 157.554 183.629 157.165 183.599H155.895V181.181H157.165C157.558 181.159 157.944 181.282 158.253 181.525Z" fill="black"/>
<path d="M164.771 181.773C164.978 181.565 165.227 181.404 165.503 181.302C165.811 181.19 166.136 181.135 166.464 181.139C166.834 181.133 167.201 181.207 167.54 181.356C167.886 181.522 168.195 181.756 168.447 182.045L169.923 180.715C169.517 180.227 168.998 179.845 168.411 179.603C167.164 179.121 165.787 179.095 164.523 179.53C163.99 179.723 163.5 180.021 163.084 180.407C162.673 180.783 162.347 181.243 162.129 181.755C161.677 182.855 161.677 184.089 162.129 185.19C162.347 185.701 162.671 186.16 163.078 186.538C163.488 186.923 163.971 187.221 164.499 187.415C165.08 187.627 165.695 187.731 166.313 187.723C166.927 187.72 167.538 187.631 168.127 187.457C168.71 187.291 169.262 187.029 169.759 186.683V183.297H167.704V185.504C167.628 185.553 167.549 185.597 167.468 185.637C167.145 185.75 166.806 185.807 166.464 185.806C166.142 185.811 165.821 185.754 165.521 185.637C165.247 185.533 164.999 185.37 164.795 185.159C164.586 184.947 164.424 184.694 164.318 184.416C164.204 184.114 164.146 183.795 164.148 183.472C164.146 183.144 164.204 182.819 164.318 182.511C164.418 182.237 164.572 181.987 164.771 181.773Z" fill="black"/>
<path d="M176.471 179.379L174.524 182.632L172.595 179.379H170.14L173.272 184.597V187.554H175.588V184.645L178.714 179.379H176.471Z" fill="black"/>
<path d="M188.273 183.327C187.992 183.149 187.689 183.007 187.372 182.904C187.047 182.8 186.716 182.713 186.381 182.644L185.48 182.438C185.245 182.388 185.021 182.301 184.815 182.178C184.735 182.138 184.668 182.075 184.622 181.998C184.576 181.921 184.553 181.833 184.555 181.743C184.555 181.615 184.6 181.491 184.682 181.392C184.796 181.267 184.942 181.175 185.105 181.126C185.353 181.045 185.612 181.009 185.873 181.018C186.248 181.022 186.622 181.073 186.985 181.169C187.39 181.279 187.778 181.441 188.14 181.652L188.842 179.941C188.414 179.694 187.951 179.512 187.469 179.403C186.95 179.282 186.418 179.221 185.885 179.222C185.198 179.201 184.514 179.324 183.878 179.585C183.391 179.781 182.972 180.112 182.668 180.54C182.405 180.929 182.265 181.388 182.269 181.858C182.256 182.237 182.343 182.613 182.523 182.946C182.685 183.228 182.911 183.468 183.182 183.648C183.465 183.833 183.772 183.977 184.095 184.077C184.418 184.185 184.747 184.273 185.081 184.343C185.401 184.41 185.685 184.476 185.982 184.555C186.216 184.613 186.442 184.703 186.653 184.821C186.73 184.862 186.795 184.924 186.839 185C186.884 185.076 186.907 185.162 186.907 185.25C186.911 185.382 186.863 185.51 186.774 185.607C186.658 185.724 186.511 185.806 186.35 185.842C186.097 185.906 185.837 185.934 185.577 185.927C185.09 185.925 184.607 185.847 184.144 185.697C183.697 185.554 183.272 185.351 182.88 185.093L182.118 186.81C182.58 187.104 183.086 187.32 183.618 187.451C184.253 187.617 184.908 187.7 185.564 187.699C186.256 187.721 186.944 187.597 187.584 187.336C188.07 187.137 188.489 186.803 188.793 186.375C189.06 185.987 189.202 185.527 189.198 185.056C189.213 184.684 189.123 184.316 188.938 183.992C188.772 183.722 188.544 183.494 188.273 183.327Z" fill="black"/>
<path d="M195.523 179.379L193.576 182.632L191.647 179.379H189.192L192.324 184.597V187.554H194.634V184.645L197.766 179.379H195.523Z" fill="black"/>
<path d="M203.927 183.327C203.643 183.15 203.338 183.008 203.02 182.904C202.697 182.8 202.368 182.713 202.035 182.644L201.128 182.438C200.893 182.388 200.669 182.301 200.463 182.178C200.384 182.136 200.319 182.073 200.274 181.996C200.23 181.92 200.207 181.832 200.209 181.743C200.209 181.615 200.254 181.491 200.336 181.392C200.447 181.264 200.595 181.171 200.759 181.126C201.006 181.045 201.266 181.009 201.527 181.018C201.902 181.022 202.276 181.073 202.639 181.169C203.043 181.28 203.431 181.443 203.794 181.652L204.495 179.941C204.068 179.694 203.605 179.512 203.123 179.403C202.604 179.282 202.072 179.221 201.539 179.222C200.852 179.2 200.168 179.324 199.531 179.585C199.045 179.781 198.625 180.112 198.322 180.54C198.059 180.929 197.919 181.388 197.923 181.858C197.91 182.237 197.997 182.613 198.177 182.946C198.338 183.229 198.564 183.47 198.836 183.648C199.117 183.831 199.423 183.976 199.743 184.077C200.068 184.184 200.399 184.273 200.735 184.343C201.055 184.41 201.339 184.476 201.629 184.555C201.865 184.611 202.091 184.701 202.301 184.821C202.38 184.861 202.446 184.923 202.492 184.998C202.537 185.074 202.561 185.161 202.561 185.25C202.562 185.381 202.514 185.508 202.428 185.607C202.312 185.724 202.165 185.806 202.004 185.843C201.751 185.906 201.491 185.934 201.23 185.927C200.744 185.925 200.26 185.847 199.797 185.697C199.349 185.553 198.922 185.349 198.528 185.093L197.766 186.834C198.228 187.128 198.734 187.344 199.265 187.475C199.901 187.641 200.555 187.724 201.212 187.723C201.903 187.745 202.591 187.621 203.232 187.36C203.718 187.161 204.137 186.827 204.441 186.399C204.705 186.01 204.847 185.551 204.846 185.081C204.857 184.709 204.767 184.341 204.586 184.017C204.424 183.738 204.198 183.501 203.927 183.327Z" fill="black"/>
<path d="M205.136 181.217H207.646V187.554H209.961V181.217H212.458V179.379H205.136V181.217Z" fill="black"/>
<path d="M215.615 184.264H219.248V182.547H215.615V181.181H219.738V179.379H213.335V187.554H219.889V185.758H215.615V184.264Z" fill="black"/>
<path d="M228.765 179.379L225.954 184.107L223.088 179.379H221.183V187.554H223.312V183.339L225.404 186.749H226.431L228.536 183.218L228.554 187.554H230.682L230.67 179.379H228.765Z" fill="black"/>
<path d="M238.572 184.017C238.407 183.736 238.177 183.5 237.901 183.327C237.62 183.149 237.317 183.007 237 182.904C236.677 182.8 236.348 182.714 236.015 182.644L235.108 182.438C234.874 182.388 234.649 182.301 234.443 182.178C234.363 182.138 234.296 182.075 234.25 181.998C234.204 181.921 234.181 181.833 234.183 181.743C234.184 181.615 234.228 181.491 234.31 181.392C234.424 181.267 234.57 181.175 234.733 181.126C234.981 181.046 235.241 181.009 235.501 181.018C235.877 181.021 236.25 181.072 236.613 181.169C237.018 181.279 237.406 181.441 237.768 181.652L238.47 179.941C238.042 179.693 237.579 179.511 237.097 179.403C236.578 179.282 236.046 179.221 235.513 179.222C234.826 179.201 234.142 179.324 233.506 179.585C233.019 179.781 232.6 180.112 232.296 180.54C232.033 180.929 231.894 181.388 231.897 181.858C231.884 182.237 231.971 182.613 232.151 182.946C232.313 183.228 232.539 183.468 232.81 183.648C233.093 183.833 233.4 183.977 233.723 184.077C234.047 184.184 234.376 184.273 234.709 184.343C235.029 184.41 235.313 184.476 235.61 184.555C235.844 184.613 236.07 184.703 236.281 184.821C236.358 184.862 236.423 184.924 236.467 185C236.512 185.076 236.535 185.162 236.535 185.25C236.539 185.382 236.491 185.51 236.402 185.607C236.286 185.724 236.139 185.806 235.979 185.842C235.726 185.906 235.465 185.934 235.205 185.927C234.718 185.924 234.235 185.847 233.772 185.697C233.325 185.554 232.9 185.351 232.508 185.093L231.746 186.81C232.209 187.105 232.718 187.321 233.252 187.451C233.885 187.617 234.538 187.701 235.193 187.699C235.884 187.722 236.572 187.598 237.212 187.336C237.698 187.137 238.118 186.803 238.421 186.375C238.688 185.987 238.83 185.527 238.826 185.056C238.838 184.693 238.75 184.334 238.572 184.017Z" fill="black"/>
</g>
<defs>
<clipPath id="clip0_4_70">
<rect width="282" height="282" fill="white" transform="translate(9 9)"/>
</clipPath>
</defs>
</svg>
